<svg width="241" height="174" viewBox="0 0 241 174" fill="none" xmlns="http://www.w3.org/2000/svg">
<path d="M121.276 149.898V149.356L120.885 148.672C120.624 148.542 120.084 148.282 120.006 148.282C119.928 148.282 119.322 148.347 119.029 148.379L118.15 148.965L116.685 149.898L115.61 150.724L114.926 151.212L114.829 151.798L114.926 152.482L115.317 153.068L115.708 153.363M121.276 149.898L115.708 153.363M121.276 149.898L133.193 142.482M115.708 153.363L114.926 153.849L109.388 157.366M138.663 139.078L146.477 134.216H147.454C152.11 137.472 161.52 144.042 161.911 144.277C162.301 144.511 162.594 145.546 162.692 146.035L162.985 147.989L162.692 149.454L161.422 150.626L126.16 172.213L123.718 173.385L123.62 173.4M138.663 139.078V138.514L138.37 138.025L137.588 137.634H136.611L135.635 138.025L134.365 139.078L133.193 139.881L132.313 140.76L132.216 141.444L132.313 141.932L132.802 142.323L133.193 142.482M138.663 139.078L133.193 142.482M109.388 157.366L108.773 157.757L108.089 158.44V159.612V160.589L120.103 168.892L121.276 169.771L121.959 170.455V171.334L121.276 171.627L120.69 172.213V172.799L121.276 173.385L122.448 173.581L123.62 173.4M109.388 157.366L108.968 158.147L108.773 158.733L109.261 159.417L122.057 168.208L122.741 168.892L123.425 169.576L123.62 170.357V173.4M124.694 169.576C124.851 169.42 129.839 166.515 132.313 165.083M123.913 168.404L129.871 164.887M132.704 163.031L134.072 162.152M162.106 146.914L147.454 155.803M149.017 153.068L154.389 149.649M156.831 148.379L160.152 146.328M134.072 164.106L141.007 159.71M136.416 160.785L139.249 158.929M137.197 158.44L149.603 150.724L150.091 150.137V149.551L149.701 148.77L140.616 142.323L139.737 141.932H138.663L121.862 152.189L121.276 152.677L121.08 153.556L121.471 154.435L130.36 160.589L131.141 161.078H132.313L133.486 160.589L137.197 158.44ZM136.807 151.993H133.974L137.002 150.137L136.807 151.993ZM126.453 151.017C126.531 150.938 132.737 147.012 135.83 145.058H136.807V145.644L127.625 151.212L126.453 151.017ZM128.309 151.603L136.807 146.328L137.002 146.914L129.285 151.603L128.309 151.798V151.603ZM130.751 151.7L136.807 147.695L137.002 148.184L136.904 148.77L132.118 151.7L131.434 151.798L130.751 151.7Z" stroke="#D4D4D4" stroke-width="0.5"/>
<path d="M236.343 27.8429V28.9174L170.018 68.8276M236.343 27.8429V27.2568L236.138 26.9638M236.343 27.8429L238.003 26.8107M235.008 25.7916L235.659 26.28L236.138 26.9638M235.008 25.7916L234.878 25.694L233.901 25.4986L232.338 26.0847L160.348 69.6501L157.32 71.6689M235.008 25.7916L236.343 24.7172L236.538 24.5413M236.538 24.5413L237.32 23.838L237.808 23.6427M236.538 24.5413L237.222 24.7172L237.71 25.2056L237.906 25.7916L238.003 26.3777V26.8107M238.003 26.8107L238.98 26.2035M237.808 23.6427L238.296 23.4473L239.176 23.252L239.957 23.545L240.25 24.1311L240.152 25.0102L239.957 25.5963L238.98 26.2035M237.808 23.6427L238.296 24.3264L238.785 24.7172L238.98 25.4009V26.2035M157.32 76.2924H156.245L155.171 75.6086L154.975 74.7295V73.8504L155.366 72.9713L155.659 72.7759M157.32 76.2924H157.613L160.152 74.7642M157.32 76.2924L157.613 75.6086V74.5341C157.548 74.2411 157.398 73.655 157.32 73.655C157.241 73.655 156.766 73.1992 156.538 72.9713L155.659 72.7759M155.659 72.7759L156.538 72.1898M156.538 72.1898L157.027 72.2875L157.71 72.6782L158.101 73.362L158.296 73.9481V74.6318M156.538 72.1898L157.32 71.6689M157.32 71.6689L157.906 71.8968L158.492 72.1898L158.882 72.7759L159.078 73.362L159.176 73.8504M160.152 74.7642V74.0457V73.362L160.055 72.6782L159.664 72.1898M160.152 74.7642L161.129 74.1764M161.129 74.1764V73.655L161.227 72.9713L161.129 72.3852L160.738 71.9945M161.129 74.1764L161.996 73.655M161.52 71.4084L161.813 71.7991L162.008 72.5805V73.0689L161.996 73.655M161.996 73.655L162.887 73.1184M162.497 70.92L162.79 71.6037L162.985 72.1898V72.5805L162.887 73.1184M162.887 73.1184L163.962 72.4718M171.386 66.2313L236.138 26.9638M163.669 70.4316L163.864 70.92L163.962 71.3107V71.7991V72.4718M163.962 72.4718L164.939 71.8841M164.45 69.9432L164.743 70.4316L164.841 70.8223L164.939 71.1153V71.5061V71.8841M164.939 71.8841L166.013 71.2375M168.748 67.0128L169.041 67.3058L169.139 67.6965L169.237 68.0872L169.334 68.478V68.8687V69.239M169.334 69.239L170.018 68.8276M169.334 69.239L168.26 69.8856M169.92 67.2081L170.018 67.5988L170.116 68.0872L170.018 68.3803V68.8276M167.771 68.0872L168.064 68.3803L168.162 68.771V69.1617L168.26 69.5524V69.8856M168.26 69.8856L167.088 70.5909M166.599 68.8276L166.99 69.239L167.088 69.5524V69.9432V70.3339V70.5909M167.088 70.5909L166.013 71.2375M165.525 69.1617L165.915 69.5524L166.013 69.9432V70.4316V70.8223V71.2375" stroke="#D4D4D4" stroke-width="0.5"/>
<path d="M9.92033 114.68H12.167M9.92033 114.68L14.4136 111.154M9.92033 114.68L9.13889 114.088M12.167 114.68V115.364L12.8507 115.95L13.9252 116.926M12.167 114.68L13.0461 113.996M13.9252 116.926L9.13889 120.052L8.84585 120.736V120.931M13.9252 116.926L14.8043 116.438L15.2927 116.145V115.754L13.0461 113.996M70.5797 147.012V145.547V144.668M70.5797 147.012L66.5748 147.793M70.5797 147.012L72.0396 148.086M70.5797 144.668L54.1694 132.653H51.9228L45.7689 127.964L48.2109 126.499H49.5785L56.4161 122.201M70.5797 144.668L66.8679 147.403L66.5748 147.793M56.4161 122.201L57.2952 122.864M56.4161 122.201L57.2952 121.615M62.7653 126.987L63.7421 127.183L64.8166 127.085L65.7934 126.89M62.7653 126.987L61.8994 126.335M62.7653 126.987L62.9606 126.499V124.643L63.6444 125.185M65.7934 126.89L66.9655 127.574M65.7934 126.89L65.8911 123.299M65.7934 126.89L65.0119 126.27M66.9655 127.574V129.136L67.747 129.697M66.9655 127.574L67.0632 124.164M96.4649 141.053L96.758 140.858L96.8557 140.272V139.491L96.758 139.002L78.4918 114.289L67.8447 120.834L66.9655 121.127H65.0119L63.3514 120.834M96.4649 141.053L96.4488 142.421M96.4649 141.053L96.201 140.858M63.3514 120.834V121.42L63.7421 121.713M63.3514 120.834L61.8994 119.759M56.3184 116.243L57.1975 116.731L58.4674 117.219L59.3465 117.87M56.3184 116.243L43.5223 107.549M56.3184 116.243L56.0254 116.731L54.4625 117.677M43.5223 107.549L42.6432 108.083M43.5223 107.549L41.3733 106.13M28.1865 114.191L27.6981 113.605L26.6236 112.726L26.1352 112.042L18.8092 100.418L18.8327 99.8324M28.1865 114.191L27.6004 114.68H26.6236H25.7445L20.8605 111.066L15.2927 108.526L7.77137 105.595L6.89225 105.682M28.1865 114.191L30.1039 113.019M85.9155 136.169L85.2806 136.618M85.9155 136.169V138.801M85.9155 136.169L86.5504 135.828M67.8447 126.011V124.741L67.0632 124.164M67.8447 126.011L68.7726 126.68M67.8447 126.011L67.747 129.697M63.7421 121.713L63.6444 125.185M63.7421 121.713L64.377 122.181M59.3465 120.248V117.87M59.3465 120.248L57.979 121.159M59.3465 120.248V124.41M59.3465 117.87L60.714 118.882M66.5748 147.793V148.379L66.8679 148.604M74.4869 154.436L73.5101 154.485M74.4869 154.436L73.3808 153.589M74.4869 154.436L74.5378 154.447M82.7897 156.292V156.585L82.106 157.366L80.25 157.538M82.7897 156.292V155.999L81.9506 155.381M82.7897 156.292L80.25 155.724M72.5333 154.533L71.7519 154.217M72.5333 154.533V158.207M72.5333 154.533L73.5101 154.485M35.9032 139.686L34.7311 139.393M35.9032 139.686V143.703M35.9032 139.686L37.1082 140.174M34.7311 139.393L33.7543 138.807M34.7311 139.393V143.239M33.7543 138.807L32.9003 138.186M33.7543 138.807V142.731M27.3074 134.118L41.1824 125.718M27.3074 134.118L14.8043 125.375M27.3074 134.118V138.184M27.3074 134.118L28.0888 134.686M8.84585 120.931V121.42V124.741L8.94353 125.229L9.36681 125.528M8.84585 120.931L9.36681 121.322M14.5113 125.17L14.3159 125.034L13.6647 124.545M14.5113 125.17L28.888 116.438M14.5113 125.17L14.8043 125.375M13.0461 113.996L14.8043 112.824L15.2927 112.433L15.4881 112.14L15.0974 111.652L14.4136 111.154M6.89225 105.682L5.72009 105.798M6.89225 105.682L7.1759 105.889M14.4136 111.154L13.4862 110.48M13.4862 110.48L9.13889 114.088M13.4862 110.48L12.6554 109.875M9.13889 114.088L8.25977 113.422M12.6554 109.875L8.25977 113.422M12.6554 109.875L11.6786 109.164M8.25977 113.422L7.38065 112.756M0.67888 107.679L0.25 107.354V106.67L0.836081 106.279L2.49664 106.116M0.67888 107.679L2.49664 106.116M0.67888 107.679L1.2815 108.135M2.49664 106.116L3.76648 105.99M3.76648 105.99L1.2815 108.135M3.76648 105.99L5.72009 105.798M1.2815 108.135L2.24026 108.862M5.72009 105.798L2.24026 108.862M2.24026 108.862L3.08663 109.503M7.1759 105.889L3.08663 109.503M7.1759 105.889L8.06441 106.535M3.08663 109.503L3.96185 110.166M8.06441 106.535L3.96185 110.166M8.06441 106.535L9.05558 107.256M3.96185 110.166L4.74329 110.758M9.05558 107.256L4.74329 110.758M9.05558 107.256L9.92033 107.885M4.74329 110.758L5.62241 111.424M9.92033 107.885L5.62241 111.424M9.92033 107.885L10.801 108.526M5.62241 111.424L6.50153 112.09M10.801 108.526L6.50153 112.09M10.801 108.526L11.6786 109.164M6.50153 112.09L7.38065 112.756M11.6786 109.164L7.38065 112.756M38.0522 123.08L41.1824 125.718M41.1824 125.718L43.8153 124.124M40.7873 121.908L43.8153 124.124M43.8153 124.124L46.355 122.586M43.4246 120.052L46.355 122.586M46.355 122.586L49.1877 120.871M45.9643 118.392L49.1877 120.871M49.1877 120.871L51.7274 119.333M48.6017 117.024L51.7274 119.333M51.7274 119.333L54.4625 117.677M51.0437 115.461L54.4625 117.677M32.8752 119.564L28.888 116.438M28.888 116.438L30.1401 115.677M32.1914 117.512L30.1401 115.677M30.1401 115.677L31.1395 115.07M33.2659 116.829L31.1395 115.07M31.1395 115.07L32.1043 114.484M34.3404 116.438L32.1043 114.484M32.1043 114.484L33.2499 113.789M35.4148 115.677L33.2659 113.801L33.2499 113.789M33.2499 113.789L34.2427 113.186M37.3685 115.754L34.2427 113.186M34.2427 113.186L35.2523 112.572M37.6615 114.582L35.2523 112.572M35.2523 112.572L36.2856 111.945M38.8337 113.898L36.2856 111.945M36.2856 111.945L37.3685 111.287M39.9081 113.186L37.3685 111.287M37.3685 111.287L38.3762 110.675M40.5919 112.433L38.3762 110.675M38.3762 110.675L39.5019 109.991M43.5223 113.019L39.5019 109.991M39.5019 109.991L40.4942 109.388M42.8385 111.287L40.4942 109.388M40.4942 109.388L41.6261 108.701M43.913 110.577L41.6261 108.701M41.6261 108.701L42.6432 108.083M44.9875 109.796L42.6432 108.083M41.3733 106.13L38.3453 104.13L34.145 106.768L33.5589 107.061L32.7775 106.865L29.3587 104.13V102.958L19.0046 95.5344L18.8327 99.8324M41.3733 106.13L40.2989 106.787M18.8327 99.8324L19.3953 100.614L25.6468 109.164L26.1352 109.698L30.1039 113.019M30.1039 113.019L31.0627 112.433M27.6981 109.698L31.0627 112.433M31.0627 112.433L32.1914 111.743M28.4796 108.819L32.1914 111.743M32.1914 111.743L33.4594 110.968M30.1039 108.428L33.4594 110.968M33.4594 110.968L34.4181 110.382M31.3123 108.135L34.4181 110.382M34.4181 110.382L35.5366 109.698M32.6798 107.744L35.5366 109.698M35.5366 109.698L36.587 109.056M34.4181 107.354L36.587 109.056M36.587 109.056L37.5638 108.459M35.3485 106.865L37.5638 108.459M37.5638 108.459L38.4128 107.94M36.4893 106.279L38.4128 107.94M38.4128 107.94L39.3715 107.354M37.4661 105.791L39.3715 107.354M39.3715 107.354L40.2989 106.787M38.1499 105.107L40.2989 106.787M9.36681 121.322V125.528M9.36681 121.322L10.1157 121.884M9.36681 125.528L10.1157 126.056M10.1157 121.884V126.056M10.1157 121.884L11.1902 122.69M10.1157 126.056L11.1902 126.814M11.1902 122.69V126.814M11.1902 122.69L12.5577 123.715M11.1902 126.814L12.5577 127.779M12.5577 123.715V127.779M12.5577 123.715L13.6647 124.545M12.5577 127.779L13.6647 128.56M13.6647 124.545V128.56M13.6647 128.56L14.8043 129.364M14.8043 125.375V129.364M14.8043 129.364L27.3074 138.184M80.25 155.724V157.538M80.25 155.724L79.8593 155.637M80.25 157.538L78.3941 157.71M66.2818 151.999V155.731M66.2818 151.999L67.7136 152.58M66.2818 151.999L45.5427 143.593M66.2818 155.731L67.7136 156.298M66.2818 155.731L45.4759 147.493M67.7136 152.58V156.298M67.7136 152.58L69.2122 153.187M67.7136 156.298L69.2122 156.892M69.2122 153.187V156.892M69.2122 153.187L70.6774 153.781M69.2122 156.892L70.6774 157.472M70.6774 153.781V157.472M70.6774 153.781L71.7519 154.217M70.6774 157.472L71.7519 157.897M71.7519 154.217V157.897M71.7519 157.897L72.5333 158.207M72.5333 158.207L72.631 158.245L73.5101 158.164M73.5101 154.485V158.164M73.5101 158.164L74.7054 158.053M74.7054 154.485V158.053M74.7054 154.485L75.4637 154.654M74.7054 154.485L74.5378 154.447M74.7054 158.053L75.4637 157.982M75.4637 154.654V157.982M75.4637 154.654L76.5382 154.894M75.4637 157.982L76.5382 157.883M76.5382 154.894V157.883M76.5382 154.894L77.1243 155.025M76.5382 157.883L78.3941 157.71M78.3941 155.309V157.71M78.3941 155.309L77.1243 155.025M78.3941 155.309L79.8593 155.637M27.3074 138.184L28.0888 138.735M28.0888 134.686V138.735M28.0888 134.686L28.968 135.326M28.0888 138.735L28.968 139.355M28.968 135.326V139.355M28.968 135.326L29.9448 136.036M28.968 139.355L29.9448 140.044M29.9448 136.036V140.044M29.9448 136.036L31.0192 136.818M29.9448 140.044L31.0192 140.802M31.0192 136.818V140.802M31.0192 136.818L32.0463 137.565M31.0192 140.802L32.0463 141.527M32.0463 137.565V141.527M32.0463 137.565L32.9003 138.186M32.0463 141.527L32.9003 142.129M32.9003 138.186V142.129M32.9003 142.129L33.7543 142.731M33.7543 142.731L34.145 143.007L34.7311 143.239M34.7311 143.239L35.9032 143.703M35.9032 143.703L37.1082 144.18M37.1082 140.174V144.18M37.1082 140.174L38.5866 140.774M37.1082 144.18L38.5866 144.766M38.5866 140.774V144.766M38.5866 140.774L40 141.346M38.5866 144.766L40 145.325M40 141.346V145.325M40 141.346L41.5687 141.982M40 145.325L41.5687 145.946M41.5687 141.982V145.946M41.5687 141.982L43.5223 142.774M41.5687 145.946L43.5223 146.72M43.5223 142.774V146.72M43.5223 142.774L45.5427 143.593M43.5223 146.72L45.4759 147.493M45.5427 143.593L45.4759 147.493M42.8385 116.633L41.178 115.07V115.754M43.1316 113.996L43.0821 114.026M43.0821 114.026L42.6432 114.289L42.4478 114.68L42.6432 115.168L43.2293 115.559L43.8153 115.852L44.4014 115.677L44.7921 115.364L44.8898 114.875L44.5968 114.387L44.1084 114.094L43.7177 113.898L43.0821 114.026ZM66.8679 148.604L72.0396 148.086M66.8679 148.604L67.7136 149.251M72.0396 148.086L72.9686 148.77M67.7136 149.251L72.9686 148.77M67.7136 149.251L68.8215 150.099M72.9686 148.77L73.8976 149.454M68.8215 150.099L73.8976 149.454M68.8215 150.099L70.0204 151.017M73.8976 149.454L74.9594 150.235M70.0204 151.017L74.9594 150.235M70.0204 151.017L71.1689 151.896M74.9594 150.235L76.0498 151.038M71.1689 151.896L76.0498 151.038M71.1689 151.896L72.2747 152.742M76.0498 151.038L77.2008 151.885M72.2747 152.742L77.1243 151.896L77.2008 151.885M72.2747 152.742L73.3808 153.589M77.2008 151.885L78.3655 152.742M73.3808 153.589L78.3655 152.742M78.3655 152.742L79.664 153.698M74.5378 154.447L79.664 153.698M79.664 153.698L80.8876 154.599M77.1243 155.025L80.8876 154.599M80.8876 154.599L81.9506 155.381M79.8593 155.637L81.9506 155.381M89.2075 135.681L88.9436 135.486L88.1621 135.29L87.6737 135.388M89.2075 135.681L90.018 136.281M89.2075 135.681L87.6737 137.135M83.7665 140.663L84.1572 140.467L84.6456 140.004M83.7665 140.663L83.1804 140.758M83.7665 140.663V137.244M83.1804 140.758L84.6456 141.808M83.1804 140.758L82.872 140.537M83.7665 137.244L84.2549 137.342L84.6456 137.066M83.7665 137.244L83.2781 137.146L82.872 136.853M94.2183 148.669L95.5858 149.649H96.0742L96.3673 149.356L96.3994 146.621M94.2183 148.669L96.3994 146.621M94.2183 148.669L93.2415 147.969M96.3994 146.621L96.4224 144.668M93.2415 147.969L96.4224 144.668M93.2415 147.969L92.0693 147.129M96.4224 144.668L96.4488 142.421M92.0693 147.129L96.4488 142.421M92.0693 147.129L90.9948 146.359M90.9948 146.359L96.201 140.858M90.9948 146.359L89.8618 145.547M96.201 140.858L95.0134 139.979M89.8618 145.547L95.0134 139.979M89.8618 145.547L88.9078 144.863M95.0134 139.979L94.0898 139.295M88.9078 144.863L94.0898 139.295M88.9078 144.863L87.6737 143.979M94.0898 139.295L92.9484 138.45M87.6737 143.979L92.9484 138.45M87.6737 143.979L86.5909 143.202M92.9484 138.45L91.874 137.655M86.5909 143.202L91.874 137.655M86.5909 143.202L85.5006 142.421M91.874 137.655L90.9229 136.951M85.5006 142.421L90.9229 136.951M85.5006 142.421L84.6456 141.808M90.9229 136.951L90.018 136.281M84.6456 141.808L90.018 136.281M84.6456 137.066V140.004M84.6456 137.066L85.2806 136.618M84.6456 140.004L85.2806 139.403M85.2806 136.618V139.403M85.2806 139.403L85.9155 138.801M85.9155 138.801L86.5504 138.199M86.5504 135.828L87.1853 135.486L87.6737 135.388M86.5504 135.828V138.199M86.5504 138.199L87.6737 137.135M87.6737 135.388V137.135M82.872 136.853V140.537M82.872 136.853L82.079 136.281M82.872 140.537L82.0083 139.918M82.079 136.281L82.0083 139.918M82.079 136.281L81.3245 135.737M82.0083 139.918L81.2268 139.358M81.3245 135.737L81.2268 139.358M81.3245 135.737L80.2997 134.997M81.2268 139.358L80.2997 138.693M80.2997 134.997V138.693M80.2997 134.997L79.5663 134.468M80.2997 138.693L79.6103 138.199M79.5663 134.468L79.6103 138.199M79.5663 134.468L78.9802 134.045M79.6103 138.199L78.9802 137.748M78.9802 134.045V137.748M78.9802 134.045L78.2964 133.552M78.9802 137.748L78.2774 137.244M78.2964 133.552L78.2774 137.244M78.2964 133.552L77.7103 133.129M78.2774 137.244L77.7103 136.838M77.7103 133.129V136.838M77.7103 133.129L76.9289 132.565M77.7103 136.838L76.8312 136.207M76.9289 132.565L76.8312 136.207M76.9289 132.565L76.0498 131.931M76.8312 136.207L76.0498 135.647M76.0498 131.931V135.647M76.0498 131.931L75.1707 131.297M76.0498 135.647L75.1707 135.017M75.1707 131.297V135.017M75.1707 131.297L74.2915 130.662M75.1707 135.017L74.2915 134.387M74.2915 130.662V134.387M74.2915 130.662L73.3953 130.016M74.2915 134.387L73.3953 133.745M73.3953 130.016V133.745M73.3953 130.016L72.5333 129.394M73.3953 133.745L72.5333 133.127M72.5333 129.394V133.127M72.5333 129.394L71.5565 128.689M72.5333 133.127L71.5565 132.427M71.5565 128.689V132.427M71.5565 128.689L70.5797 127.984M71.5565 132.427L70.5797 131.727M70.5797 127.984V131.727M70.5797 127.984L69.7006 127.35M70.5797 131.727L69.7006 131.097M69.7006 127.35V131.097M69.7006 127.35L68.7726 126.68M69.7006 131.097L68.7726 130.432M68.7726 126.68V130.432M68.7726 130.432L67.747 129.697M67.0632 124.164L65.8911 123.299M65.8911 123.299L65.0119 122.65M57.2952 122.864V121.615M57.2952 122.864L57.979 123.379M57.2952 121.615L57.979 121.159M57.979 123.379V121.159M57.979 123.379L59.3465 124.41M59.3465 124.41L60.714 125.441M60.714 118.882V125.441M60.714 118.882L61.8994 119.759M60.714 125.441L61.8994 126.335M61.8994 119.759V126.335M63.6444 125.185L64.377 125.766M65.0119 122.65V126.27M65.0119 122.65L64.377 122.181M65.0119 126.27L64.377 125.766M64.377 122.181V125.766M34.438 120.345L33.9496 120.638L33.852 121.029C33.9171 121.094 34.0473 121.244 34.0473 121.322C34.0473 121.4 34.5032 121.81 34.7311 122.006L35.1218 122.201L35.5125 122.103L36.0986 121.908L36.3917 121.517L36.4893 121.127L36.1963 120.638L35.6102 120.248L35.2195 120.052L34.438 120.345Z" stroke="#D4D4D4" stroke-width="0.5"/>
<path d="M125.769 76.194L127.43 78.1476L231.068 15.4368V12.018M125.769 76.194L231.068 12.018M125.769 76.194L124.304 74.973M231.068 12.018L229.115 10.7228M110.922 64.9555L124.011 74.7288L124.304 74.973M110.922 64.9555L109.359 63.7886L213.388 0.296387L215.049 1.39731M110.922 64.9555L111.873 64.3747M215.049 1.39731L209.774 4.61696M215.049 1.39731L229.115 10.7228M209.774 4.61696L223.644 14.2647M209.774 4.61696L178.321 23.8156M223.644 14.2647L229.115 10.7228M223.644 14.2647L190.824 34.3217M124.304 74.973L126.302 73.752M124.597 72.2868L126.302 73.752M126.302 73.752L129.019 72.0914M127.332 70.6262L129.019 72.0914M129.019 72.0914L131.736 70.4309M130.067 69.0633L131.736 70.4309M131.736 70.4309L134.294 68.868M132.607 67.5004L134.294 68.868M134.294 68.868L137.011 67.2074M135.244 65.8399L137.011 67.2074M137.011 67.2074L139.728 65.5468M137.881 64.0816L139.728 65.5468M139.728 65.5468L142.286 63.984M140.616 62.5188L142.286 63.984M142.286 63.984L144.914 62.3777M140.909 59.2953L144.914 62.3777M144.914 62.3777L147.649 60.7062M146.086 59.4907L147.649 60.7062M147.649 60.7062L150.384 59.0348M148.626 57.6347L150.384 59.0348M150.384 59.0348L152.995 57.4394M151.361 55.9742L152.995 57.4394M152.995 57.4394L155.712 55.7788M154.096 54.3136L155.712 55.7788M155.712 55.7788L158.296 54.1996M156.831 52.8484L158.296 54.1996M158.296 54.1996L161.129 52.4685M159.469 51.1878L161.129 52.4685M161.129 52.4685L163.571 50.9762M162.204 49.6249L163.571 50.9762M163.571 50.9762L166.404 49.2451M162.399 46.3038L166.404 49.2451M166.404 49.2451L169.139 47.5737M167.674 46.3038L169.139 47.5737M169.139 47.5737L171.776 45.9619M170.311 44.7409L171.776 45.9619M171.776 45.9619L174.414 44.3502M172.851 43.0804L174.414 44.3502M174.414 44.3502L177.291 42.592M175.684 41.3221L177.291 42.592M177.291 42.592L179.884 41.0074M178.321 39.6616L179.884 41.0074M179.884 41.0074L182.619 39.336M180.958 37.9033L182.619 39.336M182.619 39.336L185.123 37.8056M183.498 36.3404L185.123 37.8056M185.123 37.8056L187.894 36.1125M186.233 34.5822L187.894 36.1125M187.894 36.1125L190.824 34.3217M186.721 31.5541L190.824 34.3217M114.145 66.426L111.873 64.3747M111.873 64.3747L112.875 63.7631M115.024 65.5468L112.875 63.7631M112.875 63.7631L113.852 63.1669M116.099 64.9555L113.852 63.1669M113.852 63.1669L114.914 62.5188M119.322 65.6445L114.914 62.5188M114.914 62.5188L116.001 61.8551M118.248 63.7631L116.001 61.8551M116.001 61.8551L117.075 61.1993M119.224 63.0072L117.075 61.1993M117.075 61.1993L118.052 60.6031M120.104 62.3234L118.052 60.6031M118.052 60.6031L119.127 59.9472M121.178 61.6396L119.127 59.9472M119.127 59.9472L120.195 59.2953M123.62 62.0304L120.195 59.2953M120.195 59.2953L121.276 58.6355M123.327 60.3698L121.276 58.6355M121.276 58.6355L122.35 57.9796M124.499 59.686L122.35 57.9796M122.35 57.9796L123.522 57.2642M125.574 58.9046L123.522 57.2642M123.522 57.2642L124.792 56.4891M126.746 58.2208L124.792 56.4891M124.792 56.4891L125.769 55.8928M130.36 59.2953L125.769 55.8928M125.769 55.8928L126.843 55.237M129.481 57.1463L126.843 55.237M126.843 55.237L127.82 54.6408M130.165 56.4891L127.82 54.6408M127.82 54.6408L129.019 53.909M131.239 55.7788L129.019 53.909M129.019 53.909L129.872 53.3887M132.118 55.237L129.872 53.3887M129.872 53.3887L130.848 52.7924M133.974 55.3881L130.848 52.7924M130.848 52.7924L131.923 52.1366M134.169 53.909L131.923 52.1366M131.923 52.1366L132.997 51.4809M135.342 53.2391L132.997 51.4809M132.997 51.4809L134.169 50.7653M136.025 52.4577L134.169 50.7653M134.169 50.7653L135.244 50.1094M137.295 51.7739L135.244 50.1094M135.244 50.1094L136.221 49.5132M140.616 52.7924L136.221 49.5132M136.221 49.5132L137.393 48.7977M139.933 50.8948L137.393 48.7977M137.393 48.7977L138.438 48.1597M140.714 50.0157L138.438 48.1597M138.438 48.1597L139.398 47.5737M141.789 49.5132L139.398 47.5737M139.398 47.5737L140.518 46.8899M142.765 48.7977L140.518 46.8899M140.518 46.8899L141.495 46.2935M145.11 49.1365L141.495 46.2935M141.495 46.2935L142.599 45.6201M145.11 47.6713L142.599 45.6201M142.599 45.6201L143.742 44.9222M146.086 46.8899L143.742 44.9222M143.742 44.9222L144.914 44.2067M147.259 46.1085L144.914 44.2067M144.914 44.2067L146.086 43.4912M148.431 45.4247L146.086 43.4912M146.086 43.4912L147.063 42.895M151.361 46.1085L147.063 42.895M147.063 42.895L148.2 42.2012M150.97 44.3502L148.2 42.2012M148.2 42.2012L149.31 41.5237M151.654 43.5688L149.31 41.5237M149.31 41.5237L150.384 40.8678M152.826 42.895L150.384 40.8678M150.384 40.8678L151.166 40.3908M153.608 42.2012L151.166 40.3908M151.166 40.3908L152.041 39.8569M155.464 42.3966L152.041 39.8569M152.041 39.8569L153.119 39.1984M155.757 41.3221L153.119 39.1984M153.119 39.1984L154.292 38.4829M156.831 40.5407L154.292 38.4829M154.292 38.4829L155.268 37.8867M157.906 39.8569L155.268 37.8867M155.268 37.8867L156.441 37.1712M159.078 39.0755L156.441 37.1712M156.441 37.1712L157.482 36.5358M161.911 39.8569L157.482 36.5358M157.482 36.5358L158.442 35.9497M160.934 37.8867L158.442 35.9497M158.442 35.9497L159.566 35.2632M161.715 37.1712L159.566 35.2632M159.566 35.2632L160.362 34.7775M162.79 36.6335L160.362 34.7775M160.362 34.7775L161.325 34.19M163.864 36.1451L161.325 34.19M161.325 34.19L162.399 33.5342M165.72 36.2427L162.399 33.5342M162.399 33.5342L163.376 32.9379M165.72 34.7775L163.376 32.9379M163.376 32.9379L164.523 32.2379M166.795 34.0938L164.523 32.2379M164.523 32.2379L165.72 31.507M168.26 33.6054L165.72 31.507M165.72 31.507L166.892 30.7915M169.334 32.9379L166.892 30.7915M166.892 30.7915L167.869 30.1953M171.972 33.3123L167.869 30.1953M167.869 30.1953L168.944 29.5394M171.19 31.507L168.944 29.5394M168.944 29.5394L170.124 28.819M172.265 30.675L170.124 28.819M170.124 28.819L171.084 28.233M173.339 29.9912L171.084 28.233M171.084 28.233L171.972 27.6911M174.511 29.5394L171.972 27.6911M171.972 27.6911L172.851 27.1545M176.367 29.6005L172.851 27.1545M172.851 27.1545L174.121 26.3794M176.758 28.233L174.121 26.3794M174.121 26.3794L175.293 25.6639M177.832 27.6911L175.293 25.6639M175.293 25.6639L176.367 25.0081M178.907 26.9631L176.367 25.0081M176.367 25.0081L177.291 24.4444M179.884 26.3794L177.291 24.4444M177.291 24.4444L178.321 23.8156M182.619 26.9631L178.321 23.8156M214.56 3.42216L213.876 3.7152L213.29 4.2036V4.78968L213.583 5.37576L214.365 5.6688H215.439L215.928 5.47344L216.318 5.08272L216.416 4.49664L216.123 4.00824L215.635 3.61752L214.951 3.42216H214.56ZM223.938 10.0644L223.254 10.2598L222.668 10.7228L222.57 11.2366L222.863 11.8227L223.449 12.2134L224.524 12.3111L225.305 12.2134L225.696 11.8227L225.891 11.2366L225.696 10.7228L225.207 10.2598L224.719 10.0644H223.938Z" stroke="#D4D4D4" stroke-width="0.5"/>
<path d="M78.4918 114.288L81.4222 118.293L105.94 103.446H116.88V102.86H118.541V102.567H119.029V102.078H119.81V101.687H120.494V101.394H120.885V100.613H121.276V100.222H121.959V99.7338H122.448V98.6593L123.327 98.5616V97.9755H123.718V97.1941H124.011V96.9011H124.401V96.5103L124.792 96.4127V95.3382H125.476V94.9475H125.867V94.2637H126.16V93.1892H126.648V92.5054H126.941V90.9426L127.234 90.8449V85.7655M78.4918 114.288L67.3562 121.028M78.4918 114.288L105.549 97.4871L117.271 97.2918L117.564 96.9011L119.029 96.7057L119.42 96.1196L119.81 95.9243L120.006 95.3382H121.08L121.276 94.4591L122.155 94.2637V92.9938L122.982 92.7985L123.132 91.9194L123.62 91.6263L123.718 90.8449L124.206 90.5518V90.0634H124.792V88.9288H125.476L125.671 88.0122L125.867 87.8168L125.964 87.0353L126.648 86.9377L127.234 85.7655M67.3562 121.028L63.449 120.93L58.3697 117.121L58.1418 117.023M67.3562 121.028V113.897M56.3184 116.242L58.1418 117.023M56.3184 116.242V113.8M56.3184 116.242L43.4246 107.555M127.234 80.6861V78.0488L126.941 77.8218M127.234 80.6861L126.941 81.5652H126.648V82.1513H126.16V82.9328H125.867M127.234 80.6861V85.7655M58.1418 117.023V112.237M58.1418 112.237L44.0107 101.883L43.4246 102.176V104.813M58.1418 112.237L56.3184 113.8M43.4246 104.813L56.3184 113.8M43.4246 104.813V107.555M43.4246 107.555L37.7592 103.739V93.7753L39.029 92.6031V91.2356L79.2732 67.3039L80.9338 64.6666H82.399V63.7874L82.8874 63.299H84.6456V62.1269H86.3062V61.0524H88.0644V60.564H88.4551V59.8802H89.6273V59.4895L89.9203 59.5872V59.0988H90.3111V58.708H91.7763V57.6336H93.2415V57.2428H94.4136V56.9498H95.8788L95.7812 56.5591H99.493L101.447 58.0724M67.3562 113.897L105.158 91.431M67.3562 113.897L66.9655 114.028M101.447 58.0724L100.274 57.6336L99.2 57.4382H98.1255L40.2988 92.3101L39.9081 92.7008M101.447 58.0724L103.889 59.9641M105.158 91.431L111.215 91.2236M105.158 91.431L109.163 88.9288M119.42 90.5518V90.9426L118.541 90.9727M119.42 90.5518H120.299V89.6727M119.42 90.5518L119.029 89.9658L118.248 89.0866L117.173 88.0122L115.903 87.133L114.829 86.2539L114.34 86.0585H113.757M120.299 89.6727L120.787 89.575V89.0866H121.08M120.299 89.6727L119.517 88.989L118.931 88.5006L118.15 87.8168L117.271 87.2307L116.489 86.5469L115.903 85.8632L115.513 85.2771L115.652 84.875M122.448 87.4261V88.0122H122.155V88.2564M122.448 87.4261H123.132V86.9377H123.718M122.448 87.4261L121.569 86.5469L120.494 85.6678L119.615 84.875L118.931 84.3003L118.345 83.8635H117.857L117.466 83.7415M123.718 86.9377V85.9609M123.718 86.9377L122.982 86.5469L122.448 86.1826L121.666 85.5701L120.983 85.0817L120.397 84.4957L119.713 83.8635L119.322 83.4212L119.073 82.7374M123.718 85.9609H124.401V85.2771H124.792V84.8864M123.718 85.9609L123.327 85.4725L122.741 84.7887L122.155 84.3003L121.471 83.6165L120.787 83.1281L120.299 82.7374L119.908 82.6397L119.42 82.5209M125.867 82.9328V83.8119H125.476V84.4957H125.134M125.867 82.9328L122.982 80.2954M126.941 77.8218L122.982 80.2954M126.941 77.8218L123.522 75.1734M122.982 80.2954L121.373 81.3003M111.215 91.2236L109.163 88.9288M111.215 91.2236L113.364 91.15M109.163 88.9288L110.531 88.0744M123.522 75.1734L123.62 75.8998V76.5836L123.327 77.2673L66.7702 111.944M123.522 75.1734L120.173 72.5787M66.7702 111.944L66.9655 114.028M66.7702 111.944L65.0119 111.846M66.9655 114.028L66.4771 114.19H65.4026H64.3282L63.6444 113.897L63.2904 113.638M63.2904 113.638L38.5406 95.5335V94.6544V93.873L38.8336 93.4822L39.6151 92.9938L39.9081 92.7008M63.2904 113.638L63.9374 113.604L64.5235 113.311L64.9142 112.725L65.0119 111.846M65.0119 111.846L40.2012 93.6776L39.9081 93.2869V92.7008M74.0962 102.567L74.1938 103.348L74.8776 104.032L76.1475 104.129L77.0266 103.739L78.4918 102.86L79.5663 102.078L80.1523 101.394V100.808L79.957 100.32L79.7616 100.125M74.0962 102.567L74.6822 101.492L77.808 99.7338L78.6871 99.6361L79.5663 99.9292L79.7616 100.125M74.0962 102.567L74.6822 103.055L75.2683 103.153H76.0498L76.8312 102.762L77.515 102.469L78.3941 101.98L79.0779 101.394L79.6639 100.808L79.7616 100.125M89.5296 93.3846L89.6273 92.7985L90.4087 92.2124L92.3624 90.9426L92.8508 90.6495L93.5345 90.3565L94.316 90.2588L94.902 90.4542C94.9997 90.5518 95.1951 90.7667 95.1951 90.8449M89.5296 93.3846L90.2134 93.7753L90.7995 93.873L91.4832 93.7753L92.5577 93.2869L94.7067 91.724L95.1951 91.3333C95.1951 91.203 95.1951 90.923 95.1951 90.8449M89.5296 93.3846V94.4591L90.018 94.8498L90.7995 95.0451L91.6786 94.9475L92.5577 94.5567L94.0229 93.5799L95.1951 92.6031L95.4881 92.2124V91.724L95.1951 90.8449M67.9423 78.4395L67.747 77.658L68.1377 76.9743L70.5797 75.1183L71.4588 74.6299L72.5333 74.3369H73.4124L73.6078 74.459M67.9423 78.4395L68.5284 78.9279L69.2122 79.1232L70.189 78.9279L71.2634 78.2441L74.1938 76.2905L74.4869 75.5091L74.1938 74.8253L73.6078 74.459M67.9423 78.4395L68.6261 78.6348H69.4075L70.3843 78.2441L71.3611 77.4627L72.3379 76.7789C72.5658 76.6161 73.0412 76.271 73.1194 76.1928C73.1975 76.1147 73.4124 75.8998 73.5101 75.8021L73.7054 75.3137V74.8253L73.6078 74.459M120.173 72.5787L107.503 80.6861L106.624 80.9792H105.549L90.5064 69.6482L90.3111 68.9645V67.89L103.889 59.9641M120.173 72.5787L103.889 59.9641M100.079 70.7227L97.1487 72.3833L96.9533 72.8717L97.1487 73.3601L97.8324 73.4578L100.861 71.6019M101.447 72.0903L99.1023 73.5555L98.8092 74.0439V74.3369L99.2976 74.5323H99.786L102.619 72.6763M103.596 73.3601L100.861 74.8253L100.567 75.1734L100.763 75.7044L101.447 75.8998L102.228 75.7044L104.67 74.0439M106.526 72.481L112.387 68.8668L112.777 68.3784L112.484 67.9877L112.094 67.89L111.703 67.9877L106.917 71.0158M107.405 69.7459L110.824 67.597L111.019 67.1086L110.824 66.8155H110.238L109.554 67.1086L106.917 68.9645M103.791 68.4761L108.48 65.6434H109.066L109.359 65.9364L109.163 66.6202L106.428 68.183M102.228 69.8924L101.251 70.1366L105.354 73.0671L105.94 68.9645L104.719 69.2697M102.228 69.8924L104.865 71.7972M102.228 69.8924L103.498 69.575M103.498 69.575L104.865 70.5274M103.498 69.575L104.719 69.2697M104.719 69.2697L105.158 69.6482M110.531 88.0744L110.335 88.5006L110.629 89.0866L111.41 89.7704L112.387 90.4542L112.973 90.9426L113.364 91.15M110.531 88.0744H111.117L111.41 88.2075L112.191 88.9288L113.754 90.2588L114.145 90.9426L113.95 91.1299M110.531 88.0744L111.725 87.3284M113.364 91.15L113.95 91.1299M113.95 91.1299L116.001 91.0596M111.725 87.3284L111.996 87.9145L112.68 88.4029L113.559 89.0866L114.536 89.9658L115.317 90.5518L116.001 91.0596M111.725 87.3284L112.194 87.0353M116.001 91.0596L116.587 91.0396M116.587 91.0396L117.075 90.9426L116.782 90.5518L115.317 89.282L113.95 88.2075L113.168 87.4261L112.68 87.133L112.194 87.0353M116.587 91.0396L118.541 90.9727M112.194 87.0353L113.559 86.1826M113.559 86.1826L113.461 86.5469L114.047 87.2307L115.652 88.4029L117.466 90.0634L118.541 90.9727M113.559 86.1826L113.757 86.0585M113.757 86.0585L115.652 84.875M115.652 84.875L115.79 84.7887M121.08 89.0866H121.569V88.5006H122.155V88.2564M121.08 89.0866L120.787 88.5982L119.81 87.8168C119.452 87.5237 118.736 86.9181 118.736 86.84C118.736 86.7618 118.15 86.2213 117.857 85.9609L117.271 85.4725L116.685 84.9841L116.294 84.7887H115.79M115.79 84.7887L117.271 83.8635M117.271 83.8635L117.466 84.3003L117.857 84.875L118.736 85.6678L119.517 86.3516L120.299 86.9377L121.178 87.7191L122.155 88.2564M117.271 83.8635L117.466 83.7415M117.466 83.7415L119.073 82.7374M119.073 82.7374L119.42 82.5209M119.42 82.5209L121.08 81.4834M121.08 81.4834L121.178 81.956L121.471 82.3467L121.959 82.8351L122.643 83.5189L123.327 84.3003L123.815 84.691L124.304 84.7887L124.792 84.8864M121.08 81.4834L121.373 81.3003M124.792 84.8864V84.4957H125.134M125.134 84.4957L124.792 84.0073C124.662 83.877 124.382 83.597 124.304 83.5189C124.226 83.4407 123.88 83.0956 123.718 82.9328L123.132 82.3467L122.643 81.956L122.252 81.6629L121.764 81.3699L121.373 81.3003M88.3575 80.0024L87.3807 78.9279L88.0644 78.3418M88.0644 78.3418L89.1389 79.2209M88.0644 78.3418L88.6505 77.8534L89.8227 78.8302M90.3111 78.6348L89.0412 77.5604L89.5296 77.2673M89.5296 77.2673L90.7018 78.2441M89.5296 77.2673L90.018 76.7789L91.4832 77.8534M54.5601 92.9938L50.7506 95.2405L50.2622 95.8266V96.315L50.7506 96.9987L62.1792 104.911L62.7653 105.204H63.449L64.2305 104.911L65.6957 104.129L100.079 83.2258L100.274 82.9328V82.4444L99.786 81.8583L88.3575 73.4578L87.6737 73.3601H86.9899L86.1108 73.7508L54.5601 92.9938ZM49.5785 92.4078L46.8434 94.2637L46.4527 94.9475L46.5504 95.7289L47.0388 96.608L61.6908 106.864L62.5699 107.06H63.5467L64.2305 106.864L65.7934 106.181L103.4 83.1281L103.596 82.7374V82.1513L103.498 81.5652L103.009 80.9792L88.3575 70.332L87.6737 70.1366H86.9899L86.1108 70.2343L84.9387 70.9181L49.5785 92.4078ZM98.6139 64.4712L92.167 68.3784L91.9716 68.9645L92.2647 69.3552H92.9484L104.182 62.2245V61.5408L103.596 61.3454L102.619 61.7361L98.6139 64.4712ZM97.4417 67.6946L93.7299 69.8436L93.5345 70.332L93.9252 70.7227L94.9997 70.4297L105.745 63.5921V63.006L105.549 62.7129L104.572 63.006L97.4417 67.6946ZM98.3208 69.4529L95.5858 71.3088L95.4881 71.7972L96.0742 72.0903L107.503 64.9596L107.698 64.4712L107.503 64.0805H106.819L98.3208 69.4529ZM106.819 73.7508L103.303 75.8998L102.423 76.5836V76.7789L102.716 76.9743H103.303L114.243 70.1366L114.438 69.6482L114.243 69.3552H113.559L112.777 69.8436L106.819 73.7508ZM107.698 75.5091L104.572 77.4627L104.084 78.0488L104.377 78.4395H105.061L116.489 71.3088L116.587 70.8204L116.294 70.5274H115.708L114.731 71.1135L107.698 75.5091ZM108.773 77.2673L106.038 78.9279L105.94 79.4163L106.135 79.807H106.624L107.503 79.4163L118.15 72.3833L118.248 71.9926L117.955 71.7972H117.466L116.88 72.0903L108.773 77.2673ZM69.3098 88.1098L67.9423 87.8168L70.6774 85.9609L70.9704 86.7423L69.3098 88.1098ZM69.3098 88.7936H68.04L71.3611 91.724L71.8495 90.8449L69.3098 88.7936ZM72.5333 92.7985L75.6591 95.3382L75.7567 94.166L73.5101 92.3101L72.5333 92.7985ZM76.7335 94.3614L76.9289 95.4359L79.5663 93.7753L78.5895 93.3846L76.7335 94.3614ZM78.2964 92.7985H79.7616L76.3428 89.575L75.8544 90.5518L78.2964 92.7985ZM71.7518 86.9377L74.2915 89.0866L75.1707 88.989V88.5006L71.7518 85.9609V86.9377ZM80.7384 91.8217L80.8361 92.5054L81.1291 92.6031V92.7985L81.5199 92.8962V92.5054L81.8129 92.6031V91.8217H81.5199L81.4222 91.5286L81.1291 91.431V91.8217H80.7384ZM74.5846 84.0073L76.0498 84.1049L77.4173 82.9328L77.3196 81.8583L74.5846 84.0073ZM74.5846 85.1794L77.7103 87.8168L78.1987 86.84L76.0498 84.8864L74.5846 85.1794ZM78.9802 88.8913L81.8129 91.1379L82.4967 91.0402L82.5943 90.3565L79.6639 88.2075H78.9802V88.8913ZM83.1804 90.6495L83.2781 91.431L86.0131 89.575L84.6456 89.4774L83.1804 90.6495ZM84.6456 88.8913H86.0131L82.8874 86.0585H82.0083V86.6446L84.6456 88.8913ZM78.1987 82.3467L78.2964 83.3235L80.25 85.1794H81.5199V84.691L78.8825 82.3467H78.1987ZM80.3477 81.4676L82.9851 83.8119H84.0595V83.4212L81.8129 81.2722L80.3477 81.4676ZM80.4454 80.3931H81.9106L82.8874 79.6116L82.7897 78.5372L80.4454 80.3931ZM83.7665 78.5372C83.7665 78.6153 83.8316 79.3512 83.8642 79.7093L86.3062 81.7606L87.3807 81.8583V81.0768L83.7665 78.5372ZM84.6456 85.2064L87.9667 88.0122L88.0644 86.9377L85.134 84.4957L84.6456 85.2064ZM88.8459 87.0353L89.0412 88.1098L91.4832 86.3208L90.3111 86.0585L88.8459 87.0353ZM88.3575 82.4444L91.6786 85.2064V85.5701H90.4087L87.7714 83.3235V82.7374L88.3575 82.4444Z" stroke="#D4D4D4" stroke-width="0.5"/>
</svg>
