<svg width="229" height="358" viewBox="0 0 229 358" fill="none" xmlns="http://www.w3.org/2000/svg">
<path d="M218.576 65.1307L207.821 72.0692C207.405 72.338 206.963 72.566 206.503 72.7502C205.705 73.0692 204.86 73.2529 204.002 73.2938L202.255 73.377C201.629 73.4068 201.002 73.3827 200.38 73.3049C198.993 73.1315 197.652 72.6934 196.429 72.0143L187.278 66.9303M218.576 65.1307C218.455 63.286 217.551 61.581 216.092 60.446L215.504 59.9887C215.15 59.7133 214.774 59.4676 214.379 59.2543L210.47 57.1412C208.81 56.2439 206.985 55.6931 205.105 55.5222L204.9 55.5036C204.155 55.4359 203.406 55.4393 202.662 55.5137C200.901 55.6897 199.203 56.2603 197.693 57.1831L193.158 59.9542L189.1 62.5518C188.648 62.8406 188.258 63.215 187.951 63.6538C187.394 64.4493 187.138 65.4167 187.227 66.3836L187.278 66.9303M218.576 65.1307C218.823 64.9715 219.014 64.7395 219.123 64.4668L219.457 63.6326C219.627 63.2075 219.714 62.7539 219.714 62.2961C219.714 61.0728 219.093 59.9333 218.064 59.2709L211.094 54.7817C209.401 53.6916 207.485 52.9959 205.488 52.7462H203.412C202.523 52.7462 201.637 52.8552 200.775 53.0708C199.625 53.3583 198.53 53.8319 197.533 54.4729L187.193 61.12C186.3 61.6939 185.761 62.6822 185.761 63.7433C185.761 63.9983 185.792 64.2523 185.854 64.4997L186.066 65.3509C186.234 66.0224 186.673 66.5942 187.278 66.9303M171.534 94.3502L170.037 94.6354C169.27 94.7814 168.485 94.7954 167.714 94.6768C166.854 94.5445 166.028 94.2499 165.279 93.8087L154.463 87.4375M171.534 94.3502L171.955 93.229C172.306 92.2927 172.75 91.3939 173.28 90.5459L173.677 89.9104C174.144 89.1625 174.681 88.46 175.279 87.8119L175.636 87.4247C176.312 86.6921 177.09 86.0598 177.945 85.5469C178.975 84.9289 180.103 84.4927 181.281 84.2571L182.346 84.044L183.097 83.9758C183.984 83.8951 184.878 83.918 185.761 84.044M171.534 94.3502C172.412 94.183 173.252 93.8572 174.013 93.3889L177.794 91.0623L187.278 85.0406M185.761 84.044L187.278 85.0406M185.761 84.044L167.235 73.2321M187.278 85.0406L189.069 83.9038C189.509 83.6241 189.857 83.2207 190.069 82.744C190.347 82.1177 190.372 81.408 190.138 80.7639L190.106 80.6781C189.872 80.0348 189.417 79.4961 188.821 79.159L176.4 72.1314C175.691 71.7304 174.915 71.4615 174.111 71.3376C173.285 71.2107 172.444 71.2385 171.629 71.4196L171.03 71.5526C169.982 71.7855 168.978 72.1859 168.058 72.7384L167.235 73.2321M167.235 73.2321L165.654 74.1805L159.774 77.6589M154.463 87.4375L153.22 86.7059C152.79 86.4524 152.426 86.1006 152.158 85.6792L152.016 85.4569C151.531 84.6939 151.464 83.7372 151.838 82.9138C152.065 82.4148 152.439 81.9975 152.911 81.7184L159.774 77.6589M154.463 87.4375L154.482 87.1978C154.594 85.7724 154.974 84.3808 155.601 83.0956L157.118 80.6297L157.519 80.0953C158.01 79.441 158.553 78.828 159.144 78.2623L159.774 77.6589M185.634 107.944L186.899 106.996L187.846 106.143C188.476 105.576 189.017 104.92 189.452 104.194L189.605 103.94C189.823 103.576 190.001 103.188 190.136 102.785C190.378 102.059 190.475 101.291 190.42 100.528L190.183 97.2028M185.634 107.944L183.788 107.806C183.338 107.772 182.901 107.641 182.506 107.422C181.796 107.027 181.267 106.37 181.033 105.591L180.98 105.412C180.88 105.079 180.829 104.732 180.829 104.384V103.785C180.829 103.021 180.943 102.262 181.168 101.532L181.35 100.94C181.508 100.426 181.717 99.9292 181.975 99.457L182.061 99.2991C182.5 98.4944 183.09 97.7822 183.8 97.2017L184.223 96.8556C184.612 96.5369 185.057 96.2919 185.534 96.1327C185.811 96.0406 186.096 95.9779 186.386 95.9457L186.995 95.878C187.432 95.8294 187.875 95.8666 188.298 95.9874C188.751 96.1169 189.172 96.3396 189.534 96.6413L190.052 97.0732C190.1 97.1125 190.143 97.1558 190.183 97.2028M185.634 107.944C185.467 108.069 185.277 108.16 185.074 108.211L184.528 108.347C184.088 108.457 183.633 108.498 183.181 108.468L182.129 108.398C181.409 108.35 180.726 108.063 180.186 107.584C179.621 107.081 179.248 106.397 179.133 105.649L179.043 105.059C178.969 104.583 178.967 104.097 179.035 103.62L179.175 102.64C179.266 102.004 179.413 101.378 179.617 100.769C179.918 99.8659 180.338 99.0072 180.865 98.2154L181.188 97.7309C181.454 97.3328 181.758 96.9618 182.096 96.6234L182.335 96.3849C182.843 95.8763 183.446 95.4714 184.109 95.1928C184.64 94.9696 185.203 94.8305 185.777 94.7805L186.486 94.7188C186.885 94.684 187.287 94.7106 187.679 94.7975L187.992 94.8671C188.517 94.9837 188.997 95.2476 189.378 95.6278L189.535 95.7856C189.915 96.1647 190.144 96.6679 190.183 97.2028M4.42237 71.3352L4.59937 92.0433C4.60773 93.022 4.82418 93.9878 5.23434 94.8765C5.57553 95.6157 6.04483 96.2888 6.62054 96.8645L8.21606 98.46L9.82859 99.7004C10.3968 100.137 10.9955 100.533 11.6203 100.885L16.7519 103.771L100.864 151.782C101.942 152.397 103.1 152.862 104.305 153.163C105.116 153.366 105.944 153.494 106.779 153.544L110.182 153.751C111.247 153.815 112.315 153.766 113.37 153.604L115.213 153.32C116.212 153.166 117.193 152.912 118.141 152.561L120.566 151.663C121.412 151.35 122.227 150.961 123.003 150.501L126.958 148.157L222.473 89.9855C223.16 89.5668 223.795 89.0675 224.365 88.4983L224.511 88.3515C225.474 87.3887 226.211 86.2241 226.669 84.9418C226.837 84.4705 226.967 83.9863 227.057 83.4939L227.115 83.1718C227.239 82.4898 227.309 81.7991 227.325 81.106L227.747 62.2304M227.747 62.2304L226.137 64.7075C225.65 65.4573 225.096 66.162 224.483 66.8131L223.785 67.5553C222.846 68.5531 221.774 69.4175 220.601 70.1244L123.051 128.873C121.868 129.586 120.592 130.132 119.259 130.495L117.095 131.086L111.575 131.832C110.578 131.966 109.571 132 108.568 131.933L106.224 131.777C105.003 131.696 103.797 131.465 102.632 131.091L100.645 130.452C99.6014 130.117 98.5976 129.668 97.6517 129.114L10.3844 77.9762C9.95131 77.7224 9.54101 77.4316 9.15811 77.1069C4.95404 73.5426 5.08723 67.0154 9.4332 63.6255L10.4923 62.7995L110.26 2.78886C111.021 2.33099 111.822 1.94164 112.652 1.62541L113.383 1.34703C114.713 0.840407 116.108 0.525614 117.526 0.412127L118.957 0.297711C119.738 0.235238 120.522 0.234038 121.303 0.294122L122.899 0.416872C124.333 0.5272 125.744 0.843269 127.088 1.35537L127.957 1.68616C128.681 1.9621 129.383 2.29377 130.056 2.6782L220.852 54.535C221.86 55.1109 222.798 55.802 223.647 56.5944L224.689 57.5664C225.038 57.8926 225.349 58.2583 225.614 58.6561L227.745 61.8525C227.821 61.9667 227.822 62.1153 227.747 62.2304ZM127.517 8.212L177.616 35.5062C187.783 41.0456 188.108 55.5272 178.198 61.5159L94.4871 112.106C89.8258 114.923 84.0037 114.992 79.2769 112.286L28.3994 83.1622C18.3556 77.4128 18.3301 62.9371 28.3536 57.1524L112.843 8.39229C117.369 5.78028 122.929 5.71198 127.517 8.212ZM127.273 15.6706L162.581 36.112C172.431 41.8146 172.591 55.9795 162.872 61.9024L99.3997 100.582C94.6496 103.477 88.6876 103.506 83.9102 100.656L49.1195 79.9056C39.4187 74.1197 39.3515 60.0932 48.9964 54.2146L111.951 15.8437C116.641 12.9848 122.519 12.9184 127.273 15.6706ZM41.8209 108.905L41.7728 108.737C41.6603 108.343 41.6631 107.925 41.7808 107.533C42.0182 106.741 42.69 106.157 43.5068 106.031L43.7426 105.995C44.3198 105.906 44.91 106.021 45.4122 106.319L55.8555 112.52C56.452 112.874 56.9149 113.415 57.1725 114.059L57.2305 114.204C57.4282 114.698 57.4722 115.24 57.3567 115.76L57.2866 116.076C57.2012 116.46 56.9869 116.804 56.6794 117.05C56.3731 117.295 55.9925 117.428 55.6002 117.428H55.3477C54.9161 117.428 54.4921 117.314 54.1188 117.097L43.512 110.939C43.1258 110.714 42.782 110.424 42.4962 110.081L42.3504 109.906C42.1061 109.613 41.9257 109.272 41.8209 108.905ZM203.244 67.5416H202.985C202.507 67.5416 202.033 67.4593 201.584 67.2983L200.987 67.0846C200.704 66.9835 200.453 66.8112 200.257 66.5844L200.083 66.3843C199.788 66.0434 199.695 65.5722 199.837 65.1445C199.934 64.8553 200.131 64.6101 200.392 64.4532L201.072 64.0455C201.603 63.7266 202.211 63.5582 202.831 63.5582H203.63C204.103 63.5582 204.57 63.6683 204.993 63.8799L205.65 64.2082C206.028 64.3976 206.306 64.7431 206.408 65.1541C206.542 65.6873 206.362 66.25 205.945 66.6077L205.665 66.8476C205.424 67.0545 205.137 67.2023 204.829 67.2794L204.301 67.4115C203.955 67.4979 203.601 67.5416 203.244 67.5416ZM200.344 68.4076L199.012 68.008C198.409 67.8269 197.866 67.4849 197.442 67.0186L197.385 66.9561C196.641 66.1368 196.354 64.9995 196.623 63.9253C196.834 63.0822 197.367 62.3558 198.109 61.9027L198.929 61.4018C199.867 60.8285 200.951 60.541 202.05 60.5743L205.026 60.6645C206.066 60.696 207.071 61.053 207.897 61.6853L208.621 62.2386C209.396 62.8312 209.85 63.7511 209.85 64.7267C209.85 65.5574 209.52 66.3541 208.933 66.9415L208.865 67.0093C208.638 67.2365 208.379 67.43 208.097 67.5838L207.677 67.8133C206.859 68.2595 205.957 68.5299 205.028 68.6073L203.485 68.7359C202.427 68.8241 201.362 68.7127 200.344 68.4076Z" stroke="#E5E5E5" stroke-width="0.5"/>
<path d="M107.61 237.493L102.868 235.407L96.4188 238.252H95.2807M107.61 237.493L151.996 211.507V208.661M107.61 237.493V234.648M61.1374 218.525L93.5735 238.252H95.2807M61.1374 218.525L63.6033 216.628M61.1374 218.525L60.2839 218.81M85.6067 143.22L54.1191 162.187M151.996 208.661L159.773 203.54L162.998 205.437M151.996 208.661L107.61 234.648M151.996 208.661L150.1 207.144L160.342 201.074L162.998 202.781M162.998 205.437L180.07 195.004L185.191 197.66M162.998 205.437V202.781M185.191 197.66L193.348 192.918M185.191 197.66V195.194M193.348 192.918L196.383 194.625M193.348 192.918L192.779 190.452M196.383 194.625L215.161 183.054V179.829M196.383 194.625V191.969M215.161 179.829L216.868 178.881V176.036M215.161 179.829L214.972 177.743M215.161 179.829L196.383 191.969M216.868 176.036L202.832 167.5L196.003 171.294L191.261 168.828L195.244 166.172V163.137L193.727 161.809V160.292V156.498L185.001 151.187L178.932 154.412L176.276 152.325V147.014L164.326 139.616L158.825 142.462L151.238 137.719V133.357M216.868 176.036L214.972 177.743M107.61 234.648L102.489 232.372L95.2807 235.407M162.998 202.781L180.07 192.349L185.191 195.194M185.191 195.194L192.779 190.452M196.383 189.314V191.969M196.383 189.314L189.744 185.52L187.657 186.658L183.294 184.002M196.383 189.314L214.057 178.312M214.972 177.743L214.057 178.312M192.779 190.452L190.502 188.745L188.795 189.693H186.898L183.294 187.417V184.002M183.294 184.002L186.14 182.295L188.795 184.002L204.349 175.087L201.314 172.811L203.591 171.483L214.057 178.312M95.2807 235.407V238.252M95.2807 235.407L63.6033 216.628M63.6033 216.628L67.9661 213.943M71.001 208.661V212.076L67.9661 213.943M71.001 208.661L59.2406 201.833L48.0492 207.903M71.001 208.661L67.9661 210.558M60.3787 215.3L60.2839 218.81M60.3787 215.3L48.0492 207.903M60.3787 215.3L67.9661 210.558M60.2839 218.81L59.4303 219.094L57.1541 218.525L48.0492 212.634M48.0492 207.903V212.634M48.0492 207.903L19.2171 190.926M48.0492 212.634L47.4801 212.265L46.9111 210.369L45.2039 209.8L19.5965 194.625L18.8378 193.107V191.59L19.2171 190.926M67.9661 210.558V213.943M19.2171 190.926L19.5965 190.262L23.7696 187.606L20.7346 185.899V182.295L49.377 165.043M124.682 218.146V212.834M124.682 218.146L160.342 196.901M124.682 218.146L92.6251 198.988V193.676M124.682 212.834L160.342 191.59M124.682 212.834L92.6251 193.676M160.342 191.59V196.901M160.342 191.59L165.843 188.365M160.342 191.59L129.045 172.731M160.342 196.901L168.499 192.349V187.417L136.822 168.259L129.045 172.731M92.6251 193.676L129.045 172.731M38.3753 176.605L38.565 176.747M38.565 176.747L40.6515 178.312L41.7896 178.502L42.738 178.122L42.5483 176.794L40.8412 175.656L39.3237 175.087H38.1856L37.8062 175.846L38.565 176.747ZM49.377 199.367L32.4951 189.503L31.926 188.555V187.417M49.377 199.367L67.0177 188.745V186.279M49.377 199.367V196.901M31.926 187.417L50.3254 176.747L67.0177 186.279M31.926 187.417L49.377 196.901M67.0177 186.279L49.377 196.901M88.0726 193.107L49.377 170.535V165.043M88.0726 193.107L148.582 157.257V151.946M88.0726 193.107V188.176M49.377 165.043L54.1191 162.187M49.377 165.043L88.0726 188.176M148.582 151.946L138.529 146.255L127.337 152.705L135.114 158.205L88.0726 185.899L53.1707 165.413V163.896L54.1191 162.187M148.582 151.946L88.0726 188.176M91.1076 146.255L89.9695 146.945M89.9695 146.945L61.7065 164.086L62.0859 165.413L88.452 180.588L115.956 164.086L116.525 163.137L115.577 161.809L89.9695 146.945ZM44.6349 231.803V235.407L42.5483 237.873L37.2372 241.097L33.6332 242.615H29.6498L25.287 242.046L6.88764 231.234V226.112M44.6349 231.803L49.377 228.578V224.026M44.6349 231.803L33.2538 237.493L30.2188 238.252L26.6148 237.493L6.88764 226.112M6.88764 226.112L1.95584 223.267V218.81M1.95584 218.81V217.387L17.3203 207.144L19.9759 206.575L23.7696 207.144L49.377 222.508V224.026M1.95584 218.81L27.3736 233.7L29.6498 234.269H32.3054L35.53 233.131L49.377 224.026M27.3736 190.452L26.6148 191.59L27.7529 192.918L29.2704 193.866L30.5982 193.107V191.59L28.5117 190.262L27.3736 190.452ZM33.6332 193.107L35.7197 194.435L35.53 195.763L34.5816 196.142L32.3054 195.194L31.5466 194.056L32.4951 192.918L33.6332 193.107ZM30.0292 179.64L33.4435 181.726L33.6332 183.244L32.6847 184.002L30.7879 183.813L28.1323 181.916L27.9426 180.398L28.5117 179.64H30.0292ZM32.6847 178.502L36.0991 180.778L37.4269 181.157L38.3753 180.778V179.64L37.0475 178.502L34.961 177.174L33.6332 177.363L32.6847 178.502ZM42.9277 175.467L44.4452 176.415L45.5833 176.605L46.5317 176.225L47.2905 175.656L47.1008 174.708L45.773 173.759L44.2555 172.811L43.1174 172.621L41.9793 173.001L41.7896 174.139L42.9277 175.467ZM10.1123 221.181L25.6664 230.096L29.2704 230.665H33.6332L37.2372 229.337L40.4618 227.061L42.5483 224.785V221.75L39.3237 218.81L24.718 210.558H20.5449L15.9925 211.317L12.0091 213.024L9.35354 216.628V219.473L10.1123 221.181ZM12.0091 220.232L26.6148 228.578L30.5982 228.958L35.1506 228.199L38.565 226.492L39.8928 224.785V221.181L25.287 213.024L20.5449 212.634L16.7512 213.024L13.1472 214.921L12.0091 217.387V220.232Z" stroke="#E5E5E5" stroke-width="0.5"/>
<path d="M77.2616 228.393L5.56115 271.452L1.57779 274.866L0.25 278.091V280.557M0.25 280.557L2.90557 283.402L11.2517 289.092L90.9189 334.806L95.661 336.324H100.593H106.473L110.456 335.186L115.957 332.53L123.545 327.788L174.949 296.68M0.25 280.557V299.904L1.57779 302.75L4.42304 305.405L81.6244 351.309L89.022 355.102L92.626 356.62L99.4547 357.189H104.576L108.37 356.62L111.974 355.102L214.782 294.024L221.421 290.041L225.784 287.006L227.871 284.54L228.25 282.643V261.209M174.949 296.68L175.017 298.387M174.949 296.68L178.932 298.956M174.949 296.68L163.138 289.661M199.797 282.264L185.002 273.159L181.777 271.641H179.691L176.466 272.4L161.102 281.505L158.067 284.161L158.636 287.006L161.861 288.903L163.138 289.661M199.797 282.264L225.405 266.33L227.491 263.675L228.25 261.209M199.797 282.264V292.507L198.849 295.731L197.521 298.956L196.004 301.611L193.917 304.457L191.831 306.543L189.365 308.061L186.33 309.578L183.485 309.958L179.691 309.578L176.846 308.061L175.328 304.836L175.233 303.129M228.25 261.209V258.174L225.974 255.329L220.852 252.104L151.997 211.701M53.1718 322.287V323.235L52.4131 324.374H50.7059L47.8606 323.046L42.3598 319.821L40.2733 318.493L37.9971 316.217L37.6177 314.32L37.9971 312.613L39.5146 311.854C39.8147 311.979 40.2394 312.16 40.6527 312.342M53.1718 322.287V321.339L51.844 318.873L46.7225 315.648C45.2051 314.826 42.1322 313.144 41.9804 312.993C41.8887 312.901 41.2841 312.62 40.6527 312.342M53.1718 322.287L49.7575 320.959C48.4297 320.137 45.7362 318.493 45.5844 318.493C45.3948 318.493 42.3598 316.027 41.9804 315.838C41.677 315.686 40.9688 314.384 40.6527 313.751V312.342M81.6244 231.049L10.1136 273.918L8.02704 275.814L6.69925 278.66L7.45799 281.315L11.631 284.35L12.2875 284.73M147.445 214.357L203.781 247.362V250.207L202.643 252.104L197.521 255.182M175.233 303.129L175.139 301.422L175.116 300.853M175.233 303.129L176.846 304.836L178.932 306.164L179.583 306.543M194.297 285.299L196.004 286.626L196.762 288.523V294.593L196.004 297.628L194.486 300.284L192.4 303.319L189.554 305.974L186.33 307.492L183.295 307.681L181.208 307.492L179.583 306.543M194.297 285.299L191.831 284.919L188.606 285.299L188.037 285.619M194.297 285.299L179.312 275.625L177.984 275.435L175.708 275.245L175.139 275.327M179.312 296.111L178.932 298.956M179.312 296.111L180.043 294.403M179.312 296.111L163.448 286.342M178.932 298.956V300.853M179.583 306.543L178.932 305.215V303.603M178.932 303.603V301.991V300.853M178.932 303.603L175.116 300.853M175.116 300.853L175.017 298.387M178.932 300.853L175.017 298.387M163.138 289.661V287.385L163.448 286.342M166.982 280.177L168.689 278.091M166.982 280.177L182.536 289.977M166.982 280.177L165.243 282.264M168.689 278.091L170.776 276.573M168.689 278.091L184.352 288.144M170.776 276.573L173.052 275.625M170.776 276.573L186.246 286.626M173.052 275.625L175.139 275.327M173.052 275.625L188.037 285.619M190.693 285.109L175.139 275.327M188.037 285.619L186.246 286.626M186.246 286.626L185.571 287.006L184.352 288.144M184.352 288.144L182.726 289.661L182.536 289.977M182.536 289.977L181.246 292.127M181.246 292.127L180.45 293.455L180.043 294.403M181.246 292.127L165.243 282.264M165.243 282.264L165.085 282.453L164.2 284.35M180.043 294.403L164.2 284.35M164.2 284.35L163.757 285.299L163.448 286.342M192.21 271.072L191.072 270.124L189.934 268.227V266.33L190.693 264.623L192.969 263.106L206.247 255.708L208.333 254.949L210.799 254.57L214.024 254.38L217.438 255.329L221.421 257.605L222.37 260.26L221.99 261.967L220.852 264.054L219.904 264.844M192.21 271.072L193.348 272.021L196.383 273.159L199.797 273.538H203.97L206.626 273.159L210.799 271.072L217.438 266.899L219.904 264.844M192.21 271.072L195.245 268.986L201.315 265.382L205.298 263.106L207.954 261.778L209.661 261.209H211.747H214.213L216.11 261.778L217.817 262.537L219.335 263.295L219.714 264.054L219.904 264.844M191.641 258.716L196.383 255.866M191.641 258.716L117.095 303.52M191.641 258.716V256.467M191.641 247.741L192.21 246.982L193.538 246.793L195.055 247.551L196.383 248.69L197.521 249.638V250.207M191.641 247.741L192.21 248.121L193.348 249.069L195.245 250.207L196.383 250.776M191.641 247.741V256.467M197.521 250.207L196.383 250.776M197.521 250.207V255.182M196.383 250.776V255.866M196.383 255.866L197.521 255.182M89.9942 319.821L85.9871 322.287L81.8141 323.235L78.5894 323.046L76.9483 322.097M89.9942 319.821L90.9189 319.252L117.095 303.52M89.9942 319.821L88.453 318.873L86.5562 317.924L84.849 317.735L83.1418 318.304L81.0553 319.252L79.3482 320.39L78.0204 321.339L76.9483 322.097M76.9483 322.097L65.7886 315.648M65.7886 315.648L68.5362 314.131L70.0537 313.182L70.433 312.423V309.578L70.2433 308.061M65.7886 315.648L61.8973 313.399M70.2433 308.061L58.6726 301.042L57.3448 300.853L55.448 301.611L52.7924 303.508L49.3772 306.164M70.2433 308.061L61.8973 313.399M49.3772 306.164L61.8973 313.399M49.3772 306.164L37.8074 299.478M37.8074 299.478L40.2733 297.628L41.032 296.68V293.645M37.8074 299.478L35.3415 298.053M23.9605 291.475L26.4264 289.472L28.1335 288.523L30.22 287.954H32.1169L34.2034 288.713L37.0487 290.42L39.7042 292.127L41.032 293.265V293.645M23.9605 291.475L35.3415 298.053M23.9605 291.475L12.2875 284.73M35.3415 298.053L41.032 293.645M12.2875 284.73L16.9422 281.505M16.9422 281.505V273.349M16.9422 281.505V281.695L17.7009 282.074H18.839M16.9422 273.349L17.8906 272.59L19.2184 271.452L21.3049 270.314L22.6327 269.934L23.9605 270.314L24.1502 271.072M16.9422 273.349L17.8906 274.107H19.0287M24.1502 271.072L22.443 272.21L20.1668 273.728L19.0287 274.107M24.1502 271.072V278.551M19.0287 274.107L18.839 282.074M18.839 282.074H19.5978L20.9255 281.315L24.1502 278.551M92.057 237.309L24.9089 277.901L24.1502 278.551M117.095 303.52L54.6893 266.899L53.9305 265.761V264.623L55.0686 263.675L103.059 235.412M191.641 256.467L148.203 230.29M148.203 230.29V220.806M148.203 230.29L147.824 230.859L147.445 231.239H146.876M148.203 220.806L142.703 217.012L141.185 217.961V218.719L141.564 219.004M148.203 220.806L147.824 221.375L146.876 221.754M146.876 221.754H146.117L141.944 219.289L141.564 219.004M146.876 221.754V231.239M146.876 231.239L141.944 228.393L141.564 227.824V227.066M141.564 219.004V227.066M141.564 227.066L134.167 221.944M186.33 301.422L185.571 299.335V296.869L186.246 295.162L187.468 293.455L188.606 292.696L189.744 292.507L191.641 292.696L190.503 291.938L188.606 291.558L186.709 292.317L185.381 293.834L184.352 295.352L183.864 297.438L184.054 299.335L185.381 301.042L186.33 301.422Z" stroke="#E5E5E5" stroke-width="0.5"/>
</svg>
