<svg width="241" height="165" viewBox="0 0 241 165" fill="none" xmlns="http://www.w3.org/2000/svg">
<path d="M126.334 164.495L125.153 164.276L123.335 163.138M126.334 164.495L127.516 164.714H130.579L133.555 163.664L136.794 161.388L139.507 157.974L142.046 153.248L143.446 148.521L143.884 144.32L143.446 139.944L142.943 139.331M126.334 164.495L124.715 162.963L123.227 160.513L122.614 156.836V152.81L123.84 148.521L126.028 144.32L129.004 140.644L132.768 138.018L135.919 136.793H138.369L140.733 137.668L142.943 139.331M142.943 139.331L141.433 137.493L140.601 137.012M128.356 155.173C128.368 155.431 128.38 155.672 128.391 155.874L129.091 157.274L130.054 158.149L131.28 158.237L132.593 158.149L133.555 157.799L134.518 157.012L135.656 155.874L136.794 154.648L137.669 153.16L138.457 151.322L139.157 149.397L139.245 147.559L139.157 145.545L138.369 144.32L137.389 143.707M128.356 155.173L129.179 155.436L129.704 155.261L129.967 154.386L130.054 153.51L129.967 152.81L129.704 152.373L129.617 152.11L129.354 152.373L129.091 153.073L128.741 153.598L128.297 153.773M128.356 155.173C128.334 154.723 128.312 154.218 128.297 153.773M128.297 153.773C128.276 153.112 128.27 152.582 128.304 152.548C128.391 152.46 128.566 151.06 128.654 150.972C128.689 150.937 128.826 150.597 128.985 150.184M128.985 150.184C129.144 149.769 129.324 149.281 129.442 148.959L130.579 146.771L131.379 145.896M128.985 150.184L129.442 150.885C129.763 150.943 130.422 151.06 130.492 151.06C130.562 151.06 131.221 150.943 131.542 150.885L131.805 150.585M131.379 145.896H131.455L131.717 146.246C131.803 146.396 131.962 146.666 132.067 146.827M131.379 145.896L131.805 145.429M132.067 146.827C132.105 146.884 132.136 146.927 132.155 146.946C132.225 147.016 132.418 147.559 132.505 147.821C132.534 148.084 132.593 148.626 132.593 148.696C132.593 148.766 132.476 149.251 132.418 149.484L132.155 150.184L131.805 150.585M132.067 146.827L131.28 147.559L130.93 148.084C130.842 148.259 130.649 148.626 130.579 148.696C130.492 148.784 130.317 149.309 130.317 149.397C130.317 149.484 130.229 149.922 130.317 150.009C130.387 150.079 130.638 150.33 130.754 150.447L131.28 150.622L131.805 150.585M131.805 145.429L132.418 144.758L133.73 143.882L135.306 143.445H136.969L137.389 143.707M131.805 145.429H132.505C132.593 145.438 132.768 145.475 132.768 145.545C132.768 145.615 132.768 146.158 132.768 146.421H133.118V146.158L133.38 146.071L133.468 145.808L133.818 145.721V145.195L134.081 145.108V144.845L134.431 144.758V144.495H135.043V144.145H135.393L135.481 143.882L136.356 143.795L137.389 143.707M123.335 163.138L122.439 161.388L122.002 160.25C121.856 159.783 121.564 158.832 121.564 158.762C121.564 158.692 121.447 157.624 121.389 157.099V155.261C121.389 154.765 121.389 153.756 121.389 153.685C121.389 153.615 121.447 152.373 121.477 151.76L121.827 149.834L122.614 147.821L123.335 145.896L124.277 144.32L125.415 142.657M123.335 163.138L121.564 162.03M123.335 143.445L122.177 145.545L121.126 148.259L120.426 150.885L119.989 153.773L120.076 156.749L120.601 159.2L121.126 161.038L121.564 162.03M121.564 162.03L120.076 161.099M121.477 143.882C121.126 144.495 120.426 145.738 120.426 145.808C120.426 145.896 119.639 148.171 119.639 148.259C119.639 148.329 119.23 150.039 119.026 150.885L118.763 153.51C118.763 154.181 118.763 155.559 118.763 155.699C118.763 155.839 118.938 157.157 119.026 157.799C119.143 158.354 119.376 159.48 119.376 159.55C119.376 159.62 119.668 160.338 119.814 160.688L120.076 161.099M120.076 161.099L118.588 160.167M119.814 143.707C119.405 144.466 118.588 146.001 118.588 146.071C118.588 146.158 118.151 148.171 118.063 148.259C117.993 148.329 117.742 149.838 117.625 150.585L117.45 152.81C117.45 153.394 117.45 154.596 117.45 154.736C117.45 154.876 117.567 156.136 117.625 156.749L117.976 158.412L118.326 159.55L118.588 160.167M118.588 160.167L117.043 159.2M118.413 143.27L117.45 145.37L116.663 147.909L116.4 149.922L116.137 152.46C116.137 153.044 116.137 154.228 116.137 154.298C116.137 154.368 116.254 155.378 116.312 155.874L116.575 157.537L116.838 158.587L117.043 159.2M117.043 159.2L115.504 158.237M117.538 142.219C117.188 142.949 116.488 144.425 116.488 144.495C116.488 144.565 115.904 146.508 115.612 147.471L115.087 149.747C115.029 150.447 114.912 151.865 114.912 151.935C114.912 152.005 114.912 153.19 114.912 153.773L115 155.349L115.175 156.749L115.504 158.237M115.504 158.237L114.124 157.373M117.043 140.527L114.912 145.195L114.299 147.646L113.862 150.184L113.687 152.198L113.862 154.298V156.049L114.124 157.373M114.124 157.373L113.687 157.099L113.161 156.311M117.043 137.843L115.35 140.906L114.124 143.707L113.424 146.158L113.074 148.959L112.811 151.672V153.685L113.074 155.874L113.161 156.311M113.161 156.311L112.636 155.524L112.111 151.935V147.821L113.424 143.007L116.75 136.793L120.951 132.679L122.965 131.366L125.59 130.403L129.354 129.966L131.105 131.069M122.614 133.117L124.277 132.241L126.028 131.366L127.691 130.928H129.004H130.317L131.105 131.069M131.105 131.069L132.295 131.819M124.978 133.117L126.116 132.416L127.691 131.891L129.354 131.629H130.842L132.295 131.819M132.295 131.819L133.468 132.558M126.816 133.554L127.691 133.117L129.004 132.679L130.579 132.416H132.067L133.03 132.504L133.468 132.558M133.468 132.558L134.693 133.331M127.516 134.429L128.297 133.904L129.442 133.554L131.105 133.117L132.33 133.204H133.38L134.693 133.331M134.693 133.331L136.356 134.379M128.654 135.217L129.354 134.692L130.317 134.254L131.28 134.079L132.295 133.904H133.205H134.081L135.043 134.079L135.919 134.254L136.356 134.379M136.356 134.379L138.282 135.592M129.442 136.092L130.054 135.655L130.93 135.217L131.542 135.042L132.155 134.867L133.293 134.605H134.431L135.744 134.867L136.794 135.042L137.844 135.392L138.282 135.592M138.282 135.592L139.026 136.061M130.754 136.793L131.367 136.443L132.418 136.005L133.38 135.742L134.343 135.567L135.218 135.592L136.181 135.655L137.144 135.83L138.194 135.917L139.026 136.061M139.026 136.061L139.77 136.53L140.601 137.012M131.63 137.58L132.295 137.143L133.38 136.705L134.256 136.443L135.306 136.268H136.794L137.932 136.355L139.245 136.618L140.601 137.012M132.155 144.145L130.229 146.071L128.479 148.871L127.516 151.935V154.736L127.779 157.099L129.179 158.937L131.805 159.375L134.168 158.412L136.794 156.224L138.719 153.248L139.77 150.622L140.207 147.471L139.945 144.495L138.369 142.832L136.531 142.482L134.256 142.92L132.155 144.145ZM127.516 162.263V160.513L126.466 159.025L125.765 157.099L125.59 154.386L126.028 151.06L127.078 148.259L128.129 146.946V146.071L127.779 145.721L126.816 146.071L125.765 147.821L125.153 149.922L124.453 152.373L124.102 154.386V156.486L124.277 157.974L124.89 159.812L125.765 161.213L126.816 162.088L127.516 162.263ZM129.179 161.563L129.354 162.963L130.754 163.138L131.98 162.963L133.643 162.351L135.131 161.388L136.531 160.25L137.319 159.2L137.144 157.537L136.794 158.237L135.481 159.375L134.168 160.25L132.593 160.95L130.93 161.563H129.179ZM129.179 142.482V144.845L130.229 144.32L131.98 143.182L133.905 142.044L135.481 141.344L136.794 140.644L137.582 140.206L137.319 138.018L135.919 138.368L134.256 139.331L132.768 140.206L130.93 141.169L129.704 142.044L129.179 142.482ZM139.332 139.068L139.157 140.644L140.733 142.044L141.695 143.882L142.046 145.37L141.87 146.946L141.695 148.259L141.17 150.184L140.558 151.935L140.207 152.635V153.948L141.17 153.248L142.133 150.71L142.833 148.084L142.943 145.721V143.882L142.396 142.219L141.695 140.644L140.733 139.594L139.332 139.068ZM130.579 154.123L130.667 155.261L130.842 154.648L131.105 154.561L131.192 153.685L132.418 153.773L132.593 154.298H132.768V153.423L132.418 153.335L132.155 152.723L131.805 152.373L131.542 152.11H131.192L130.93 152.548L130.754 153.423L130.579 154.123ZM133.643 152.723L133.993 153.073V153.423L133.555 153.248L133.118 152.81L132.768 152.198C132.68 152.11 132.505 151.917 132.505 151.847C132.505 151.777 132.505 151.176 132.505 150.885L132.768 150.585L132.943 150.447H133.643H134.256L134.693 150.71L135.043 151.06H134.693C134.577 151.03 134.326 150.972 134.256 150.972C134.168 150.972 133.905 151.06 133.818 151.06C133.748 151.06 133.497 151.176 133.38 151.235L133.205 151.497C133.176 151.643 133.118 151.952 133.118 152.022C133.118 152.092 133.293 152.343 133.38 152.46L133.643 152.723ZM135.306 150.009H135.656V149.747L135.131 149.484L134.693 149.397L134.518 149.134L134.431 148.521L135.218 148.346L135.744 148.259L136.181 148.084L136.094 147.821H134.868L134.256 148.084L133.818 148.434L133.555 148.521L133.38 148.871L133.205 149.222L133.555 149.484L134.168 149.747L134.693 149.834L135.306 150.009ZM134.693 147.471L133.555 147.384L133.468 146.771L133.818 146.508L134.168 146.071L134.518 145.721L134.781 145.37L135.043 145.108L135.218 144.845H135.393V145.108V145.545L135.131 145.808L135.043 146.421L136.094 146.508V146.771L135.744 146.827V147.033L134.868 147.121L134.693 147.471Z" stroke="#D4D4D4" stroke-width="0.5"/>
<path d="M222.702 95.6985L221.52 95.4797L219.703 94.3418M222.702 95.6985L223.884 95.9173H226.947L229.923 94.867L233.161 92.5913L235.875 89.1777L238.413 84.4512L239.814 79.7247L240.251 75.5234L239.814 71.1471L239.31 70.5344M222.702 95.6985L221.083 94.1668L219.595 91.716L218.982 88.0398V84.0136L220.207 79.7247L222.396 75.5234L225.372 71.8473L229.135 69.2215L232.286 67.9961H234.737L237.1 68.8714L239.31 70.5344M239.31 70.5344L237.8 68.6963L236.969 68.2149M224.723 86.3768C224.736 86.6346 224.748 86.8751 224.759 87.077L225.459 88.4775L226.422 89.3528L227.647 89.4403L228.96 89.3528L229.923 89.0026L230.886 88.2149L232.024 87.077L233.161 85.8517L234.037 84.3637L234.825 82.5256L235.525 80.6L235.612 78.7619L235.525 76.7488L234.737 75.5234L233.757 74.9107M224.723 86.3768L225.547 86.6394L226.072 86.4644L226.334 85.5891L226.422 84.7138L226.334 84.0136L226.072 83.5759L225.984 83.3134L225.722 83.5759L225.459 84.2762L225.109 84.8013L224.665 84.9764M224.723 86.3768C224.702 85.9259 224.68 85.4216 224.665 84.9764M224.665 84.9764C224.643 84.3157 224.637 83.785 224.671 83.751C224.759 83.6635 224.934 82.263 225.021 82.1755C225.056 82.1406 225.194 81.8001 225.352 81.3878M225.352 81.3878C225.512 80.9725 225.692 80.4844 225.809 80.1624L226.947 77.9742L227.746 77.0989M225.352 81.3878L225.809 82.088C226.13 82.1463 226.79 82.263 226.86 82.263C226.93 82.263 227.589 82.1463 227.91 82.088L228.172 81.7879M227.746 77.0989H227.822L228.085 77.449C228.171 77.5993 228.329 77.8697 228.435 78.0299M227.746 77.0989L228.172 76.6321M228.435 78.0299C228.473 78.0874 228.504 78.1308 228.523 78.1493C228.593 78.2193 228.785 78.7619 228.873 79.0245C228.902 79.2871 228.96 79.8298 228.96 79.8998C228.96 79.9698 228.843 80.4541 228.785 80.6875L228.523 81.3878L228.172 81.7879M228.435 78.0299L227.647 78.7619L227.297 79.2871C227.21 79.4622 227.017 79.8298 226.947 79.8998C226.86 79.9873 226.684 80.5125 226.684 80.6C226.684 80.6875 226.597 81.1252 226.684 81.2127C226.754 81.2827 227.005 81.5336 227.122 81.6503L227.647 81.8254L228.172 81.7879M228.172 76.6321L228.785 75.9611L230.098 75.0858L231.674 74.6482H233.337L233.757 74.9107M228.172 76.6321H228.873C228.96 76.6418 229.135 76.6788 229.135 76.7488C229.135 76.8188 229.135 77.3615 229.135 77.6241H229.485V77.3615L229.748 77.274L229.835 77.0114L230.186 76.9239V76.3987L230.448 76.3112V76.0486L230.798 75.9611V75.6985H231.411V75.3484H231.761L231.849 75.0858L232.724 74.9983L233.757 74.9107M219.703 94.3418L218.807 92.5913L218.369 91.4534C218.223 90.9866 217.932 90.0355 217.932 89.9654C217.932 89.8954 217.815 88.8276 217.757 88.3024V86.4644C217.757 85.9684 217.757 84.9589 217.757 84.8889C217.757 84.8188 217.815 83.5759 217.844 82.9633L218.194 81.0377L218.982 79.0245L219.703 77.0989L220.645 75.5234L221.783 73.8604M219.703 94.3418L217.932 93.2334M219.703 74.6482L218.544 76.7488L217.494 79.4622L216.794 82.088L216.356 84.9764L216.444 87.9523L216.969 90.4031L217.494 92.2412L217.932 93.2334M217.932 93.2334L216.444 92.302M217.844 75.0858C217.494 75.6985 216.794 76.9414 216.794 77.0114C216.794 77.0989 216.006 79.3746 216.006 79.4622C216.006 79.5322 215.598 81.2419 215.393 82.088L215.131 84.7138C215.131 85.3848 215.131 86.7619 215.131 86.902C215.131 87.042 215.306 88.3608 215.393 89.0026C215.51 89.557 215.744 90.6832 215.744 90.7532C215.744 90.8232 216.035 91.5409 216.181 91.891L216.444 92.302M216.444 92.302L214.956 91.3706M216.181 74.9107C215.773 75.6693 214.956 77.204 214.956 77.274C214.956 77.3615 214.518 79.3746 214.431 79.4622C214.361 79.5322 214.11 81.0418 213.993 81.7879L213.818 84.0136C213.818 84.5971 213.818 85.7991 213.818 85.9392C213.818 86.0792 213.935 87.3396 213.993 87.9523L214.343 89.6153L214.693 90.7532L214.956 91.3706M214.956 91.3706L213.41 90.4031M214.781 74.4731L213.818 76.5738L213.03 79.1121L212.768 81.1252L212.505 83.6635C212.505 84.247 212.505 85.4315 212.505 85.5016C212.505 85.5716 212.622 86.5811 212.68 87.077L212.943 88.7401L213.205 89.7904L213.41 90.4031M213.41 90.4031L211.872 89.4403M213.905 73.4228C213.555 74.1522 212.855 75.6285 212.855 75.6985C212.855 75.7685 212.272 77.7116 211.98 78.6744L211.455 80.9501C211.396 81.6503 211.28 83.0683 211.28 83.1383C211.28 83.2083 211.28 84.3929 211.28 84.9764L211.367 86.5519L211.542 87.9523L211.872 89.4403M211.872 89.4403L210.492 88.5764M213.41 71.73L211.28 76.3987L210.667 78.8495L210.229 81.3878L210.054 83.4009L210.229 85.5016V87.2521L210.492 88.5764M210.492 88.5764L210.054 88.3024L209.529 87.5147M213.41 69.0464L211.717 72.1099L210.492 74.9107L209.792 77.3615L209.442 80.1624L209.179 82.8757V84.8889L209.442 87.077L209.529 87.5147M209.529 87.5147L209.004 86.7269L208.479 83.1383V79.0245L209.792 74.2105L213.118 67.9961L217.319 63.8823L219.332 62.5694L221.958 61.6066L225.722 61.1689L227.472 62.2722M218.982 64.3199L220.645 63.4447L222.396 62.5694L224.059 62.1317H225.372H226.684L227.472 62.2722M227.472 62.2722L228.662 63.0223M221.345 64.3199L222.483 63.6197L224.059 63.0945L225.722 62.832H227.21L228.662 63.0223M228.662 63.0223L229.835 63.7617M223.183 64.7576L224.059 64.3199L225.372 63.8823L226.947 63.6197H228.435L229.398 63.7072L229.835 63.7617M229.835 63.7617L231.061 64.534M223.884 65.6328L224.665 65.1077L225.809 64.7576L227.472 64.3199L228.698 64.4075H229.748L231.061 64.534M231.061 64.534L232.724 65.5821M225.021 66.4206L225.722 65.8954L226.684 65.4578L227.647 65.2827L228.662 65.1077H229.573H230.448L231.411 65.2827L232.286 65.4578L232.724 65.5821M232.724 65.5821L234.649 66.7957M225.809 67.2959L226.422 66.8582L227.297 66.4206L227.91 66.2455L228.523 66.0705L229.66 65.8079H230.798L232.111 66.0705L233.161 66.2455L234.212 66.5956L234.649 66.7957M234.649 66.7957L235.393 67.2646M227.122 67.9961L227.735 67.646L228.785 67.2083L229.748 66.9458L230.711 66.7707L231.586 66.7957L232.549 66.8582L233.512 67.0333L234.562 67.1208L235.393 67.2646M235.393 67.2646L236.137 67.7335L236.969 68.2149M227.997 68.7838L228.662 68.3462L229.748 67.9086L230.623 67.646L231.674 67.4709H233.161L234.299 67.5584L235.612 67.821L236.969 68.2149M228.523 75.3484L226.597 77.274L224.846 80.0749L223.884 83.1383V85.9392L224.146 88.3024L225.547 90.1405L228.172 90.5781L230.536 89.6153L233.161 87.4272L235.087 84.4512L236.137 81.8254L236.575 78.6744L236.312 75.6985L234.737 74.0355L232.899 73.6854L230.623 74.123L228.523 75.3484ZM223.884 93.4665V91.716L222.833 90.228L222.133 88.3024L221.958 85.5891L222.396 82.263L223.446 79.4622L224.496 78.1493V77.274L224.146 76.9239L223.183 77.274L222.133 79.0245L221.52 81.1252L220.82 83.5759L220.47 85.5891V87.6897L220.645 89.1777L221.258 91.0158L222.133 92.4162L223.183 93.2915L223.884 93.4665ZM225.547 92.7663L225.722 94.1668L227.122 94.3418L228.347 94.1668L230.011 93.5541L231.498 92.5913L232.899 91.4534L233.687 90.4031L233.512 88.7401L233.161 89.4403L231.849 90.5781L230.536 91.4534L228.96 92.1536L227.297 92.7663H225.547ZM225.547 73.6854V76.0486L226.597 75.5234L228.347 74.3856L230.273 73.2477L231.849 72.5475L233.161 71.8473L233.949 71.4096L233.687 69.2215L232.286 69.5716L230.623 70.5344L229.135 71.4096L227.297 72.3724L226.072 73.2477L225.547 73.6854ZM235.7 70.2718L235.525 71.8473L237.1 73.2477L238.063 75.0858L238.413 76.5738L238.238 78.1493L238.063 79.4622L237.538 81.3878L236.925 83.1383L236.575 83.8385V85.1514L237.538 84.4512L238.501 81.9129L239.201 79.2871L239.31 76.9239V75.0858L238.763 73.4228L238.063 71.8473L237.1 70.797L235.7 70.2718ZM226.947 85.3265L227.035 86.4644L227.21 85.8517L227.472 85.7641L227.56 84.8889L228.785 84.9764L228.96 85.5016H229.135V84.6263L228.785 84.5387L228.523 83.9261L228.172 83.5759L227.91 83.3134H227.56L227.297 83.751L227.122 84.6263L226.947 85.3265ZM230.011 83.9261L230.361 84.2762V84.6263L229.923 84.4512L229.485 84.0136L229.135 83.4009C229.048 83.3134 228.873 83.1208 228.873 83.0508C228.873 82.9808 228.873 82.3797 228.873 82.088L229.135 81.7879L229.31 81.6503H230.011H230.623L231.061 81.9129L231.411 82.263H231.061C230.944 82.2339 230.693 82.1755 230.623 82.1755C230.536 82.1755 230.273 82.263 230.186 82.263C230.116 82.263 229.865 82.3797 229.748 82.4381L229.573 82.7007C229.544 82.8466 229.485 83.1558 229.485 83.2258C229.485 83.2959 229.66 83.5468 229.748 83.6635L230.011 83.9261ZM231.674 81.2127H232.024V80.9501L231.498 80.6875L231.061 80.6L230.886 80.3374L230.798 79.7247L231.586 79.5497L232.111 79.4622L232.549 79.2871L232.461 79.0245H231.236L230.623 79.2871L230.186 79.6372L229.923 79.7247L229.748 80.0749L229.573 80.425L229.923 80.6875L230.536 80.9501L231.061 81.0377L231.674 81.2127ZM231.061 78.6744L229.923 78.5869L229.835 77.9742L230.186 77.7116L230.536 77.274L230.886 76.9239L231.148 76.5738L231.411 76.3112L231.586 76.0486H231.761V76.3112V76.7488L231.498 77.0114L231.411 77.6241L232.461 77.7116V77.9742L232.111 78.0299V78.2368L231.236 78.3243L231.061 78.6744Z" stroke="#D4D4D4" stroke-width="0.5"/>
<path d="M85.5029 149.659L68.0849 160.775L66.6845 159.375C66.6103 159.368 66.5195 159.361 66.4219 159.353M85.5029 149.659V141.081M85.5029 149.659L84.6276 148.609L83.6648 147.909L82.877 147.559M85.5029 141.081L84.5401 140.381L82.6145 139.418C81.8559 139.01 80.3212 138.193 80.2512 138.193C80.1637 138.193 78.4131 137.405 78.3256 137.405C78.2556 137.405 77.5379 137.114 77.1878 136.968L76.225 137.055L75.4372 137.58L74.5619 137.23C73.8325 137.055 72.3387 136.705 72.1987 136.705C72.0236 136.705 70.3606 136.705 70.2731 136.618C70.1856 136.53 68.8727 136.618 68.6976 136.618C68.5226 136.618 67.2096 136.618 66.9471 136.618C66.737 136.618 66.0426 136.501 65.7217 136.443C65.0506 136.355 63.691 136.18 63.621 136.18C63.551 136.18 62.4832 135.947 61.958 135.83L59.8573 135.655L58.0193 135.48L56.2687 136.005L54.7808 136.705L53.2928 137.405L51.9799 138.368L51.2797 138.981L50.9296 139.418L50.7545 140.381L49.6166 141.519L49.0915 142.132V142.657L48.3913 143.095M85.5029 141.081L84.8902 141.607L84.1024 142.044M85.5029 141.081H83.7523L81.6517 141.257L79.9886 141.432L78.9383 141.957L76.7501 143.445L74.9996 144.612M48.3913 143.095H47.8661L47.3409 142.657C47.0492 142.482 46.4482 142.132 46.3781 142.132C46.3081 142.132 45.7071 141.84 45.4153 141.694L44.8026 141.344L44.365 141.082M48.3913 143.095L47.6035 143.811M44.365 141.082L45.6779 140.381L47.1659 139.418L49.0915 138.368L50.9296 137.055L53.2053 135.567L54.7808 134.517L55.7436 133.992L56.2687 133.467V131.891L55.7436 131.278L55.1309 130.753L54.9558 129.966V129.353L55.1309 128.74L56.0937 127.952L57.6692 126.639L59.0696 125.502L61.1703 124.189L62.9208 123.138L64.3212 122.176L65.4591 121.388L66.2468 120.775L66.5094 120.425L66.3344 119.812M44.365 141.082L43.8398 141.519L43.3147 141.782H42.702L42.1768 141.519V140.731V140.031M66.3344 119.812L65.4591 119.287C65.1965 119.141 64.6538 118.85 64.5838 118.85C64.5138 118.85 64.1462 118.558 63.9711 118.412L63.7085 118.062L63.3584 117.887H63.0959M66.3344 119.812L67.1221 120.425L67.7348 120.688L68.5226 120.513L69.8355 119.725L70.1856 119.478M63.0959 117.887L57.144 123.576C56.3563 124.335 54.7808 125.869 54.7808 125.939C54.7808 126.009 53.2636 127.544 52.505 128.303L49.3541 131.453L46.9908 133.992L44.5401 136.793C44.4325 136.91 44.2869 137.069 44.1383 137.23M63.0959 117.887L63.9711 117.187M44.8902 146.683L44.8026 146.333C44.8902 146.216 45.0827 145.983 45.1528 145.983C45.2403 145.983 45.853 145.458 45.9405 145.37C46.0105 145.3 46.4948 144.874 46.7282 144.67L47.4285 143.97L47.6035 143.811M44.8902 146.683L45.853 146.946L47.516 147.559L49.6166 148.171L51.8048 148.696L53.5554 148.959H54.2556M44.8902 146.683L44.365 147.033L43.6648 147.383L43.3147 147.734V148.171M54.2556 148.959L54.3431 151.935L54.5182 152.635M54.2556 148.959V146.596M54.5182 152.635H54.7808L55.2184 152.548L55.7436 152.11C55.8603 151.964 56.0937 151.655 56.0937 151.585C56.0937 151.497 56.2687 151.06 56.1812 150.972C56.0937 150.885 56.0937 150.622 56.1812 150.534C56.2512 150.464 56.3854 150.155 56.4438 150.009L56.7064 149.222C56.8522 149.105 57.144 148.854 57.144 148.784C57.144 148.696 57.6692 148.434 57.6692 148.346C57.6692 148.276 57.9026 148.142 58.0193 148.084L58.3694 147.909M54.5182 152.635L52.0674 151.935L48.8289 150.797C47.8077 150.447 45.7479 149.739 45.6779 149.708C45.6079 149.677 44.365 148.962 43.7523 148.609L43.3147 148.171M54.5182 152.635C54.9266 152.927 55.7611 153.51 55.8311 153.51C55.9186 153.51 57.7567 154.298 57.8442 154.298C57.9317 154.298 58.9821 154.561 59.0696 154.561C59.1571 154.561 59.7698 154.648 59.9449 154.648C60.1199 154.648 60.9952 154.561 61.1703 154.561M58.3694 147.909L58.4569 150.534C58.5392 150.605 58.6575 150.704 58.7741 150.797M58.3694 147.909L58.4569 147.033L58.807 146.596L60.5576 145.545L62.3081 144.495L62.3956 144.467M64.0587 152.723C63.9886 152.653 63.3293 152.518 63.0083 152.46C62.824 152.395 62.5663 152.303 62.3081 152.21M64.0587 152.723C64.1287 152.793 64.6714 152.927 64.9339 152.985L65.3716 153.073M64.0587 152.723L63.621 153.16L63.1834 153.598C62.9208 153.773 62.3781 154.141 62.3081 154.211C62.2206 154.298 61.3453 154.561 61.1703 154.561M65.3716 153.073V155.086M65.3716 153.073V150.447M62.6582 156.661C62.7749 156.72 63.0258 156.854 63.0959 156.924C63.1834 157.011 63.621 157.187 63.7085 157.274C63.7786 157.344 64.0878 157.537 64.2337 157.624L65.3716 158.149V155.086M62.6582 156.661C62.6582 157.07 62.6757 157.904 62.7457 157.974C62.8158 158.044 63.4751 158.529 63.7961 158.762C64.0878 158.85 64.6889 159.042 64.7589 159.112C64.8464 159.2 65.4591 159.287 65.5466 159.287C65.6018 159.287 66.0591 159.323 66.4219 159.353M62.6582 156.661C62.4832 156.545 62.1156 156.276 62.0455 156.136C61.958 155.961 61.6079 155.611 61.5204 155.611C61.4503 155.611 61.2578 155.553 61.1703 155.524L59.9449 155.611H59.4197L58.807 155.699C58.7195 155.699 58.5094 155.699 58.3694 155.699C58.2293 155.699 49.0915 152.197 44.5401 150.447L43.1396 149.484L42.0018 148.696L40.6889 148.521L38.9383 147.559L36.7501 146.683L33.7742 145.545L31.1484 144.495L29.7479 143.882L22.3956 136.793L17.6692 133.292L13.7304 130.053L10.3169 126.815L10.0543 126.114L9.52912 125.589L8.91642 125.239H8.39126L8.04115 125.589L7.8661 125.852H7.2534L6.55319 125.589L5.76544 124.889L5.06522 124.276C5.00687 124.218 4.87266 124.066 4.80264 123.926C4.73262 123.786 4.65676 123.576 4.62758 123.489H3.92737H3.48973L3.22715 123.313V122.876L3.31467 122.526L3.66478 122.351L4.18995 122.088L4.62758 121.913L4.89017 121.738L5.24028 121.563L5.41533 120.95V115.961M62.6582 156.661L62.8333 156.399L63.621 156.049M5.41533 115.961L17.6692 108.346H19.0696L20.3825 106.771V105.195L20.7326 104.933L21.0827 104.758L21.4328 104.933L21.6079 105.195V105.545L21.958 105.72M5.41533 115.961L5.94049 116.224L6.2906 116.749L6.37813 117.537V119.025C6.49483 119.141 6.74575 119.392 6.81577 119.462C6.9033 119.55 7.42846 119.987 7.51599 120.075C7.60351 120.162 8.04115 120.513 8.04115 120.6C8.04115 120.67 8.56631 121.038 8.8289 121.213C9.12065 121.388 9.70417 121.755 9.70417 121.825C9.70417 121.913 10.3169 122.088 10.3169 122.176C10.3169 122.246 10.6086 122.497 10.7545 122.613L10.4412 122.963C10.3414 123.022 10.1243 123.156 10.0543 123.226C9.96675 123.313 9.52912 123.489 9.44159 123.576C9.37157 123.646 9.0623 123.839 8.91642 123.926L8.74137 124.276L9.00395 124.364L9.44159 124.626L10.0543 125.152C10.171 125.268 10.4118 125.519 10.4412 125.589C10.4781 125.677 10.9296 126.114 11.0171 126.202C11.1046 126.289 11.6298 126.815 11.7173 126.902C11.8048 126.99 12.4175 127.602 12.505 127.69C12.5751 127.76 13.001 128.186 13.2053 128.39L14.6932 129.353M21.958 105.72H22.3956L22.5707 105.545L22.8333 105.195L28.5226 109.397V110.534L32.6363 119.725V127.69L31.6735 128.565L31.586 129.572M21.958 105.72V107.296V108.521C21.958 108.696 21.958 109.064 21.958 109.134M30.5357 131.804L30.7107 131.541L31.4985 130.578L31.586 129.572M30.5357 131.804L30.7107 132.154L31.1484 132.504M30.5357 131.804C30.2439 131.599 29.6604 131.173 29.6604 131.103C29.6604 131.033 29.3103 130.199 29.1352 129.79L28.5226 128.303C28.3767 127.982 28.0674 127.322 27.9974 127.252C27.9274 127.182 27.6181 126.756 27.4722 126.552L27.2972 126.289M30.5357 131.804L30.1856 132.329L29.5729 132.854L28.8727 133.204L27.9974 133.729L27.2972 134.079L26.597 134.254H25.853M31.1484 132.504L31.6735 132.679H32.1987L32.6363 132.329L32.9864 131.804L33.249 131.191L33.5116 130.316L33.8617 129.615L34.3869 128.915L34.912 128.303L51.3672 111.64M31.1484 132.504L31.8486 132.941L32.1112 132.985M90.667 65.4579L86.1156 63.0946L82.1768 65.6329L81.039 66.1581L80.2512 67.1209V79.5498L82.2643 83.3135V84.4513L75.9624 88.4776L75.6123 88.7135M90.667 65.4579L91.6298 65.1953C91.9979 64.868 92.6328 64.3028 93.0036 63.9699M90.667 65.4579L92.1549 66.4003M112.549 56.9677L108.96 57.6679L105.021 58.4557L101.783 59.1559L98.4569 60.3813L95.5685 62.0443C94.8391 62.5695 93.3628 63.6373 93.2928 63.7073C93.2719 63.7283 93.1617 63.828 93.0036 63.9699M112.549 56.9677L116.137 56.5301L118.676 56.18M112.549 56.9677L108.172 58.5432L105.284 59.5935L102.308 60.5563L99.8573 61.3441L94.2302 64.6701M118.676 56.18V55.4798L118.938 54.517L119.551 53.8167L120.339 53.1165L121.477 52.5038L122.264 52.0662L122.79 51.8911M118.676 56.18V57.9305M122.79 51.8911L123.14 51.7161V50.5782L119.901 48.5651L119.814 47.8649L120.164 47.0771L121.214 46.2019L122.614 45.5892L123.665 45.2391H124.453L127.866 47.0771H129.442L129.704 48.0399L130.842 48.6526L131.542 49.1778C131.659 49.2361 131.91 49.3703 131.98 49.4404C132.05 49.5104 132.242 49.703 132.33 49.7905L132.155 50.5782L131.98 50.6532M122.79 51.8911L123.14 53.5542C123.315 53.5833 123.682 53.6242 123.752 53.5542C123.822 53.4841 124.015 53.4666 124.102 53.4666L124.628 53.1165L125.24 52.8539L125.853 52.3288C125.999 52.3579 126.326 52.4163 126.466 52.4163C126.606 52.4163 127.049 52.4163 127.253 52.4163H127.866H128.654L129.354 52.1537L130.054 51.7161L130.842 51.1034L131.542 50.8408L131.98 50.6532M44.8902 133.467L47.8661 130.753L53.7304 124.976L60.5576 117.887L66.0718 112.285L69.4854 108.959L70.8858 107.471M70.8858 107.471L71.586 108.171L72.1987 108.784M70.8858 107.471L71.8486 106.683L73.4241 105.283L75.2622 103.707L77.1878 102.307L79.1134 100.731L80.9514 99.5935L82.6145 98.5432L84.9777 97.2303L87.1659 96.0924L87.516 95.9039M70.8858 107.471L61.4479 101.432M72.1987 108.784L71.8486 109.484L69.4854 111.497L67.2972 113.685L65.4591 115.611L63.9711 117.187M72.1987 108.784L73.4241 107.909L75.4372 105.983L77.7129 104.057L80.0762 102.307L83.1396 100.381L86.2031 98.7183L87.516 98.1056M63.9711 117.187L64.4963 116.924L65.7217 115.874L67.1221 115.086L68.0849 114.648L69.1352 114.736L70.0105 115.261L71.586 116.136M42.1768 140.031V139.681L42.6145 138.806C42.877 138.543 43.4197 138.001 43.4897 137.931C43.5021 137.918 43.533 137.885 43.5773 137.838M42.1768 140.031L41.1265 139.594L40.5138 139.243L39.9011 138.806L39.6385 138.456L39.9886 137.755M39.9886 137.755C40.4263 137.435 41.3191 136.793 41.3891 136.793C41.4766 136.793 42.4394 136.092 42.5269 136.092C42.597 136.092 42.9062 135.859 43.0521 135.742L43.4897 135.917C43.5189 136.122 43.5773 136.548 43.5773 136.618C43.5773 136.688 43.5773 137.46 43.5773 137.838M39.9886 137.755L39.4635 138.281L38.7633 138.543C38.4715 138.602 37.8705 138.718 37.8005 138.718C37.7304 138.718 37.3045 138.718 37.1002 138.718C36.8377 138.631 36.295 138.456 36.225 138.456C36.1374 138.456 35.6998 138.193 35.5247 138.106C35.3497 138.018 35.1243 137.931 34.9996 137.838C34.8749 137.745 34.4744 137.405 34.4744 137.318C34.4744 137.23 34.1243 136.968 34.0368 136.793C33.9668 136.653 33.8909 136.443 33.8617 136.355L33.7742 135.655M43.5773 137.838C43.699 137.707 43.9219 137.466 44.1383 137.23M44.1383 137.23V136.18C44.1502 135.947 44.167 135.445 44.1383 135.305C44.1024 135.13 43.8398 134.517 43.8398 134.429C43.8398 134.342 43.4897 134.079 43.3147 133.992C43.1396 133.904 42.6145 133.904 42.5269 133.817C42.4394 133.729 42.0018 133.729 41.9142 133.817C41.8267 133.904 41.3891 134.429 41.214 134.517C41.074 134.587 40.6889 134.896 40.5138 135.042C40.3679 135.13 40.0587 135.34 39.9886 135.48C39.9011 135.655 39.2884 135.917 39.2884 136.005C39.2884 136.092 38.7633 136.618 38.6757 136.618C38.5882 136.618 38.2381 136.968 38.063 136.968C37.888 136.968 37.5379 137.055 37.2753 137.055C37.0127 137.055 36.225 136.705 36.1374 136.705C36.0499 136.705 35.2622 136.18 35.1746 136.092C35.0871 136.005 34.5619 135.48 34.4744 135.48C34.4374 135.48 34.3535 135.402 34.269 135.305M32.1112 132.985L32.3738 133.029L32.9864 132.854L33.4241 132.504C33.57 132.329 33.8617 131.961 33.8617 131.891C33.8617 131.821 34.0951 131.453 34.2118 131.278L34.6495 130.403L35.1746 129.878L35.9624 129.528L36.4875 129.615C36.5751 129.703 36.7676 129.896 36.8377 129.966C36.9252 130.053 36.8377 130.316 36.8377 130.403C36.8377 130.491 36.7501 131.016 36.6626 131.103C36.5751 131.191 36.4 131.541 36.3125 131.629C36.2425 131.699 35.9916 131.949 35.8749 132.066C35.5831 132.329 34.9996 132.871 34.9996 132.941C34.9996 133.011 34.4161 133.729 34.1243 134.079C34.0951 134.342 34.0368 134.885 34.0368 134.955C34.0368 135.005 34.1535 135.172 34.269 135.305M32.1112 132.985L32.0236 133.817V134.692V135.305C31.9945 135.451 31.9536 135.742 32.0236 135.742C32.0937 135.742 32.578 135.742 32.8114 135.742H33.3366C33.4533 135.742 33.7042 135.725 33.7742 135.655M33.7742 135.655C33.8442 135.585 33.9784 135.509 34.0368 135.48L34.269 135.305M43.3147 148.171L42.4394 147.734C42.2935 147.617 41.9843 147.383 41.9142 147.383C41.8442 147.383 41.6517 147.267 41.5641 147.208M61.1703 154.561L62.2206 155.173C62.4248 155.319 62.8508 155.629 62.9208 155.699C62.9908 155.769 63.4168 155.961 63.621 156.049M63.621 156.049L64.4963 155.786L65.1965 155.261L65.3716 155.086M41.5641 147.208L41.9142 147.033L42.6145 146.508C42.8479 146.333 43.3322 145.983 43.4022 145.983C43.4722 145.983 44.1316 145.516 44.4525 145.283L45.1528 144.758C45.357 144.583 45.7829 144.232 45.853 144.232C45.923 144.232 46.349 144.057 46.5532 143.97L46.9908 143.882L47.6035 143.811M41.5641 147.208C41.1848 147.121 40.4088 146.946 40.3387 146.946C40.2512 146.946 38.6757 146.246 38.5882 146.246C38.5182 146.246 37.567 145.837 37.1002 145.633L34.912 144.758C34.3285 144.524 33.144 144.057 33.074 144.057C32.9864 144.057 31.6735 143.445 31.586 143.445C31.4985 143.445 30.4482 142.92 30.3606 142.832C30.2906 142.762 28.8727 141.519 28.1724 140.906L26.8595 139.506L24.6713 137.405L23.7085 136.443L23.446 136.092M23.446 136.092L22.5707 135.83C22.1914 135.538 21.4153 134.955 21.3453 134.955C21.2753 134.955 20.2075 134.021 19.6823 133.554L17.6692 131.891C17.2607 131.57 16.4263 130.911 16.3562 130.841C16.2862 130.771 15.8019 130.345 15.5685 130.141L15.1309 129.703M23.446 136.092L23.9711 135.742C24.117 135.655 24.4438 135.445 24.5838 135.305C24.7239 135.165 24.9339 135.013 25.0215 134.955M15.1309 129.703L14.6932 129.353M15.1309 129.703L15.5685 129.557M14.6932 129.353V123.051L16.9689 120.863M21.958 109.134C21.958 109.204 21.958 109.63 21.958 109.834H22.4832L23.2709 110.097C23.4751 110.301 23.9011 110.71 23.9711 110.71C24.0412 110.71 24.7589 111.293 25.109 111.585L25.8967 112.548L26.3344 113.16M21.958 109.134L21.6079 109.834C21.462 109.98 21.1527 110.307 21.0827 110.447C20.9952 110.622 20.5576 110.972 20.5576 111.06C20.5576 111.13 20.0908 111.439 19.8573 111.585V112.197C19.8865 112.197 19.9624 112.215 20.0324 112.285M26.3344 113.16L26.597 112.723L26.9471 112.548H27.5598C27.7056 112.606 27.9974 112.758 27.9974 112.898C27.9974 113.038 27.7056 113.423 27.5598 113.598L27.2096 114.298L26.9471 114.736M26.3344 113.16L25.8967 114.036C25.8092 114.269 25.6341 114.771 25.6341 114.911C25.6341 115.086 25.6341 115.699 25.6341 115.786C25.6341 115.856 25.7509 116.049 25.8092 116.136M26.9471 114.736C26.8887 114.94 26.7545 115.366 26.6845 115.436C26.597 115.524 26.4219 115.786 26.3344 115.874C26.2468 115.961 25.8967 116.049 25.8092 116.136M26.9471 114.736C27.1221 115.144 27.4722 115.979 27.4722 116.049C27.4722 116.119 27.8223 117.011 27.9974 117.449L28.6101 118.587L29.3103 120.338C29.5437 120.863 30.0105 121.931 30.0105 122.001C30.0105 122.071 30.3606 123.197 30.5357 123.751L30.7107 125.589C30.7983 126.173 30.9733 127.357 30.9733 127.427C30.9733 127.497 31.1484 128.098 31.2359 128.39L31.586 129.572M25.8092 116.136C25.7217 116.224 25.4591 116.661 25.3716 116.661C25.284 116.661 25.1965 117.011 25.1965 117.099M25.1965 117.099C25.1965 117.187 25.284 117.362 25.3716 117.537C25.4416 117.677 25.6341 117.828 25.7217 117.887M25.1965 117.099L24.7589 116.136C24.4671 115.757 23.8661 114.981 23.7961 114.911C23.7085 114.823 22.7457 113.948 22.5707 113.86C22.3956 113.773 21.6954 113.248 21.5204 113.073C21.3453 112.898 20.9077 112.548 20.7326 112.548C20.5576 112.548 20.1199 112.373 20.0324 112.285M20.0324 112.285V112.723C19.974 112.839 19.8223 113.09 19.6823 113.16C19.5422 113.23 19.2738 113.423 19.1571 113.51L18.5444 114.036L18.4569 114.736L18.807 115.086M27.2972 126.289L27.8223 125.852C27.9099 125.793 28.0849 125.659 28.0849 125.589C28.0849 125.502 27.9974 125.152 27.9099 125.152C27.8398 125.152 27.4722 125.21 27.2972 125.239C27.1805 125.297 26.9471 125.432 26.9471 125.502M27.2972 126.289L26.9471 126.464L26.8595 126.815L26.9471 127.515C26.9471 127.719 26.9471 128.145 26.9471 128.215C26.9471 128.285 26.772 128.478 26.6845 128.565C26.5678 128.565 26.3169 128.548 26.2468 128.478C26.1593 128.39 26.1593 128.303 26.1593 128.127C26.1593 127.952 26.1593 127.602 26.1593 127.427C26.1593 127.252 26.1593 126.99 26.1593 126.815C26.1593 126.639 26.2468 126.464 26.3344 126.377C26.4044 126.307 26.5386 126.056 26.597 125.939C26.7137 125.823 26.9471 125.572 26.9471 125.502M26.9471 125.502L26.1593 124.276L25.4591 122.876L24.6713 121.738C24.5255 121.446 24.2162 120.863 24.1462 120.863C24.0762 120.863 23.8253 120.396 23.7085 120.162L23.446 119.987M23.446 119.987L23.0959 120.513V120.863C23.0959 120.979 23.0959 121.23 23.0959 121.3C23.0959 121.388 23.2709 121.475 23.2709 121.563C23.2709 121.633 23.2709 121.767 23.2709 121.825L23.0083 122.001L22.6582 121.913L22.4832 121.388L22.3956 120.863L22.4832 120.338V119.812L22.9208 119.287M23.446 119.987C23.6502 119.9 24.0762 119.725 24.1462 119.725C24.2162 119.725 24.3504 119.491 24.4088 119.375L24.5838 118.85L24.4088 118.587C24.2629 118.587 23.9536 118.587 23.8836 118.587C23.8136 118.587 23.7377 118.704 23.7085 118.762L23.3584 119.112L22.9208 119.287M22.9208 119.287L21.8705 118.237L20.9952 117.099L19.6823 116.136L18.807 115.086M18.807 115.086L18.1943 115.699L17.6108 116.049M16.5313 120.6C16.5313 120.542 16.5138 120.408 16.4438 120.338C16.3562 120.25 16.5313 119.812 16.4438 119.725C16.3738 119.655 16.473 119.112 16.5313 118.85C16.5605 118.47 16.6188 117.677 16.6188 117.537C16.6188 117.397 16.7355 117.011 16.7939 116.836L17.3191 116.224L17.6108 116.049M16.5313 120.6C16.2104 120.775 15.5685 121.143 15.5685 121.213C15.5685 121.3 15.0433 121.65 15.0433 121.738C15.0433 121.825 14.6932 122.001 14.5182 122.088C14.3781 122.158 13.8763 122.467 13.6429 122.613L13.2053 122.876C13.1469 122.963 13.0127 123.156 12.9427 123.226C12.8552 123.313 12.7676 123.401 12.6801 123.489C12.6101 123.559 12.3592 123.576 12.2425 123.576L11.9799 123.489V119.812L12.8552 119.025C13.1469 118.879 13.7479 118.552 13.818 118.412C13.9055 118.237 14.3431 117.887 14.4306 117.887C14.5007 117.887 14.9266 117.537 15.1309 117.362C15.3059 117.187 15.6735 116.801 15.7436 116.661C15.8311 116.486 16.0061 115.961 16.1812 115.874C16.3562 115.786 16.4438 115.436 16.5313 115.436C16.6013 115.436 16.7355 115.261 16.7939 115.173L16.9689 115.611L17.2315 115.874L17.6108 116.049M16.5313 120.6H16.6188L16.9689 120.863M16.9689 120.863L19.8573 117.537V118.237C19.8573 118.376 19.8573 118.633 19.8573 118.85M18.9821 123.226C19.0696 123.226 19.2447 122.876 19.3322 122.613C19.4197 122.351 19.6823 122.088 19.6823 122.001C19.6823 121.931 19.8573 121.446 19.9449 121.213C19.974 120.863 20.0149 120.092 19.9449 119.812C19.8573 119.462 19.8573 119.375 19.8573 119.112C19.8573 119.045 19.8573 118.952 19.8573 118.85M18.9821 123.226C18.912 123.226 18.7195 123.693 18.632 123.926M18.9821 123.226L19.3322 124.189C19.5656 124.626 20.0499 125.502 20.1199 125.502C20.2075 125.502 21.0827 126.815 21.1703 126.99C21.2578 127.165 22.0455 128.303 22.1331 128.39C22.2206 128.478 22.8333 129.44 22.9208 129.572C22.9908 129.677 23.4751 130.286 23.7085 130.578C23.8544 130.782 24.1462 131.208 24.1462 131.278C24.1462 131.366 24.2337 131.541 24.4088 131.804C24.5838 132.066 24.8464 132.329 25.0215 132.504C25.1615 132.644 25.3132 132.796 25.3716 132.854L25.7217 133.292C25.78 133.408 25.8967 133.659 25.8967 133.729C25.8967 133.799 25.8967 133.933 25.8967 133.992L25.853 134.254M18.632 123.926L18.3694 124.626C18.311 124.714 18.1768 124.906 18.1068 124.976C18.0193 125.064 17.8442 125.064 17.8442 125.327C17.8442 125.537 17.7275 125.823 17.6692 125.939L17.4941 126.377L17.2315 126.815C17.2023 126.873 17.109 127.025 16.9689 127.165C16.8289 127.305 16.9106 128.157 16.9689 128.565L16.6188 128.74C16.5313 128.886 16.3387 129.178 16.2687 129.178C16.1987 129.178 15.8311 129.411 15.656 129.528L15.5685 129.557M18.632 123.926L18.807 124.889L19.1571 125.589C19.3322 125.852 19.6823 126.394 19.6823 126.464C19.6823 126.552 20.2075 127.165 20.295 127.165C20.3825 127.165 20.8201 127.952 20.9077 128.04C20.9777 128.11 21.3453 128.653 21.5204 128.915L22.0455 129.878L22.4832 130.666L23.0083 131.278C23.0959 131.453 23.2884 131.821 23.3584 131.891C23.446 131.979 23.7085 132.329 23.7085 132.504C23.7085 132.679 23.9711 132.679 24.1462 132.941C24.3212 133.204 24.7589 133.554 24.8464 133.729C24.9339 133.904 25.109 134.167 25.1965 134.429C25.2665 134.639 25.109 134.867 25.0215 134.955M15.5685 129.557V123.489L16.4438 122.613C16.7939 122.38 17.4941 121.896 17.4941 121.825C17.4941 121.738 18.1068 121.125 18.1068 121.038C18.1068 120.95 18.4569 120.513 18.5444 120.338C18.6145 120.197 18.8654 119.871 18.9821 119.725L19.3322 119.287L19.8573 118.85M25.0215 134.955C25.1673 134.896 25.4766 134.762 25.5466 134.692C25.6166 134.622 25.7509 134.546 25.8092 134.517L25.853 134.254M72.8989 117.449L72.1987 118.062L70.1856 119.478M72.8989 117.449L72.7239 116.924L71.586 116.136M72.8989 117.449L79.7261 121.65M71.586 116.136L72.0236 115.874L72.8114 115.348L73.7742 114.823L74.5619 114.561L75.2622 114.998L75.1746 115.436L74.6932 115.567M70.1856 119.478V124.364L70.4482 124.889L70.9733 125.239L71.6735 125.589L72.7239 125.677L73.6867 125.589L74.9996 124.889L76.7501 123.751L79.7261 121.65M79.7261 121.65L79.9886 121.825L81.3015 122.613L82.877 123.489L84.1024 123.751M211.105 33.5104L209.792 38.1493L200.951 47.1647L196.225 48.3014M211.105 33.5104L214.343 31.4973L217.582 18.7183V18.2806L217.144 18.1056H216.706L212.155 20.9065V18.9809M211.105 33.5104L208.741 34.8233L206.903 35.8736L205.765 36.3113L205.24 36.0487L205.415 35.611L205.765 34.9108L206.028 34.4732L206.291 33.998M210.317 19.0684L211.542 18.4557H211.98L212.155 18.7183V18.9809M210.317 19.0684L198.763 11.8911L197.8 11.7161L196.663 11.541H195.525L194.825 10.8408L194.649 10.6254M210.317 19.0684L203.315 23.1672M182.746 2.61324L185.284 4.18873L186.947 5.12002M182.746 2.61324L182.221 2.43818H181.52L180.995 2.87582L180.645 3.57604L180.558 4.45131L180.47 5.32659L179.945 6.11433L179.42 6.81455L178.807 7.6023L178.369 8.03993V8.47757L178.982 9.00273M182.746 2.61324L182.658 1.47538V0.600109H181.958L180.645 1.38786L179.245 2.1756L177.056 3.57604L173.205 5.76422L170.93 6.98961L169.879 7.86488L169.529 9.26532L169.004 11.0159L168.391 13.2916L167.779 15.7824L167.341 17.9305L167.078 19.1559L166.553 20.7314V22.1318L167.078 23.3572L168.129 25.2828L168.654 27.2084L168.566 33.773H169.879L171.717 33.4229L173.993 32.9852L175.831 32.285M182.746 2.61324L184.234 1.82549L185.547 0.862691L187.175 0.25H187.822L187.21 1.65044L187.175 2.74145L186.947 4.27626V5.12002M178.982 9.00273L180.995 9.96554L188.26 14.2544M178.982 9.00273L178.369 9.70295L177.494 10.4032L176.356 11.2784L174.781 12.3288L173.205 13.2916L171.367 14.2544L170.492 14.6045M188.26 14.2544L189.573 13.4666L190.536 12.8539L191.323 12.7664L191.849 12.8539L192.024 13.4666V14.2544L191.849 14.8671L191.323 15.3922L190.798 15.7824M188.26 14.2544L187.21 15.0421L186.334 15.5673L185.809 16.0049L185.722 16.6176V17.2303L186.072 17.7555L186.509 18.1056V18.8058L186.334 19.506L186.247 20.2062V20.994V22.0968M187.997 21.6942V17.9305L188.26 17.6679L190.798 15.7824M187.997 21.6942L188.698 22.1318L189.223 22.3944L189.573 22.7445L189.485 23.2697L188.61 23.3572L187.997 23.7949L187.385 24.32L187.175 24.5826M187.997 21.6942L187.035 21.7817L186.247 22.0968M187.035 26.4207V24.7577L187.175 24.5826M187.035 26.4207L198.413 32.5476M187.035 26.4207L186.684 27.296V29.3966L186.597 30.4469L186.422 31.1472L186.334 33.773L186.259 35.436M198.413 32.5476L198.151 33.948L197.713 35.8736L197.013 38.0618L195.962 39.8124L194.825 40.9502L194.037 41.6504V43.1384M198.413 32.5476L198.668 31.1472M203.315 23.1672L203.14 23.2697L200.864 24.9327L199.901 26.0706L199.288 28.2588L198.763 30.622L198.668 31.1472M203.315 23.1672L192.214 16.6176M190.798 15.7824L192.214 16.6176M192.214 16.6176L192.899 16.0925L193.512 15.0421L194.124 13.7292L194.562 12.5914L194.649 11.541V10.6254M194.649 10.6254L193.687 9.44037L192.286 8.21499L190.361 7.07713L187.472 5.41411L186.947 5.12002M195.262 48.533L194.037 48.8277V43.1384M195.262 48.533V42.0005L196.05 41.1253L197.275 39.8124M195.262 48.533L196.225 48.3014M197.275 39.8124L198.588 38.4119L200.076 37.3616L201.739 36.3113L203.577 35.1734L205.415 34.1231L205.853 33.6854L206.291 33.998M197.275 39.8124L197.625 39.1121L197.976 38.1493L198.501 36.3988L199.113 33.6854L199.551 32.285L199.814 30.7095L200.076 29.134L200.514 27.5585L201.039 26.0706L201.652 25.2828L202.702 24.6701L212.155 18.9809M208.566 32.285H207.691L207.428 32.5476L206.903 33.2478L206.466 34.1231L206.291 33.998M206.641 26.7708L204.89 27.7336L203.315 28.6964L202.089 29.3966L201.564 29.6592L201.214 29.4841V29.134L201.389 28.6964L202.702 28.0837L207.691 25.3703V25.1078L207.516 24.6701H207.166L201.564 27.6461M201.914 26.4207L207.428 23.7949L208.741 23.0071L209.267 22.4819L209.091 22.1318H208.566L206.641 23.2697L202.702 25.3703M170.492 14.6045L170.317 15.0421V16.18L171.367 16.9677L173.38 17.9305M170.492 14.6045L171.455 15.4798L174.168 17.2303L179.07 20.1187L180.032 20.7314H180.558L180.908 20.6439M173.38 17.9305L174.781 18.7183L177.056 20.0312L178.807 21.0815L179.857 21.6067M173.38 17.9305L172.418 18.5432L171.105 19.2434L169.267 20.3813L167.954 21.2566L167.604 21.7817L167.954 22.9196L168.566 24.2325L169.267 26.0706L169.879 27.296L170.492 27.2084L171.63 26.4207L172.768 25.7205L174.518 24.5826L176.794 23.3572L178.632 22.3069L179.857 21.6067M179.857 21.6067L180.295 21.558M180.908 20.6439L180.645 21.5191L180.295 21.558M180.908 20.6439L181.52 19.8561L182.221 19.2434L183.008 18.8933L183.971 19.1559L184.671 19.6811L185.109 20.1187L184.934 20.6439L184.234 21.0815L183.271 21.7817L182.921 22.4819L182.658 23.2697M182.658 23.2697L183.271 23.7949L184.059 24.2325M182.658 23.2697L182.483 24.5826L182.221 26.4207L182.133 27.3397M184.059 24.2325L184.846 24.4951M184.059 24.2325L183.709 25.2828L183.008 26.2456L182.133 27.3397M184.846 24.4951L185.109 23.7949L185.547 22.9196L186.159 22.1318L186.247 22.0968M184.846 24.4951L184.671 26.0706L184.234 28.6964L183.884 30.9721L183.534 32.9852L183.26 34.7358M198.668 31.1472L198.238 31.3222L197.8 31.1472L195.962 30.0093L189.748 26.4207L187.175 24.5826M186.247 36.1362V35.6986L186.259 35.436M186.247 36.1362L187.21 36.2237L187.735 36.6614L188.435 37.2741L188.698 37.4929M186.247 36.1362L186.072 37.4929L185.897 38.4119L185.984 39.1997L185.722 39.7248L184.321 40.6001L183.271 41.3879H182.483L182.396 40.1625L182.746 38.2369L183.096 35.7861M195.962 33.1603L195.35 33.5104L194.649 33.948L192.899 35.0859L191.061 36.3988L189.66 37.2741L188.96 37.7117L188.698 37.4929M195.962 33.1603L195.262 32.5476L194.124 31.8474L193.249 31.3222H192.636L191.586 32.11L190.361 32.9852L188.96 33.8605L187.56 34.7358L186.597 35.2609L186.259 35.436M195.962 33.1603V37.7117L195.262 38.4995L193.337 39.9874L191.498 41.3879M133.905 101.432H134.606L137.144 100.994L139.77 100.119L142.396 99.1559L145.109 97.6679L147.735 96.0924L150.273 94.2544L152.636 92.5038L154.912 90.4907L157.713 87.8649L159.026 86.2894L160.951 83.9261L162.439 81.6504L163.84 79.5498L165.153 77.3616L167.166 74.1231L168.916 71.2347L170.492 68.959L172.33 67.2084L173.73 65.8955L175.131 64.7577L176.269 63.6198L177.494 62.3944L178.369 61.2566L178.982 60.5563L177.494 60.1187L175.744 59.6811H175.131L174.168 60.7314L172.768 61.8693L171.192 63.1822L169.617 64.7577L168.391 65.983L167.166 67.6461L166.466 68.8714L165.765 70.4469L164.365 72.9852L162.702 75.5235L161.126 77.7992L159.376 79.9874L157.8 81.4754L156.4 82.9633L156.137 82.5257L155.612 81.4754L154.825 80.25L153.949 78.6745L152.986 77.5366L151.849 76.3988L150.536 75.2609L149.135 74.0356L147.997 73.1603M133.905 101.432V104.408L133.555 105.283L133.293 106.421L132.768 107.471V108.696L132.33 109.747V110.622L130.755 110.972L129.179 111.322H126.203V109.484M133.905 101.432L133.73 95.7423V93.029L133.293 91.2784L132.505 90.3156L131.28 89.2653L129.792 88.3025L128.216 87.3397L126.816 86.552L125.853 85.5892V84.5388L126.203 83.6636L126.816 82.7883M126.203 109.484L126.816 108.521L127.428 107.646L127.691 107.121M126.203 109.484L125.503 110.272L124.628 111.147L124.102 111.497V112.635L124.89 113.335L126.028 113.948L126.991 114.561L127.954 115.086L128.391 115.261L129.879 114.298L132.155 112.81L134.256 111.41L136.269 109.834L137.844 108.171L139.945 106.596L142.221 105.108L143.884 104.057L144.759 103.97L145.984 104.057L147.035 103.445L148.435 102.482L149.398 101.957L151.236 100.906L153.599 99.331L155.7 98.018L159.376 95.5673L162.965 93.2916L165.503 91.8036L168.741 89.7905L171.105 88.215L175.831 85.3266L180.995 82.1756L184.146 80.1625L189.66 76.6614L190.186 76.0487L189.748 75.436L188.348 74.5607L185.197 72.6351L184.671 71.9349L184.759 70.9721L185.897 69.6592L187.822 68.1712L188.435 67.7336L189.223 68.2588L190.186 68.3463L191.411 67.8211L192.549 67.0334L193.337 66.5957M117.013 86.727L124.365 91.1034L126.816 92.5038L127.866 93.5542L128.129 94.4294V101.694M117.013 86.727L116.444 86.8145M117.013 86.727L117.888 86.0268L118.151 85.3266L118.063 84.2763L117.68 83.8386M112.636 86.1143L114.474 86.727L115.875 86.9021L116.444 86.8145M112.636 86.1143L110.536 84.8889M112.636 86.1143L111.674 86.552L110.623 87.7773L109.31 89.0027L107.385 89.7905L104.846 90.0531L103.008 90.7533L100.207 92.0662L97.2315 93.3791L94.5182 94.517L91.4547 96.0924L88.8289 97.4929L87.516 98.1056M110.536 84.8889L110.273 83.8386L110.536 82.7883M110.536 84.8889L110.273 85.6767L109.485 86.552L108.785 87.2522L107.647 87.6898L106.86 87.7773L105.109 88.1275L103.446 88.39L102.308 88.7402L100.47 89.6154L97.6692 91.1034L95.1309 92.1537L92.6801 93.204L89.4416 94.8671L87.516 95.9039M110.536 82.7883L111.586 81.913L112.286 81.5191M110.536 82.7883L109.485 83.3135L108.523 83.8386L107.21 84.3638M118.151 76.3988L117.8 77.4491L117.013 78.6745L115.262 79.8999L112.986 81.1253L112.286 81.5191M118.151 76.3988L119.726 76.1362L121.827 75.611H122.877V75.8736M118.151 76.3988L114.124 76.4525M122.877 75.8736L125.153 76.0487M122.877 75.8736L122.614 76.1362L122.002 77.0115L121.302 78.2369L120.776 79.5498L120.076 80.25L118.676 81.0377L117.013 81.8255L115.525 82.7216M125.153 76.0487L124.365 76.924L123.927 77.8868L123.402 79.1121L123.14 80.25L123.271 80.6001M125.153 76.0487L125.59 75.6986L126.816 74.9984L128.391 73.948L130.054 72.8977L130.798 72.5038M126.816 82.7883L125.853 82.3507L124.54 81.4754L123.402 80.9502L123.271 80.6001M126.816 82.7883L128.216 83.576L130.142 84.7139L131.805 85.9393L133.118 87.3397L134.081 88.4776L134.781 89.6154L134.956 90.6658V93.7292M126.816 82.7883L129.354 81.4754L133.118 79.2872L137.526 76.924L139.953 75.6986M61.4479 101.432L61.8801 100.994M61.4479 101.432L59.7698 103.131M116.444 86.8145V89.0903L118.588 89.878L118.851 90.0093M124.54 93.204L122.79 92.0662L121.039 91.1034L118.851 90.0093M124.54 93.204L125.153 94.0793V95.3047L123.665 96.18H121.652H119.639L117.538 95.5673L116.137 94.7795L117.363 94.3419L118.326 94.0793L118.851 93.6417M124.54 93.204L124.803 94.0793L124.54 94.7795L124.015 95.2172L122.965 95.3047L122.002 95.2172L121.039 94.9546L120.076 94.517L119.288 94.0793L118.851 93.6417M118.851 93.6417V90.0093M193.337 66.5957L192.899 66.0706L191.674 65.4579L191.236 64.2325L191.148 62.9196L191.411 61.5191L192.111 59.9437L192.811 58.6307L192.899 58.1056L192.636 57.1428L192.374 56.5301V54.9546L191.411 54.517L190.536 54.2544L189.748 53.8167L186.684 53.9918L184.759 54.2544H180.383H179.245L177.932 54.692H174.693L171.542 54.9546L171.105 54.2544L171.28 53.029L173.03 52.8539L175.831 52.6789L180.645 52.5038L185.897 52.1537L190.186 51.9787V51.4535L185.897 48.533L180.82 44.7139L181.695 43.8386L182.833 43.1384L183.008 43.0259M193.337 66.5957L194.737 67.3835L195.787 67.8211H196.575L197.363 67.3835L198.063 67.7336L198.851 67.8211H199.639L200.514 67.3835L201.652 66.5957L202.527 66.7708L203.927 67.0334L204.803 67.3835H206.028L206.466 66.5957V65.4579L206.028 64.7577L204.803 63.6198L204.102 62.9196V61.6942V60.1187V59.6811L203.315 58.6307L202.527 57.843L202.352 57.3178L202.527 56.9677H203.052L203.49 56.4426L203.315 52.5038L202.527 51.4535L201.214 50.8408L199.376 49.878L197.538 48.9152L196.225 48.3014M188.698 37.4929L188.435 38.0618L187.385 39.4623L185.897 41.1253L184.059 42.3507L183.008 43.0259M194.037 43.1384L191.498 41.3879M191.498 41.3879L189.748 42.5257L188.172 43.9261L186.259 45.5892L184.671 44.5388L183.358 43.401L183.008 43.0259M75.6123 88.7135L71.9361 91.1909L69.5729 93.204L68.6976 94.0904M75.6123 88.7135L78.5007 90.5782L82.0893 92.6789L85.3278 94.517L87.516 95.9039M87.516 95.9039V98.1056M72.8114 116.924L73.249 116.311L74.2118 115.699L74.6932 115.567M74.6932 115.567L79.9011 118.762L83.2272 120.513L85.3278 121.738L85.853 122.263M85.853 122.263L85.5904 122.876L84.8902 123.313L84.1024 123.751M85.853 122.263L86.9908 122.351L88.0412 122.176L88.1113 122.111M84.1024 123.751L83.4022 124.101L82.6145 124.714L81.8267 125.327L81.4766 126.027V128.39L82.2643 129.615L83.0521 130.578L83.2272 131.278V132.504L82.3519 133.292L82.0893 133.817L82.2643 136.268L82.6145 136.705L83.4022 135.917L84.1024 135.217M73.6867 111.41L74.1243 112.11L75.7873 113.16L78.8508 115.086L81.1265 116.661L84.365 118.587L88.3913 121.038L88.6125 121.65L88.1113 122.111M73.6867 111.41L73.3366 110.71L73.074 110.009L73.4241 109.046L74.2994 108.434L75.1746 107.996H76.0015L76.5751 108.084L76.6626 108.434L76.4 108.696M73.6867 111.41L73.8617 110.622L73.8714 110.593M76.4 108.696L75.5247 108.871L74.6932 109.309L74.1243 109.834L73.8714 110.593M76.4 108.696L77.4503 109.397L79.551 110.622L81.6517 111.847L83.5773 112.723L84.8902 113.598L86.7282 114.648L88.3913 115.611L89.3541 115.874H90.0543L90.1418 115.086L89.7917 113.773L89.179 112.285L88.3913 110.184L87.9536 108.784L87.4285 107.208L86.7282 105.983L86.2031 105.108V104.408L86.9908 104.057L87.9536 103.707L88.9164 103.795L89.3541 104.67L89.5291 106.421L90.3169 108.434L90.476 108.871M93.818 118.237L93.1177 117.624V116.399L92.9135 115.786M93.818 118.237L93.5554 118.85L92.9427 119.287L92.2425 119.725L91.1921 119.812L89.9668 119.9L87.7786 118.587L86.7282 117.974L85.0652 116.836L83.0521 115.961L81.039 114.648L79.551 113.948L77.888 112.985L76.3125 111.935L74.737 111.06L73.8714 110.593M93.818 118.237H94.5182L95.3059 118.85L96.0061 119.55L96.1812 120.863M92.9135 115.786L92.7676 115.348L92.1549 114.298L91.8924 113.073L91.3672 111.322L90.476 108.871M92.9135 115.786L94.5182 116.661L95.481 117.011L96.7064 116.399L97.7567 115.436L99.3322 114.561L100.733 114.036L102.308 113.16L104.321 112.11L105.634 111.585L106.86 110.885L107.297 110.359V106.508L106.947 105.896L106.86 103.766L106.159 103.357M106.159 103.357L105.109 103.445L104.409 102.832L102.746 103.532L100.733 104.32L96.9689 105.808L94.4307 107.121L92.33 108.084L90.476 108.871M106.159 103.357L106.597 102.832L107.297 102.044L108.698 101.082L110.448 100.381H112.024L113.512 100.819M128.129 101.694V102.307V106.246L127.691 107.121M128.129 101.694L124.102 101.782L123.315 101.432H121.302L120.339 100.906L118.763 100.644L117.1 100.119H115.875L114.474 100.469L113.512 100.819M113.512 100.819L114.387 101.607L115.525 102.394L117.188 103.095L118.851 103.62L120.339 104.057L121.477 104.758L122.79 105.283L124.277 105.896L125.24 106.421L126.291 106.858L127.253 107.121H127.691M112.286 81.5191L113.862 82.0881L115.525 82.7216M112.286 81.5191L112.899 80.25L113.337 78.8496L113.862 77.7992L114.124 76.4525M117.68 83.8386L117.45 83.576L115.7 82.7883L115.525 82.7216M117.68 83.8386L119.113 83.1384L120.951 82.0005L122.614 81.0377L123.271 80.6001M123.271 80.6001L124.89 79.8124L125.106 79.6855M135.218 73.5979L134.256 74.2106L132.943 74.9984L131.017 76.1362L128.216 77.7992L126.378 78.9371L125.106 79.6855M135.218 73.5979L135.919 74.0356L136.356 74.9108L135.744 75.6986L134.256 76.3988L132.418 77.3616L130.93 78.2369L129.704 78.9371L128.391 79.6373L127.253 80.1625H126.291L125.503 79.9874L125.153 79.7248L125.106 79.6855M135.218 73.5979L134.256 72.9852L132.855 72.285L131.542 72.11M135.218 73.5979L136.356 72.8102M131.542 72.11L131.805 71.2347L131.63 70.797L131.017 70.3594M131.542 72.11L130.798 72.5038M107.21 84.3638L105.984 85.2391L105.284 85.6892M107.21 84.3638L108.082 82.7216L109.048 80.6001L109.923 78.2369L110.536 76.3988M97.5816 83.576L98.7195 84.5388L101.083 85.8517L102.833 86.2894L104.759 86.0268L105.284 85.6892M97.5816 83.576L96.5313 84.1012L95.1309 85.064L93.818 85.7642L92.7676 86.3769L91.4547 86.8145M97.5816 83.576L96.6188 82.5257V81.5629L97.5816 79.7248L98.2819 78.9809M91.4547 86.8145L90.4044 86.552L90.4919 85.7642L91.8924 83.8386L93.5554 81.5629L95.481 78.4119L96.6188 76.1362L97.4066 73.6854V70.0093L97.4941 67.3835L97.7567 66.6833M91.4547 86.8145L92.7676 85.064L94.3431 82.4382L95.9186 79.8124L96.7939 78.2369L98.1943 76.7489L99.7698 75.7861L101.608 75.0859L103.621 74.7358L105.809 74.5607L108.698 74.9984L111.674 75.3485L114.037 75.611L116.838 75.6986L119.113 75.436L121.302 74.9108L123.927 74.0356L126.028 73.3892M112.724 60.0312L111.674 59.7686L110.711 60.2062L109.748 60.6439L108.523 60.994L106.947 61.3441L104.934 61.9568L102.046 62.8321L99.8573 63.9699L98.0193 65.983L97.7567 66.6833M112.724 60.0312L113.424 60.5563V60.9065M112.724 60.0312L114.474 59.506L116.137 58.8058L117.45 58.2806L118.676 57.9305M103.008 70.797L103.533 70.0968L104.146 69.4841L104.584 68.6964L105.021 67.7336L105.547 66.7708L106.247 65.7205L106.655 65.3703M103.008 70.797L101.958 70.2719L101.17 69.4841L100.733 68.6089L100.645 67.2959L100.82 66.2456L101.695 65.5454L102.833 65.0202L103.796 64.6701L104.759 64.32L105.021 64.2908M103.008 70.797L103.971 71.4097L105.372 72.0224L105.94 72.2412M106.655 65.3703L106.86 65.1953L107.822 64.4951L108.698 64.0574L110.011 63.3572L111.236 62.657L112.374 61.9568L113.424 61.2566V60.9065M106.655 65.3703L106.159 64.5826L105.547 64.2325L105.021 64.2908M105.021 64.2908L104.846 64.8452L104.496 65.7205L104.059 66.5957L103.621 67.471L103.183 68.3463L102.746 68.8714L102.308 69.134M109.923 73.3353L108.698 73.1603L106.509 72.4601L105.94 72.2412M109.923 73.3353L111.674 73.6854L113.337 73.773H115.35L117.45 73.6854L119.463 73.1603M109.923 73.3353L110.273 72.8102L110.886 72.2412L111.586 71.8474L112.374 71.3222L112.899 70.622M119.463 73.1603L121.389 72.8102L123.227 72.285L125.153 71.6723L125.853 71.5132M119.463 73.1603L119.989 72.7664M123.14 66.5082V67.6461L123.49 68.6089L124.102 69.0465L124.715 69.3091L124.277 70.0093L123.402 70.622L122.264 71.3222L120.514 72.3725L119.989 72.7664M123.14 66.5082L122.264 65.5454L121.039 64.4951L119.901 63.9699L118.501 63.7949L117.625 63.7073M123.14 66.5082L123.84 66.0706L124.715 65.5454L125.547 64.9327M117.625 63.7073L118.413 63.1822L119.376 62.4819L119.701 62.3069M117.625 63.7073L117.1 64.4951L116.75 65.1953L116.4 65.7205H116.05L115.087 65.3703L114.649 65.5454L114.124 66.2456L113.774 67.2959L113.424 68.5213L112.986 69.8342L112.899 70.622M121.827 60.5563L121.302 61.169L120.689 61.7137M121.827 60.5563L121.389 60.0312L120.514 59.506L119.551 58.9809L118.676 58.2806V57.9305M121.827 60.5563L123.14 60.9065L125.153 61.8693M131.017 70.3594H130.142L128.916 70.5345L128.654 70.6658M131.017 70.3594H131.805H133.38L134.606 70.797L135.744 71.6723L136.356 72.8102M128.654 70.6658L128.391 70.797L127.078 71.2347L125.853 71.5132M128.654 70.6658V68.5213L127.516 67.5585L126.378 66.5957L125.765 65.3703L125.547 64.9327M123.14 63.0946L124.277 63.8824L125.503 64.8452L125.547 64.9327M123.14 63.0946L121.739 62.2194L120.689 61.7137M123.14 63.0946L124.277 62.3944L125.153 61.8693M120.689 61.7137L120.514 61.8693L119.701 62.3069M136.356 59.506L135.744 58.4557L134.781 59.0684L133.643 59.6811H132.855M136.356 59.506L136.706 60.9065M136.356 59.506L137.526 60.0312L138.632 60.2938M136.706 60.9065L137.844 60.7314L138.632 60.2938M136.706 60.9065L136.838 61.3441M142.571 68.7839L142.046 67.6461L141.52 66.4207L140.47 65.1078L139.245 63.8824L137.844 62.7445L137.526 62.3944M142.571 68.7839L143.183 69.8342L144.321 70.9721L145.284 71.6723L146.663 72.285M142.571 68.7839L141.083 69.8342L139.682 70.622L138.019 71.6723L136.356 72.8102M147.997 73.1603L146.86 72.3725L146.663 72.285M147.997 73.1603L150.361 71.9349L152.899 70.1844L155.612 68.5213L159.901 65.7205L162.002 64.4951L162.177 63.7949L163.227 62.7445L163.665 61.6067L163.402 60.0312L162.177 59.0684L161.564 57.7555L161.827 56.9677L161.389 56.0049L160.601 55.1296L160.251 54.2544L159.288 54.1668L158.663 54.517M39.7261 105.02L39.0258 104.408L38.2381 103.182V101.169L38.4131 99.506L38.7633 98.8058V98.3682M39.7261 105.02V108.171L39.9886 109.484L40.5138 110.797L41.6517 112.285L42.4394 112.898L42.7895 112.285L43.7523 112.022H44.365V113.685L45.9405 112.898L47.4285 112.022L48.6538 111.147L49.2665 110.447M39.7261 105.02L39.9011 103.532L40.0762 102.219L40.4263 100.819L40.9514 99.506L41.8267 98.8058L42.877 98.3682L43.7523 97.843L44.8902 97.3178L45.853 96.5301L46.9033 95.7423L47.7786 95.1296L48.4788 94.822M49.2665 110.447L50.4044 111.147L51.3672 111.64M49.2665 110.447L48.3913 109.572L48.4788 108.609L49.3541 107.734L50.5794 106.771L51.5422 106.158M51.3672 111.64L55.8311 107.119M68.6976 94.0904L51.0171 93.9923M68.6976 94.0904L67.2391 95.5673M38.7633 98.3682V98.1056L37.8005 97.0552L37.3628 96.18V94.9546L37.8005 94.2544L38.7633 93.4666H39.2009L39.9011 93.8167L40.4263 94.2544L40.7764 94.6681M38.7633 98.3682L38.8508 98.1931L39.2009 97.4054L39.9886 95.7423L40.7764 94.6681M40.7764 94.6681L40.9514 94.4294L42.1768 93.029L44.4525 91.6286L46.028 91.1909L47.2534 91.541L48.6538 92.0662L50.1418 93.204L50.9296 93.9918L51.0171 93.9923M51.0171 93.9923L49.7917 94.2544L48.8289 94.6681L48.4788 94.822M61.8801 100.994L59.7698 99.8561L58.7633 99.2872M61.8801 100.994L65.3375 97.4929M63.5335 96.0924L62.2206 96.18L60.2075 95.9174H58.4569H55.5685H54.3431L53.7304 96.2675L53.993 96.6176L55.7436 97.7555L56.7501 98.2369M63.5335 96.0924L64.2337 95.9174L65.0215 95.7423L66.1593 95.5673H66.9471H67.2391M63.5335 96.0924L63.0959 96.4426L62.0455 96.7927L60.5576 97.3178L59.4197 97.7555L57.7567 97.9305L56.7501 98.2369M67.2391 95.5673L65.3375 97.4929M56.7501 98.2369L57.7567 98.7183L58.7633 99.2872M58.7633 99.2872L59.7698 98.8933L61.0827 98.3682L62.3956 98.1056L63.9711 97.7555L64.9339 97.5804L65.3375 97.4929M48.4788 94.822V95.5673L48.6538 96.2675L49.7917 96.9677L51.5422 97.9305L53.0302 98.8933L54.6932 100.031L56.3563 100.994L57.9317 101.957L59.7698 103.131M59.7698 103.131L58.632 104.283M57.0397 105.896L54.6932 104.845L53.0302 103.882L52.4175 103.445L52.6801 103.131L54.1681 103.182L55.481 103.131H56.2687M57.0397 105.896L58.632 104.283M57.0397 105.896L55.8311 107.119M56.2687 103.131L57.6692 103.707L58.632 104.283M56.2687 103.131L54.1681 101.957L52.0674 100.994L51.0171 100.441M40.9514 107.208L41.4766 106.946L42.2643 106.421L43.0521 105.896L43.4897 105.195V104.408V103.707L43.0521 103.007L42.0893 102.394L41.214 102.044L41.5641 101.607L42.4394 100.819L43.9274 100.031L45.4153 99.2872L46.7282 98.3682L48.4788 99.2872L50.4044 100.119L51.0171 100.441M42.9646 107.383L44.4525 106.421L46.7282 104.67L47.8661 103.882M47.8661 103.882L48.8289 103.007L49.7917 102.044L50.5794 101.169L51.0171 100.441M47.8661 103.882L49.2665 104.67L50.5794 105.37L51.2797 105.896L51.5422 106.158M51.5422 106.158L52.6801 105.983H53.7304L54.6932 106.421L55.481 106.858L55.8311 107.119M84.1024 135.217L84.365 135.917L84.7151 136.705L85.5029 137.143L86.2906 137.055L87.2534 136.443L88.3037 135.655L89.3541 134.867M84.1024 135.217L83.8398 132.854V130.578L84.0149 128.303L84.8026 125.677L85.9405 123.926L87.7786 122.613L88.1113 122.111M89.3541 134.867L90.1418 134.167L90.842 133.729M89.3541 134.867L89.5291 133.467V132.154L89.004 130.753L88.8289 129.353L88.7414 127.69L89.6166 125.502L90.3169 124.189L90.842 123.926L91.8097 123.751M90.842 133.729L91.6298 134.692L92.1987 135.173M90.842 133.729L91.1921 131.716L91.6298 129.528L92.0674 127.515L92.9135 125.589L93.9055 124.189L95.481 122.876L97.2315 121.738L98.0193 121.388L98.1943 120.863M90.842 133.729L90.5794 132.621L90.4919 128.828L90.842 127.34L92.1549 124.889L93.5554 123.226L95.1309 121.738L96.1812 120.863M100.558 133.029L100.207 133.467L99.5072 134.429L98.2819 135.48L96.8814 136.18L95.1309 136.443L93.7304 136.18L92.7676 135.655L92.1987 135.173M100.558 133.029L101.695 133.467L102.483 133.642L103.358 133.117L103.796 132.154V131.278L103.358 130.578L103.008 130.141M100.558 133.029L99.5072 132.621M103.008 130.141L103.621 129.528L103.796 128.478V126.815V124.889L103.74 124.626M103.008 130.141L101.695 129.265L101.126 128.915M98.1943 120.863L98.8945 120.688H99.6823L100.558 120.95L101.695 121.738L102.746 122.613L103.533 123.664L103.74 124.626M98.1943 120.863H96.1812M101.126 128.915L100.558 128.565L99.6823 127.865H98.632L97.6692 128.565L97.0565 129.528V130.753L97.4941 131.541L98.9821 132.416L99.5072 132.621M101.126 128.915V127.077L100.645 125.939L99.9449 125.327M99.9449 125.327L98.807 125.064L97.4941 125.327L96.4438 126.027L95.5685 127.165L94.6932 128.478L94.4307 129.353V131.541L94.9558 132.854L95.7436 133.313M99.9449 125.327L98.632 125.589L97.4941 126.202L96.4438 127.165L95.7436 128.39L95.3059 129.528V130.753V132.154L95.7436 133.313M99.5072 132.621L99.1571 132.854L98.2819 133.292L97.0565 133.642L96.0061 133.467L95.7436 133.313M92.1987 135.173L92.0674 133.029L92.1987 129.79L92.9427 127.602L94.0805 125.589L95.7436 123.664L97.4941 122.438L98.8945 121.825L100.207 122.176L100.995 123.051L101.258 124.101L101.608 125.064M101.608 125.064L102.483 124.714L103.446 124.626H103.74M101.608 125.064L101.695 125.589L101.958 126.552L102.308 127.34M85.5029 135.917L84.8902 134.429L84.8026 131.541L84.8902 128.478L85.5029 126.552L86.9908 124.364L89.179 122.788L91.1921 121.65L92.9427 120.513L93.9055 119.9H94.9558L95.1309 120.863L94.9558 121.213L93.4679 121.913L92.5051 122.788L91.8097 123.751M89.7917 128.303V127.865L90.3169 126.202L91.3672 124.364L91.8097 123.751M140.207 60.5563L140.47 61.4316L142.046 62.3944L143.358 63.1822L145.547 62.3944L147.822 60.9065L150.186 59.506L152.899 57.9305L155.35 56.5301L157.1 55.3922L158.663 54.517M140.207 60.5563L138.982 61.4316L137.526 62.3944M140.207 60.5563L141.345 59.8561M137.526 62.3944L136.969 61.7817L136.838 61.3441M132.855 59.6811L131.28 59.0684L129.704 58.1056L129.354 57.2303L129.704 56.5301L131.017 55.7423L132.418 55.0421L133.818 54.517L134.081 54.4003M132.855 59.6811V58.6307L133.905 58.1056L135.481 57.2303L136.531 56.7051L136.969 56.355M134.606 53.1165V54.1668L134.081 54.4003M134.606 53.1165L133.905 52.2412L132.768 51.1909L131.98 50.6532M134.606 53.1165L135.306 52.0662M135.306 52.0662L135.919 50.8408L137.844 49.7905L140.558 48.5651L143.533 47.0771L145.547 46.2019L146.86 45.4141L147.997 45.1515L149.048 45.5016L150.798 46.3769L152.024 46.9896M135.306 52.0662L135.656 52.6789L136.969 53.3791L138.895 54.517L140.995 55.7423L142.046 57.3178L142.308 58.4557L142.133 59.2434L141.345 59.8561M158.663 54.517L158.588 53.1165L158.151 52.5914L157.363 52.2412L157.1 51.366L156.925 50.0531L156.137 49.1778L154.474 48.0399L152.724 47.3397L152.024 46.9896M141.345 59.8561L140.032 59.2434L138.282 58.1056L137.056 57.2303L136.969 56.355M141.345 59.8561L139.77 60.2938H138.632M136.969 56.355L135.481 55.1296L134.081 54.4003M165.24 44.1887L166.553 44.3638L167.078 43.9261L167.428 43.6636M165.24 44.1887L164.715 44.6264L163.665 44.9765L162.527 45.4141L161.126 45.5016L159.989 46.2019L159.026 46.9021M165.24 44.1887L164.546 42.4819M169.091 43.0259L170.142 42.5257L170.645 42.1756M169.091 43.0259L168.435 43.2134M169.091 43.0259L167.341 42.1756L165.503 41.3879L164.102 40.9502L163.851 40.7752M168.435 43.2134L167.779 43.401L167.428 43.6636M168.435 43.2134L169.267 43.8386L170.492 44.3638L171.455 44.1012L172.505 42.7008L174.693 40.9502L176.794 39.7248L178.369 38.8496M178.369 38.8496L178.107 37.2741L178.255 36.1362M178.369 38.8496L180.032 37.7117L181.52 36.6614L183.096 35.7861M179.42 28.6964L179.245 30.4469L178.719 32.9852L178.652 33.4229M179.42 28.6964L179.595 26.8583L180.032 24.4951L180.295 22.9196V21.558M179.42 28.6964L178.544 29.9218L177.319 31.1472L175.831 32.285M175.831 32.285L176.619 32.8102L177.319 33.4229M183.096 35.7861L183.26 34.7358M183.26 34.7358L182.658 35.0859L181.87 35.2609M181.87 35.2609L181.083 35.8736M181.87 35.2609L181.695 33.948L181.87 31.4097L182.046 28.2588L182.133 27.3397M66.4219 159.353V158.149L67.0346 157.974L68.6976 157.099L70.9733 155.699L73.4241 153.86L74.3869 153.248L75.1746 153.023M79.551 149.922L78.8508 150.71L77.3628 151.847L75.6123 152.898L75.1746 153.023M79.551 149.922L81.3891 149.747L82.1768 148.784L82.7895 147.559L83.4897 145.37L83.8398 143.532L84.1024 142.044M79.551 149.922L79.3759 149.046M84.1024 142.044L80.6013 141.957L79.2884 142.92L77.9755 143.62M74.3869 153.335L73.1615 152.723L72.4613 151.935L73.5991 151.06L75.4372 149.659L77.2753 147.821L77.9172 146.946M79.3759 149.046L79.9886 148.346L80.1637 147.471L79.551 146.946L78.2381 146.508L77.9172 146.946M79.3759 149.046L78.5007 149.922L76.6626 151.497L75.1746 153.023M65.3716 150.447L68.0849 148.959L68.7851 148.492M65.3716 150.447L67.0346 150.797L68.8727 149.572L70.6232 148.434L72.3738 147.296L73.7742 146.333L75.3497 145.458L76.7501 144.583L77.9755 143.62M77.9755 143.62L77.9172 146.946M71.4186 146.771L70.9733 147.033L68.7851 148.492M71.4186 146.771L74.3869 145.02L74.9996 144.612M71.4186 146.771L69.923 145.633L69.0477 144.933M69.0477 144.933V144.32L69.7479 143.62L70.7107 143.27L72.1987 143.445L73.5991 144.057L74.9996 144.612M69.0477 144.933L67.5598 144.145L66.597 143.532M66.597 143.532L66.1593 143.182L64.4963 143.795L62.3956 144.467M66.597 143.532L66.4219 144.495L65.7217 145.195L64.4963 146.071L63.2709 146.946L62.0455 148.084L60.9952 149.046L59.6823 149.922L58.7741 150.797M58.7741 150.797C58.9467 150.935 59.1153 151.06 59.1571 151.06C59.2447 151.06 60.295 151.41 60.3825 151.41C60.47 151.41 61.1703 151.76 61.3453 151.847C61.4333 151.891 61.8715 152.053 62.3081 152.21M68.7851 148.492L67.6473 147.909M67.6473 147.909L66.5094 148.346L64.9339 149.484L63.7961 150.622M67.6473 147.909L67.3847 147.296L67.1878 147.033M63.7961 150.622L63.0959 151.205M63.7961 150.622V149.134L64.6714 148.492L65.8967 147.734L66.772 147.296L67.1878 147.033M62.3081 152.21L62.7457 151.497L63.0959 151.205M63.0959 151.205V150.009V148.784L63.8836 148.171L64.9339 147.559L65.8967 147.033L66.597 146.683L67.1221 146.946L67.1878 147.033M62.3956 142.569L62.3081 142.132H61.7829L60.6451 142.569L59.4197 143.095L58.0193 143.795L56.1812 144.612L54.7808 145.37L54.2556 146.071V146.596M62.3956 142.569L61.6079 142.92L60.0324 143.62L58.807 144.495L56.7939 145.37L55.5685 146.071L54.7808 146.421L54.2556 146.596M62.3956 142.569V144.467M96.0061 67.0334L93.2928 67.1209L92.1549 66.4003M93.0036 63.9699L94.2302 64.6701M97.7567 66.6833L94.2302 64.6701M92.1549 66.4003L94.2302 64.6701M113.424 60.9065H116.312L118.151 61.2566L119.288 61.9568L119.701 62.3069M105.94 72.2412L107.122 71.4097L107.997 69.9218L108.698 68.1712L109.31 67.2084L111.061 66.0706L112.986 65.0202L114.649 64.0574L115.875 63.4447M112.899 70.622H114.299H115.437L116.488 70.797L117.45 71.3222L118.588 71.8474L119.463 72.3725L119.989 72.7664M110.536 76.3988L107.385 76.1362H105.634M110.536 76.3988L111.586 76.4863L114.124 76.4525M98.2819 78.9809L98.9821 78.2369L100.295 77.099L101.608 76.4863L103.446 76.1362H105.634M98.2819 78.9809L100.295 80.1173M105.284 85.6892V84.9765L105.197 83.8386L104.846 82.7216L103.796 82.0881L100.995 80.5126L100.295 80.1173M100.295 80.1173L101.783 78.9809L103.621 77.7117L104.846 76.7489L105.634 76.1362M130.798 72.5038L128.391 72.7664L126.203 73.3353L126.028 73.3892M126.028 73.3892V72.285L125.853 71.5132M146.663 72.285L144.496 73.3892L140.82 75.2609L139.953 75.6986M139.953 75.6986L138.544 74.6482L137.407 73.948L136.356 72.8102M136.838 61.3441L135.744 62.1318L134.256 62.9196L132.943 63.7073L130.054 63.8824L127.866 63.2697L125.153 61.8693M125.153 61.8693L126.378 61.169L128.479 60.2062M141.608 11.6067L142.746 13.029L143.358 15.6548L143.096 20.3813L142.308 23.6198L140.47 27.7336L138.019 31.2347L135.218 33.948L132.33 35.7861L129.529 36.1362L127.078 35.6461M141.608 11.6067L140.995 10.8408L137.407 8.21499L133.905 6.02681L130.842 4.27626L129.004 3.92615H126.116L123.752 4.88895L120.776 6.98961L118.326 9.79048L116.05 13.2916L114.474 16.7051L113.599 20.3813V24.32L114.474 27.3835L116.05 29.3091L118.501 31.2347L122.527 33.5104L126.466 35.5235L127.078 35.6461M141.608 11.6067L138.719 10.2281L135.218 10.4907L131.717 12.4163L129.267 15.0421L126.641 18.4557L124.803 22.8321L123.752 26.5082V31.0596L124.54 33.0728L126.028 34.8233L127.078 35.6461M152.024 46.9896H154.825L157.363 47.1647L159.026 46.9021M159.026 46.9021L158.588 45.7642L157.8 44.6264L156.925 43.8386L156.137 43.2134L155.262 43.576L154.562 44.0137L153.949 44.1012L152.899 43.8386L151.586 43.0259L150.623 42.5257L150.361 42.0881V39.9874L149.485 39.6373L148.873 39.1997V38.4995L148.61 37.7992L147.997 37.099V34.0356L147.21 33.4229L146.509 32.6351L146.072 31.8474V31.4097L146.509 30.5345L147.21 30.0968L147.735 29.9218L148.348 30.0968L149.573 30.622H150.361L151.061 30.0968L151.586 29.5717L152.724 29.0465L153.599 28.7839L154.737 28.6964L155.875 28.7839L156.925 29.134L157.976 29.9218L158.851 30.3594L159.989 30.5345L160.951 30.3594L161.914 30.0968L162.702 30.0093L165.328 31.7598V33.4229L175.239 38.2369M177.582 39.3747L175.239 38.2369M175.239 38.2369L176.094 37.2741L176.619 36.6614L177.319 35.8736M177.319 35.8736V34.7358V33.4229M177.319 35.8736L178.255 36.1362M177.319 33.4229H178.652M178.652 33.4229L178.369 35.2609L178.255 36.1362M170.645 42.1756L172.155 41.1253L173.643 40.5126V39.9874L170.755 38.6745L166.553 36.8364L164.803 36.0222M170.645 42.1756L168.566 41.3879L166.553 40.3375L164.803 39.6373L163.927 39.1121M163.927 39.1121L164.715 38.4119L164.803 37.7117V36.0222M163.927 39.1121L163.281 39.3747M164.803 36.0222L162.79 35.0859H162.177L162.002 35.6986L162.177 36.6614L163.281 39.3747M163.281 39.3747L163.851 40.7752M163.851 40.7752L164.546 42.4819M167.428 43.6636L166.116 43.1384L165.153 42.6132L164.546 42.4819M136.838 65.3703L136.181 66.0706V67.1209L136.706 67.9962L137.844 68.7839L138.982 69.0465L139.953 68.6089L140.207 67.5585L139.77 66.5082L138.982 65.808L138.019 65.3703L137.319 65.1953L136.838 65.3703ZM134.081 16.7051L131.367 19.1559L129.792 21.8693L128.916 24.4075L128.654 26.5082L128.916 29.3091L130.404 30.622L132.505 31.2347L133.818 30.797L135.919 29.3091L137.844 26.7708L139.157 24.4075L139.857 21.8693V18.4557L139.157 17.1428L137.844 16.0049H136.181L134.081 16.7051ZM134.693 17.6679L133.118 18.9809L131.542 20.9065L130.404 23.0946L129.792 25.0202V27.5585L130.404 29.0465L131.542 29.8342H133.38L135.393 28.6964L136.881 26.7708L138.194 24.4075L138.895 22.2194L139.157 20.1187L138.895 18.6307L137.844 17.4054L136.706 17.1428H135.569L134.693 17.6679Z" stroke="#D4D4D4" stroke-width="0.5"/>
<path d="M13.0302 97.7555L3.83984 92.5914L2.00176 91.2785L0.863908 89.2653L0.251217 85.8518L0.513799 81.0378L2.00176 76.2238L4.71511 71.2347L7.60351 68.1712L11.0171 66.0706L14.4306 65.0203H17.4066L24.7589 69.134L27.8223 70.9721L29.179 72.5914M13.0302 97.7555L15.656 98.5432L19.2447 98.1056L22.7457 96.18L26.5094 92.1537L29.3103 87.3397L30.8858 83.0509L31.2359 78.4995L30.5357 74.2106L29.179 72.5914M13.0302 97.7555L11.9799 95.8299L10.7545 92.854L10.4044 88.9152L11.0171 84.7139L13.0302 79.1997L16.7939 74.4732L20.5576 72.0225L24.7589 71.2347L27.4722 71.4973L29.179 72.5914" stroke="#D4D4D4" stroke-width="0.5"/>
</svg>
