<svg width="137" height="226" viewBox="0 0 137 226" fill="none" xmlns="http://www.w3.org/2000/svg">
<path d="M87.7071 69.7148L90.191 67.8518L107.992 44.3583L126.725 47.4631L136.557 41.8744V40.2184M87.7071 69.7148L50.4486 48.2911L35.9592 56.7778M87.7071 69.7148V68.7833M35.9592 56.7778L34.6137 56.1568L21.8837 39.287L8.32578 41.4604L7.7048 39.908M35.9592 56.7778L35.7522 55.8463M7.7048 39.908L72.4932 2.33896L86.1547 0.269043M7.7048 39.908L21.8837 37.5275M86.1547 0.269043L100.127 18.1738M86.1547 0.269043L62.8681 13.9305M100.127 18.1738V19.2088L91.433 24.2801M100.127 18.1738L90.398 23.9051M91.433 24.2801L103.438 31.5248M91.433 24.2801L90.398 23.9051M103.438 31.5248L112.339 26.4535L124.552 24.5906M103.438 31.5248L103.232 36.9066M124.552 24.5906L136.557 40.2184M124.552 24.5906L103.232 36.9066M136.557 40.2184L126.932 45.7037M126.932 45.7037L107.992 42.5988M126.932 45.7037L103.232 36.9066M107.992 42.5988L87.7071 68.7833M107.992 42.5988L62.6611 16.6214M87.7071 68.7833L50.3451 47.4631M50.3451 47.4631L35.7522 55.8463M50.3451 47.4631L50.6556 20.9682M35.7522 55.8463L21.8837 37.5275M21.8837 37.5275L50.6556 20.9682M50.6556 20.9682L62.6611 16.6214M62.6611 16.6214L62.8681 13.9305M62.8681 13.9305L90.398 23.9051M89.6735 26.764L89.2596 28.1094M89.6735 26.764L83.4638 23.4521M89.6735 26.764L94.6413 27.6954M89.2596 28.1094L82.9463 24.4871L83.4638 23.4521M89.2596 28.1094L94.5378 28.9374L94.6413 27.6954M83.4638 23.4521L88.8456 24.2801L94.6413 27.6954M43.4109 23.1416L40.2025 23.5556L39.9955 22.9346M43.4109 23.1416L46.7228 21.1752L46.4123 20.4507M43.4109 23.1416L43.1004 22.5206M46.4123 20.4507L43.1004 22.5206M46.4123 20.4507L43.4109 20.7612L39.9955 22.9346M43.1004 22.5206L39.9955 22.9346M53.1395 17.4494L50.1381 17.9668L49.9311 17.2424M53.1395 17.4494L56.1409 15.6899L55.9339 15.0689M53.1395 17.4494L52.9325 16.7249M49.9311 17.2424L52.9325 15.3794L55.9339 15.0689M49.9311 17.2424L52.9325 16.7249M55.9339 15.0689L52.9325 16.7249M66.0765 45.4967L59.5562 41.6674L64.731 34.4227L71.4583 38.252L66.0765 45.4967ZM65.559 44.1513L69.8023 38.252L64.938 35.4576L60.7982 41.2534L65.559 44.1513Z" stroke="#D4D4D4" stroke-width="0.5"/>
<path d="M85.4301 220.612L87.1895 221.543L135.522 193.703L135.419 176.936M85.4301 220.612L77.2539 225.269M85.4301 220.612L85.3266 203.742M77.2539 225.269L69.9057 220.995M77.2539 225.269V207.261M42.3758 204.984L42.2723 187.079M42.3758 204.984L52.4149 210.823M42.3758 204.984L40.6164 206.019M28.3004 213.263L28.1969 195.152M28.3004 213.263L30.9395 211.711M28.3004 213.263L22.4011 209.848M0.770508 179.317V197.325L8.3257 201.699M0.770508 179.317L8.84318 174.556L9.87814 175.226M0.770508 179.317L28.1969 195.152M10.6026 175.694L4.39286 179.317L19.8137 188.262M10.6026 175.694V176.729L53.4499 151.994M10.6026 175.694L9.87814 175.226M84.1882 200.637L87.5 202.603L98.6776 196.157M84.1882 200.637L95.4692 194.324M84.1882 200.637L80.7211 202.655M112.65 165.759L132.003 176.936L128.691 178.847M112.65 165.759L104.784 170.313M112.65 165.759L112.546 169.485M104.784 170.313L86.7756 159.86M104.784 170.313V175.946M86.7756 159.86L91.4329 157.17M86.7756 159.86V162.856M90.9154 139.678L106.129 148.682L91.4329 157.17M92.6748 138.85L109.441 148.682M109.441 148.682L90.1909 160.067L93.4338 161.93M109.441 148.682V165.692M135.419 176.936L112.65 163.792L109.441 165.692M135.419 176.936L87.1895 204.673L85.3266 203.742M85.3266 203.742V202.396L77.2539 207.261M77.2539 207.261L42.2723 187.079M42.2723 187.079L28.1969 195.152M52.4149 210.823V197.946L53.4499 198.54M52.4149 210.823L69.9057 220.995M52.4149 210.823L53.4499 210.262M69.9057 220.995V219.68M69.9057 219.68L67.0079 218.024M69.9057 219.68V219.059M67.0079 218.024V206.322M67.0079 218.024L62.0401 215.18M67.0079 206.322L67.5253 206.619M67.0079 206.322L66.3869 205.965M69.9057 219.059V207.985L67.5253 206.619M69.9057 219.059L67.5253 217.61V206.619M62.693 203.845L62.661 214.816L66.3869 216.989V205.965M62.693 203.845L66.3869 205.965M62.693 203.845L62.0401 203.471M61.5226 203.174V214.091L57.9002 212.022V201.094M61.5226 203.174L57.9002 201.094M61.5226 203.174L62.0401 203.471M57.9002 201.094L57.0723 200.619M53.4499 210.262V198.54M53.4499 210.262L57.0723 212.336M53.4499 198.54L54.0709 198.897M54.0709 198.897V209.848L57.0723 211.608M54.0709 198.897L57.0723 200.619M57.0723 211.608V200.619M57.0723 211.608V212.336M57.0723 212.336L62.0401 215.18M62.0401 215.18V203.471M95.4692 194.324L98.6776 196.157M95.4692 194.324V178.799M98.6776 196.157L112.236 188.337M95.4692 178.799L112.236 188.337M95.4692 178.799L80.5658 187.39M112.236 188.337L112.982 187.907M80.7211 202.655L80.5658 187.39M80.7211 202.655L80.3588 202.866M80.5658 187.39L62.5575 176.936M62.5575 176.936L62.479 188.631M62.5575 176.936L65.7659 175.074L40.9269 160.688M63.489 192.875V180.041M63.489 192.875L64.11 192.504M63.489 192.875L63.1017 192.681M63.489 180.041L64.11 180.411M63.489 180.041L63.1017 180.18V192.681M71.6652 197.739V184.906L70.9407 184.475M71.6652 197.739L80.3588 202.866M71.6652 197.739L70.9407 196.911V188.424M80.3588 202.866L77.2539 204.673L54.4849 191.585M30.9395 211.711L40.6164 206.019M30.9395 211.711V210.366M40.6164 206.019V193.185L39.7884 193.646M40.6164 206.019L39.7884 205.294M39.7884 205.294L30.9395 210.366M39.7884 205.294V193.646M30.9395 210.366V209.538M39.7884 193.646L39.064 194.049M35.6486 195.948V206.743L39.064 204.777V194.049M35.6486 195.948L39.064 194.049M35.6486 195.948L34.5102 196.581M30.9395 209.538V198.567L34.5102 196.581M30.9395 209.538L34.5102 207.468V196.581M22.4011 209.848L8.3257 201.699M22.4011 209.848V208.606M8.3257 201.699L8.4292 188.735L9.15367 189.159M8.3257 201.699L9.15367 200.947M9.15367 200.947V189.159M9.15367 200.947L13.5005 203.46M9.15367 189.159L9.98164 189.643M9.98164 189.643V200.637L13.0865 202.396V191.46M9.98164 189.643L13.0865 191.46M13.0865 191.46L13.5005 191.703M14.1215 192.066V202.914L17.1229 204.777V193.822M14.1215 192.066L17.1229 193.822M14.1215 192.066L13.5005 191.703M17.1229 193.822L17.5886 194.095M18.0543 194.367L22.4011 196.911V207.985M18.0543 194.367V205.398L22.4011 207.985M18.0543 194.367L17.5886 194.095M22.4011 207.985V208.606M22.4011 208.606L17.5676 205.812M17.5676 205.812L17.5886 194.095M17.5676 205.812L13.5005 203.46M13.5005 203.46V191.703M53.4499 151.994L47.7576 148.579L65.8694 138.022M53.4499 151.994V154.892M64.11 136.884L44.1353 148.579M44.1353 148.579L50.138 152.201L44.1353 155.634M44.1353 148.579V155.634M9.87814 175.226L44.1353 155.634M54.4849 184.906V191.585M54.4849 184.906L48.7926 188.312M54.4849 184.906L52.7254 183.827M54.4849 191.585L48.7926 188.312M48.7926 188.312L48.0681 187.896M51.2765 182.939L52.7254 182.111M51.2765 182.939L50.552 183.353M51.2765 182.939L52.7254 183.827M52.7254 182.111L52.1044 181.594L51.2765 182.111M52.7254 182.111V182.939M48.7926 183.664L52.1044 185.63M48.7926 183.664V187.489M48.7926 183.664L51.2765 182.111M52.1044 185.63L48.7926 187.489M52.1044 185.63L52.7254 185.235M48.0681 187.896L42.6863 184.802L28.3004 193.185L19.8137 188.262M48.0681 187.896L48.7926 187.489M50.552 183.353L53.2429 184.906L52.7254 185.235M50.552 183.353L50.138 183.664L52.7254 185.235M62.479 188.631L62.454 192.357L63.1017 192.681M62.479 188.631L52.7254 182.939M52.7254 182.939V183.827M51.2765 182.111L47.8611 180.041V175.591M43.5143 177.868V164.724L44.3423 165.177M43.5143 177.868L40.9269 176.212M43.5143 177.868L44.3423 177.642M40.9269 176.212L19.8137 188.262M40.9269 176.212V160.688M39.271 170.52V163.999L38.443 164.48M39.271 170.52L32.8542 174.453V173.625M39.271 170.52L38.443 170.106M38.443 170.106V164.48M38.443 170.106L32.8542 173.625M38.443 164.48L32.8542 167.725V172.693M32.8542 173.625V172.693M32.8542 172.693L34.8206 171.555V166.584M112.982 187.907L117.41 185.353M112.982 187.907L108.199 185.145M92.4678 176.936L93.0888 176.419L95.4692 177.794M92.4678 176.936L94.7447 178.385L92.4678 179.715M92.4678 176.936V179.715M88.742 170.106V162.654L63.903 177.04L71.7865 181.594M88.742 170.106L83.1532 173.416M88.742 170.106L90.0874 169.381M72.4931 182.002V179.731L72.7001 179.608M72.4931 182.002L72.8615 182.215M72.4931 182.002L71.7865 181.594M92.4678 179.715L80.5658 186.665L78.2366 185.32M78.2366 185.32V183.871L95.4692 173.832M78.2366 185.32L77.6679 184.991M95.4692 173.832V174.349M95.4692 173.832L95.1587 173.418L91.7676 175.384M95.4692 177.794L96.8523 178.592M95.4692 177.794V175.074M96.8523 178.592V175.901M96.8523 178.592L98.9881 179.826M96.8523 175.901L95.4692 175.074M96.8523 175.901L104.059 171.658V175.487M95.4692 175.074V174.349M104.059 175.487L103.128 174.867L102.61 175.177M104.059 175.487L104.784 175.946M98.9881 179.826V177.35L100.334 176.543M98.9881 179.826L100.334 180.603M102.61 175.177V181.918M102.61 175.177L100.334 176.543M102.61 181.918L100.334 180.603M102.61 181.918L103.542 182.456M100.334 176.543V180.603M107.164 184.547V179.213M107.164 184.547L108.199 185.145M107.164 184.547L106.44 184.129M112.546 169.485V175.074M112.546 169.485L112.132 169.716M112.546 169.485L113.064 169.787M112.546 176.108L118.031 179.11V178.178M112.546 176.108L107.164 179.213M112.546 176.108V182.629M107.164 179.213V178.282M112.546 182.629L117.41 185.353M112.546 182.629L108.199 185.145M117.41 185.353L122.896 182.189M106.44 184.129V181.697L103.542 180.041V182.456M106.44 184.129L103.542 182.456M107.164 177.454V172.486L109.131 171.389M107.164 177.454L104.784 175.946M107.164 177.454V178.282M107.164 177.454L109.131 176.212V171.389M109.441 165.692L104.784 168.45L98.8386 165.034M98.8386 165.034V158.618L98.1601 159.033M98.8386 165.034L98.1601 164.645M93.4338 161.93L94.8482 161.063M93.4338 161.93L94.8482 162.742M94.8482 161.063V162.742M94.8482 161.063L95.4692 160.682M94.8482 162.742L95.4692 163.099M95.4692 160.682V163.099M95.4692 160.682L97.6426 159.351M95.4692 163.099L97.6426 164.347M98.1601 159.033V164.645M98.1601 159.033L97.6426 159.351M98.1601 164.645L97.6426 164.347M97.6426 164.347V159.351M76.5295 148.475L91.4329 157.17M76.5295 148.475L59.6596 158.411M76.5295 148.475V144.025M59.6596 158.411L53.4499 154.892M59.6596 158.411L76.9435 168.553L86.7756 162.856M53.4499 154.892L52.001 154.167L51.2765 154.685M88.0175 162.137L86.7756 162.856M40.9269 160.688L41.6514 160.377L43.7213 161.557M47.8611 175.591L44.6527 177.557L44.3423 177.642M47.8611 175.591V174.556M44.3423 177.642V165.177M44.3423 165.177L45.0262 165.552M45.0262 165.552V168.45L47.5506 166.934M45.0262 165.552L47.5506 166.934M47.5506 166.934L47.8611 167.104V167.415M47.8611 170.623L45.0262 172.383V169.278L47.8611 167.415M47.8611 170.623V167.415M47.8611 170.623V171.451M47.8611 174.556L45.0262 176.212V173.107L47.8611 171.451M47.8611 174.556V171.451M67.9393 164.31L58.4177 170.002L66.4904 174.66L67.9393 173.809M67.9393 164.31L76.012 169.071L72.9071 170.893M67.9393 164.31V173.809M67.9393 173.809L71.2512 171.865M71.2512 171.865V170.002L72.9071 170.893M71.2512 171.865L72.9071 170.893M72.8615 182.215V180.041L90.7084 169.692M72.8615 182.215L77.6679 184.991M90.7084 169.692V163.099L91.3294 163.457M90.7084 169.692V175.998M100.334 173.211L103.645 171.348M100.334 173.211L97.7461 174.672M100.334 173.211V171.037M95.4692 174.349L96.8523 175.177L96.9499 175.122M77.6679 184.991V183.56L90.7084 175.998M91.3294 163.457V175.638M91.3294 163.457L91.7676 163.71M91.3294 175.638L90.7084 175.998M91.3294 175.638L91.7676 175.384M71.7865 181.594V179.006M76.219 177.524V172.486L74.563 173.453M76.219 177.524L74.563 178.505M76.219 177.524L79.0134 175.869M72.7001 179.608L71.7865 179.006M72.7001 179.608L73.192 179.317M71.7865 179.006V178.385M73.192 179.317L71.7865 178.385M73.192 179.317L74.563 178.505M71.7865 178.385V175.074L71.9136 174.999M74.563 178.505V176.626L71.9136 174.999M71.9136 174.999L74.563 173.453M72.4931 174.66L74.563 176.005V173.453M79.0134 175.869L82.2774 173.935M79.0134 175.869V175.177M83.1532 173.416V168.553L79.0134 170.893V171.348M83.1532 173.416L82.2774 173.935M82.2774 173.935V173.247L79.0134 175.177M79.0134 175.177V174.556M79.0134 174.556L82.2217 172.59V169.485L79.0134 171.348M79.0134 174.556V171.348M122.896 182.189V175.384L123.928 176.001M122.896 182.189L123.928 181.594M128.691 178.847L127.295 179.652M128.691 178.847L127.295 178.012M126.725 179.981V177.672M126.725 179.981L127.295 179.652M126.725 179.981L124.646 181.18M126.725 177.672L127.295 178.012M126.725 177.672L124.646 176.43M127.295 179.652V178.012M124.646 181.18V176.43M124.646 181.18L123.928 181.594M124.646 176.43L123.928 176.001M123.928 181.594V176.001M112.546 175.074L107.164 178.282M112.546 175.074L118.031 178.178M109.131 171.389L109.648 171.101M109.648 171.101V176.108L112.132 174.66V169.716M109.648 171.101L112.132 169.716M113.064 169.787V174.556L115.444 175.946V171.18M113.064 169.787L115.444 171.18M115.444 171.18L116.065 171.543M116.065 171.543L118.031 172.693V177.454M116.065 171.543L115.961 176.315L118.031 177.454M118.031 177.454V178.178M91.7676 175.384V166.173M91.7676 163.71L100.334 168.657V169.071M91.7676 163.71V164.206M91.7676 164.206L100.334 169.071M91.7676 164.206V165.345M100.334 169.071V170.313M97.7461 174.672V169.381M97.7461 174.672L97.348 174.897M97.7461 169.381L100.334 171.037M97.7461 169.381L97.348 168.967M100.334 171.037V170.313M100.334 170.313L91.7676 165.345M91.7676 165.345V165.759M96.9499 175.122V169.174L91.7676 166.173M96.9499 175.122L97.348 174.897M91.7676 166.173V165.759M97.348 174.897V168.967M97.348 168.967L91.7676 165.759M51.2765 154.685L67.2148 163.896L57.5897 169.485L51.2765 165.862M51.2765 154.685V165.862M51.2765 165.862L48.5856 164.329M46.4639 163.12L47.8611 163.916M46.4639 163.12L46.0099 162.861M46.4639 163.12L46.5423 163.091M48.5856 164.329V162.344L47.8611 162.609M48.5856 164.329L47.8611 163.916M47.8611 163.916V162.609M47.8611 162.609L47.6856 162.673M47.6856 162.673V159.135L47.0748 159.508M47.6856 162.673L47.0748 162.896M43.7213 161.557L46.0099 162.861M43.7213 161.557L46.0099 160.159M46.0099 162.861V160.159M46.0099 160.159L46.5423 159.834M47.0748 162.896V159.508M47.0748 162.896L46.5423 163.091M47.0748 159.508L46.5423 159.834M46.5423 159.834V163.091M65.0414 148.682L64.9379 142.058L64.2135 142.493M65.0414 148.682L60.1771 151.58L60.1915 150.648M65.0414 148.682L64.11 148.372M60.1915 150.648L64.11 148.372M60.1915 150.648L60.1994 150.131M64.11 148.372L64.2135 142.493M64.2135 142.493L63.5925 142.866M62.247 148.889L60.1994 150.131M62.247 148.889L63.5925 147.958V142.866M62.247 148.889V143.673M60.1994 150.131L60.2806 144.853L62.247 143.673M63.5925 142.866L62.247 143.673M70.9407 188.424V184.475M70.9407 188.424L64.11 192.504M70.9407 184.475L64.11 180.411M64.11 192.504V180.411M106.44 180.973V177.794L103.542 176.108V179.213L106.44 180.973Z" stroke="#D4D4D4" stroke-width="0.5"/>
<path d="M135.522 97.5556V113.701L87.5002 141.645L87.2932 141.527M135.522 97.5556L123.931 82.6522L112.753 84.5151L104.991 89.0689L104.285 88.6638M135.522 97.5556L124.448 103.869V103.351L107.268 100.453L87.3967 125.81M84.6023 139.989L77.1506 144.336L43.1004 124.672M84.6023 139.989L87.2932 141.527M84.6023 139.989L85.8443 139.057L85.2233 138.643M43.1004 124.672L36.3732 128.604L35.5452 128.087M43.1004 124.672L41.962 123.844L42.583 123.326M35.5452 128.087L28.197 132.33L28.0935 132.27M35.5452 128.087L36.7872 127.259L36.1662 126.741M1.18459 115.667L0.460114 116.185L28.0935 132.27M1.18459 115.667V111.321M1.18459 115.667L1.28808 115.727M8.84328 106.456V96.9346M8.84328 106.456L3.66374 109.466M8.84328 106.456V111.114M90.2946 67.7488L87.7072 69.7152L72.9073 61.2053M90.2946 67.7488L91.5365 66.0929L95.3931 71.0607M90.2946 67.7488L92.3275 70.3362M99.4022 85.8606L100.748 86.633M99.4022 85.8606L99.3825 84.8256M99.4022 85.8606L90.1911 80.4788L99.1992 75.2005M87.3967 125.81L87.2932 141.527M87.3967 125.81L50.6556 104.343M36.2697 112.562L50.5521 104.283L50.6556 104.343M36.2697 112.562H35.5452L22.5047 95.4857L8.84328 96.9346M36.2697 112.562L36.201 121.981M8.84328 96.9346V96.5206L71.1478 60.1936L72.9073 61.2053M36.1662 126.741L36.201 121.981M36.1662 126.741L33.4753 128.225M104.577 90.8284H105.198L112.546 86.6006M104.577 90.8284V100.862M104.577 90.8284L103.097 89.9644M86.6722 80.3753L88.5351 81.4629M86.6722 80.3753L87.0305 80.1683M86.6722 80.3753L82.9464 75.718M86.7757 73.4411L92.3275 70.3362M86.7757 73.4411L83.3985 75.4491M86.7757 73.4411L83.3603 71.4072M77.5646 79.3403V67.9558L78.1856 68.3256M77.5646 79.3403H77.1506L76.5296 78.7194L72.5968 76.3115M77.5646 79.3403L78.1856 79.5032M54.7955 71.8886L64.8346 70.5432L67.008 73.1306L71.4583 75.6145L72.5968 76.3115M54.7955 71.8886L72.5968 61.3884M54.7955 71.8886L53.7169 72.5096M72.9073 61.2053L72.5968 61.3884M72.5968 61.3884V76.3115M88.5351 81.4629L83.8778 80.9963L82.8973 80.7391M88.5351 81.4629L88.8456 81.6442M113.995 118.358L110.787 120.221V118.979M113.995 118.358V113.183L112.857 113.808M113.995 118.358L112.857 117.737M112.857 117.737V113.808M112.857 117.737L110.787 118.979M112.857 113.808L110.787 114.943V118.979M123.827 102.297L123.62 102.42L112.507 100.557M123.827 102.297V96.1067L124.5 96.5078M123.827 102.297L124.5 101.899M129.034 99.2115L132.003 97.4521V96.3136L122.378 83.7907L112.753 85.4466V86.4815L112.546 86.6006M129.034 99.2115L126.725 100.58M129.034 99.2115L125.173 96.9089M126.725 100.58V97.8346M126.725 100.58L125.124 101.529M52.5186 73.1996V81.8242M52.5186 73.1996L34.1235 83.7907M52.5186 73.1996L53.7169 72.5096M52.5186 81.8242L49.5172 83.5837M52.5186 81.8242L55.6234 83.7907M49.5172 83.5837V78.4089L48.8962 78.7843M49.5172 83.5837L48.948 83.266M49.5172 83.5837L52.735 85.5501M45.0669 81.0998L42.9969 79.9613L42.4795 80.2718M45.0669 81.0998L48.3787 82.9482M45.0669 81.0998L48.3787 79.0972M42.4795 80.2718V82.4452M42.4795 80.2718L52.0011 85.7571L48.8055 87.62M42.4795 82.4452L44.7564 82.3417L48.8055 87.62M42.4795 82.4452L34.1235 83.7907M57.7969 94.1402L52.5186 91.0487M57.7969 94.1402L59.0388 92.5408M57.7969 94.1402L57.471 94.5542M65.4556 85.8606L64.6276 85.3431L62.6185 87.9305M65.4556 85.8606L52.4151 102.701M65.4556 85.8606V87.62M52.4151 102.701L51.4836 102.16M52.4151 102.701L65.4556 110.28M51.4836 102.16L51.6906 101.897M51.4836 102.16L51.0696 101.919M51.6906 101.897V99.2115L47.7578 96.9346V103.583M51.6906 101.897L57.471 94.5542M47.7578 103.583L48.5857 103.107M47.7578 103.583L42.0137 106.882M48.5857 103.107L50.8626 101.799L51.0696 101.919M48.5857 103.107V98.1766L51.0696 99.522V101.919M42.0137 106.882L36.2697 110.182L30.2669 102.45M42.0137 106.882L40.6165 105.732M40.6165 105.732L40.513 92.8983L36.8907 90.7249L36.7872 103.248M40.6165 105.732L36.7872 103.248M36.7872 103.248L36.4767 103.558L32.4404 101.178M32.4404 101.178L30.2669 102.45M32.4404 101.178V84.7597M30.2669 102.45L24.0572 94.4507L13.8111 95.4857L32.4404 84.7597M32.4404 84.7597L33.5165 84.1402M34.1235 83.7907L33.5165 84.1402M48.8055 87.62L49.2067 88.143M49.2067 88.143L50.5521 89.8969L52.5186 91.0487M49.2067 88.143L52.5186 86.1711M52.5186 86.1711V91.0487M52.5186 86.1711L59.0388 89.8969M59.7633 90.3109L61.6542 89.1724M59.7633 90.3109V91.6077M59.7633 90.3109L59.0388 89.8969M61.6542 89.1724L59.7633 91.6077M61.6542 89.1724L62.417 88.19M59.7633 91.6077L59.0388 92.5408M59.0388 89.8969V92.5408M65.4556 110.28L66.801 111.062M65.4556 110.28V96.5206M104.577 100.862L105.715 99.4185L107.317 99.6869M104.577 100.862L103.128 102.7M103.097 89.9644L102.714 89.7408M103.097 89.9644L103.128 102.523M103.128 102.7L103.128 102.523M103.128 102.7L102.859 103.041M107.317 99.6869V99.315M107.317 99.6869L112.507 100.557M112.546 89.6899V86.6006M112.546 89.6899L112.443 89.7493M112.546 89.6899L113.004 89.9453M112.546 96.1067L117.928 99.315V98.3836M112.546 96.1067L107.317 99.315M112.546 96.1067L112.507 100.557M107.317 99.315V98.2317M109.027 91.7095L107.317 92.6913V97.3954M109.027 91.7095V96.2101L107.317 97.3954M109.027 91.7095L109.841 91.2423M107.317 97.3954V98.2317M107.317 98.2317L112.443 95.1752M112.443 95.1752V89.7493M112.443 95.1752L117.928 98.3836M112.443 89.7493L112.029 89.9869M109.841 91.2423V96.1067L112.029 94.7612V89.9869M109.841 91.2423L112.029 89.9869M113.004 89.9453V94.5542L115.134 95.7962V91.1329M113.004 89.9453L115.134 91.1329M115.134 91.1329L116.169 91.7101M117.928 98.3836V97.4521M117.928 97.4521V92.6913L116.169 91.7101M117.928 97.4521L116.169 96.3136V91.7101M125.124 101.529L125.173 96.9089M125.124 101.529L124.5 101.899M125.173 96.9089L124.5 96.5078M124.5 96.5078V101.899M102.714 89.7408L94.4666 88.6638M102.714 89.7408L88.8456 81.6442M93.6064 88.5515L93.503 96.9346L96.9183 98.9178M93.6064 88.5515L93.1925 88.241L92.5715 88.5515V96.4171L91.5803 96.9991M93.6064 88.5515L94.4666 88.6638M103.128 102.523L101.345 101.488M99.105 107.802V100.862M99.105 107.802L100.23 106.375M99.105 107.802L96.0632 111.659M99.105 100.862L102.859 103.041M99.105 100.862L98.9882 100.764L88.2247 107.077L96.0632 111.659M102.859 103.041L101.635 104.593M100.23 106.375V103.765L101.635 104.593M100.23 106.375L101.635 104.593M96.0632 111.659L95.6764 112.15M92.882 97.2451L88.2247 99.936L92.882 102.802M92.882 97.2451L98.4708 100.557L96.4481 101.676M92.882 97.2451V102.802M92.882 102.802L93.6064 103.248L94.1239 102.962M94.1239 102.962V100.039L96.4481 101.676M94.1239 102.962L94.8484 102.561M96.4481 101.676L94.8484 102.561M94.8484 102.561V100.557M28.0935 131.192V132.27M28.0935 131.192V126.741M28.0935 131.192L33.4753 128.225M28.0935 131.192L22.6421 128.047M28.0935 126.741L33.4753 123.581M28.0935 126.741L22.6421 123.581M36.201 121.981L33.4753 123.581M36.201 121.981L35.6487 121.774L30.4739 124.822M33.4753 123.581V128.225M6.66987 118.832L12.0517 121.937M6.66987 118.832L1.28808 115.727M6.66987 118.832V117.013M6.66987 114.322L4.96754 113.39M6.66987 114.322V114.943M6.66987 114.322L8.8654 115.595M1.18459 111.321V110.907L1.5408 110.7M1.18459 111.321L3.66374 112.677M22.6421 123.581V128.047M22.6421 123.581L17.4334 120.562M22.6421 128.047L17.4334 125.042M17.4334 125.042V120.562M17.4334 125.042L12.0517 121.937M17.4334 120.562L12.0517 117.442M12.0517 117.442V121.937M12.0517 117.442L8.8654 115.595M1.5408 110.7L3.66374 111.941M1.5408 110.7L3.66374 109.466M1.28808 115.727L3.66374 114.218M4.96754 113.39L3.66374 114.218M4.96754 113.39L3.66374 112.677M3.66374 114.218V112.677M3.66374 111.941V109.466M3.66374 111.941L5.53141 113.033M5.53141 113.033L8.84328 111.114M5.53141 113.033L7.70483 114.303M8.84328 111.114L10.6027 112.459M10.6027 112.459L10.7062 114.011M10.6027 112.459L9.56775 113.118M7.70483 114.303L9.56775 113.118M7.70483 114.303L9.36076 115.272M10.7062 114.011L9.56775 113.118M10.7062 114.011L11.1878 114.265M16.3985 117.013L30.1634 125.005M16.3985 117.013V116.806M16.3985 117.013L11.1878 114.265M30.4739 124.822L30.1634 125.005M30.4739 124.822V124.154M30.1634 125.005L28.0935 126.224L9.36076 115.272M16.3985 116.806V103.972L17.123 104.398M16.3985 116.806L17.123 116.392M17.123 116.392V104.398M17.123 116.392L30.4739 124.154M17.123 104.398L17.982 104.904M17.982 104.904V115.978L21.0558 117.737V106.712M17.982 104.904L21.0558 106.712M21.0558 106.712L21.9873 107.26M30.4739 124.154V123.43M30.4739 123.43V112.252L26.0236 109.634M30.4739 123.43L26.0236 120.842V109.634M26.0236 109.634L25.1956 109.147M25.1956 109.147V120.221L21.9873 118.255V107.26M25.1956 109.147L21.9873 107.26M6.66987 116.909L5.22093 115.874L6.66987 114.943M6.66987 116.909V114.943M6.66987 116.909V117.013M6.66987 117.013L8.8654 115.595M9.36076 115.272L11.1878 114.265M42.583 123.326V118.772M42.583 123.326L47.8612 126.36M42.583 118.772L42.2725 118.462L42.6865 118.255L44.7564 119.458M42.583 118.772L44.8217 120.077M77.0471 138.85V143.138M77.0471 138.85L74.9153 137.608M77.0471 138.85L79.9009 137.194M85.2233 138.643V134.106M85.2233 138.643L82.5324 140.161M85.2233 134.106L85.4303 133.986L85.0163 133.676L82.8429 134.918M85.2233 134.106L82.5324 135.668M82.5324 140.161L77.1506 143.197L77.0471 143.138M82.5324 140.161V138.747M82.5324 135.668L81.3279 136.367M82.5324 135.668V136.988M77.0471 143.138L74.9153 141.912M74.9153 137.608V141.912M74.9153 137.608L69.5326 134.473M74.9153 141.912L69.5326 138.818M69.5326 134.473V138.818M69.5326 134.473L64.1101 131.314M69.5326 138.818L64.1101 135.701M64.1101 131.314V135.701M64.1101 131.314L58.8318 128.239M64.1101 135.701L58.8318 132.667M58.8318 128.239V132.667M58.8318 128.239L53.3465 125.043M58.8318 132.667L53.3465 129.513M53.3465 125.043V129.513M53.3465 125.043L47.8612 121.847M53.3465 129.513L47.8612 126.36M47.8612 121.847V126.36M47.8612 121.847L47.2019 121.463M44.8217 120.077L46.0425 120.788M44.8217 120.077V121.722M46.6193 121.124L45.0669 122.291L44.8217 122.084V121.722M46.6193 121.124L46.0425 120.788M46.6193 121.124L47.2019 121.463M46.0425 120.788L44.8217 121.722M45.3773 122.602L47.2019 121.463M44.7564 119.458V110.755L47.4473 109.183M44.7564 119.458L46.6193 120.541M49.1032 121.088V108.216L48.4822 108.578M49.1032 121.088L48.4822 120.635M49.1032 121.088L50.6556 120.325M48.4822 120.635L47.6848 121.16M48.4822 120.635V108.578M47.6848 121.16L77.0471 138.229L79.324 136.928M47.6848 121.16L47.2403 120.902M48.4822 108.578L48.0682 108.82M47.2403 120.902L48.0682 120.325V108.82M47.2403 120.902L46.6193 120.541M48.0682 108.82L47.4473 109.183M46.6193 120.541L47.4473 120.014V109.183M50.6556 120.325V104.343M50.6556 120.325L52.4151 121.256M52.4151 121.256V108.351L53.036 108.714M52.4151 121.256L61.9367 126.845M52.4151 121.256L53.1395 120.842M61.9367 126.845V125.913M61.9367 126.845L68.7183 130.778M53.1395 120.842L53.036 108.714M53.1395 120.842L61.9367 125.913M53.036 108.714L53.6011 109.044M53.6011 109.044V120.482L55.9339 121.981V110.405M53.6011 109.044L55.9339 110.405M55.9339 110.405L56.6161 110.803M56.6161 110.803L56.5549 122.395L59.2458 123.947V112.338M56.6161 110.803L59.2458 112.338M59.2458 112.338L59.8668 112.7M61.9367 125.913V125.292M61.9367 125.292V113.908L59.8668 112.7M61.9367 125.292L59.8668 124.051V112.7M79.324 136.928L80.1993 136.428M79.324 136.928L68.7183 130.778M79.9009 137.194L82.5324 138.747M79.9009 137.194L80.8414 136.649M82.5324 138.747V137.712M80.8414 136.649L82.5324 137.712M80.8414 136.649L81.3279 136.367M82.5324 137.712V136.988M80.1993 136.428L69.6989 130.157M80.1993 136.428L80.8414 136.061M69.6989 130.157L68.8358 130.703M69.6989 130.157V118.392M68.7183 130.778L68.8358 130.703M68.8358 130.703V117.892L69.6989 118.392M82.8429 134.918V126.017L78.5995 123.555M82.8429 134.918L80.8414 136.061M81.3279 136.367L82.5324 136.988M80.8414 136.061L78.5995 134.504V123.555M78.5995 123.555L77.6681 123.015M77.6681 123.015V133.986L74.5632 132.123V121.214M77.6681 123.015L74.5632 121.214M74.5632 121.214L73.6317 120.674M73.6317 120.674V131.399L70.4234 129.743V118.813M73.6317 120.674L70.4234 118.813M70.4234 118.813L69.6989 118.392M88.9547 120.674L87.1897 122.912L86.6722 122.611M88.9547 120.674V110.389L92.5715 112.459V116.087M88.9547 120.674L89.7197 119.704M92.5715 116.087L92.0048 116.806M92.5715 116.087L95.6764 112.15M92.0048 116.806L89.6736 115.564L89.7197 119.704M92.0048 116.806L89.7197 119.704M86.6722 122.611V121.981M86.6722 122.611L81.1869 119.423M82.9464 119.704V106.974L86.6722 109.044V121.981M82.9464 119.704L86.6722 121.981M82.9464 119.704H82.4289L81.6009 118.979M81.6009 118.979L81.1869 119.423M81.6009 118.979V103.93M81.1869 119.423L75.5982 116.175M81.6009 103.93L95.6764 112.15M81.6009 103.93L67.9577 111.735M71.2981 113.676V111.942L75.5982 109.458V116.175M71.2981 113.676L71.8723 114.01M71.2981 113.676L67.9577 111.735M75.5982 116.175L74.8371 115.733M74.8371 115.733V114.529L73.8342 115.15M74.8371 115.733L73.8342 115.15M73.8342 115.15L73.2177 114.792M73.2177 114.792L74.8371 113.804V110.493L71.8723 112.252V114.01M73.2177 114.792L71.8723 114.01M67.9577 111.735L67.215 111.303M67.215 111.303L81.7842 102.75M67.215 111.303L66.801 111.062M87.5002 106.767L92.882 103.558L87.5002 100.453M87.5002 106.767L82.1184 103.558L87.5002 100.453M87.5002 106.767V100.453M91.2633 97.1851H90.7086L90.8121 86.378L91.5803 86.8585M91.2633 97.1851L91.5803 96.9991M91.2633 97.1851L89.3631 98.3006M94.4666 88.6638L91.5803 86.8585M91.5803 96.9991V86.8585M104.285 88.6638L109.545 85.5501V82.7557M104.285 88.6638L101.746 87.206M109.545 82.7557L110.062 82.4452V82.0312L109.131 81.6925M109.545 82.7557L101.746 87.206M108.924 81.6172V79.4438M108.924 81.6172L109.131 81.6925M108.924 81.6172L106.916 80.5635M108.924 79.4438L109.441 79.0298L95.3931 71.0607M108.924 79.4438L106.916 80.5635M95.3931 71.0607L95.9869 71.8255M101.746 87.206L100.748 86.633M100.748 86.633L103.542 84.9861M109.131 81.6925L103.542 84.9861M103.542 84.9861V82.4452M103.542 82.4452L99.3825 84.8256M103.542 82.4452L106.916 80.5635M99.3825 84.8256L99.37 84.1691M99.37 84.1691L101.491 82.9627M99.37 84.1691L99.3223 81.6634M95.9869 71.8255L97.6428 73.9585L99.1952 74.9935L99.1992 75.2005M95.9869 71.8255L108.406 79.0298L106.258 80.2514M101.491 82.9627L99.3223 81.6634M101.491 82.9627L104.039 81.5137M99.3223 81.6634L99.265 78.6543M104.039 81.5137L99.265 78.6543M104.039 81.5137L104.403 81.3068M99.265 78.6543L99.2549 78.1276M104.403 81.3068L99.2549 78.1276M104.403 81.3068L106.258 80.2514M99.2549 78.1276L99.2176 76.1677M106.258 80.2514L99.2176 76.1677M99.2176 76.1677L99.1992 75.2005M101.345 101.488V94.6577L96.9183 97.1416V98.9178M101.345 101.488L100.488 100.991M96.9183 98.9178L97.4241 99.2115M97.4241 99.2115V97.5556L100.437 95.8997V99.108L98.7812 99.9996M97.4241 99.2115L98.7812 99.9996M98.7812 99.9996L99.3847 100.35M100.488 100.991V99.729L99.3847 100.35M100.488 100.991L99.3847 100.35M81.7842 102.75L82.6359 101.902V101.385M81.7842 102.75L89.3631 98.3006M81.7842 102.75L81.7846 102.335M81.8079 80.4533L81.8077 80.6858M81.8079 80.4533L82.392 80.6065M81.8079 80.4533L78.566 79.603M86.8792 99.108L86.9827 86.378L86.6293 86.585M86.8792 99.108L88.8456 98.1766M86.8792 99.108L86.5687 99.2746M82.6359 101.385V100.35M82.6359 101.385L86.5687 99.2746M88.8456 98.1766L89.3631 98.3006M88.8456 98.1766V81.6442M82.6359 92.6913V88.9241L85.8443 87.0449M82.6359 92.6913L85.8443 90.6214V87.0449M82.6359 92.6913V93.3123M85.8443 87.0449L86.6293 86.585M82.6359 96.4171L85.8443 94.5542V91.3458L82.6359 93.3123M82.6359 96.4171V93.3123M82.6359 96.4171V97.0381M82.6359 100.35L85.8443 98.3836V95.1752L82.6359 97.0381M82.6359 100.35V97.0381M81.8077 80.6858L79.324 80.3753L76.9436 79.7543L74.7702 78.6159M81.8077 80.6858L81.7846 102.335M74.7702 78.6159L66.801 73.9585L64.2136 71.0607L53.7169 72.5096M74.7702 78.6159V98.4871M74.7702 98.4871L73.9422 98.0731M74.7702 98.4871L75.3498 98.901M75.4947 100.039V99.0045L75.3498 98.901M75.4947 100.039L76.8401 100.971M75.4947 100.039L71.9946 102.213M76.8401 100.971V102.109M76.8401 100.971L72.6769 103.301M76.8401 102.109L78.1856 102.937M76.8401 102.109L73.2281 104.179M78.1856 102.937L73.9422 105.318M78.1856 102.937V103.144M68.9744 109.458L66.801 108.216M68.9744 109.458L73.9422 106.555M68.9744 109.458V108.216M66.801 108.216V111.062M66.801 108.216V105.835M66.801 93.9332V95.2787M66.801 93.9332L66.1174 92.9342M66.801 93.9332L69.9059 92.0703M66.801 93.9332L67.4685 94.9973M65.4556 91.9668V94.0367M65.4556 91.9668V91.6563M65.4556 91.9668L66.1174 92.9342M65.4556 96.5206L66.387 95.6608M65.4556 96.5206V94.0367M66.801 95.2787L66.387 95.6608M66.801 95.2787V96.6241M66.801 95.2787L67.4685 94.9973M66.387 95.6608L65.4556 94.0367M57.471 94.5542L50.0347 90.2074L44.2389 82.7557L33.5165 84.1402M65.4556 87.62L68.6639 89.7934M65.4556 87.62V91.6563M68.6639 89.7934V90.0004L69.9059 90.8284M68.6639 89.7934L65.4556 91.6563M69.9059 90.8284V92.0703M69.9059 90.8284L66.1174 92.9342M69.9059 92.0703L71.1478 92.8983M71.1478 92.8983V94.0367M71.1478 92.8983L67.4685 94.9973M71.1478 94.0367L72.5968 94.9682M71.1478 94.0367L68.0994 96.0032M72.5968 94.9682V96.1067M72.5968 94.9682L68.7791 97.0868M72.5968 96.1067L73.9422 97.0381M72.5968 96.1067L69.3677 98.025M73.9422 97.0381V98.0731M73.9422 97.0381L70.0647 99.1363M73.9422 98.0731L70.6962 100.143M73.9422 106.555L78.1856 104.076V103.144M73.9422 106.555V105.318M73.9422 105.318L68.9744 108.216M73.9422 105.318L73.2281 104.179M68.9744 108.216L67.629 107.388M67.629 107.388V106.249M67.629 107.388L73.2281 104.179M67.629 106.249L66.801 105.835M67.629 106.249L72.6769 103.301M66.801 105.835V105.214M73.2281 104.179L72.6769 103.301M72.6769 103.301L71.9946 102.213M66.801 105.214L71.9946 102.213M66.801 105.214V103.869M71.9946 102.213L71.3695 101.216M92.3275 70.3362L92.675 70.7784M92.7785 76.8472L95.9869 74.9935L92.7785 70.9101M92.7785 76.8472V70.9101M92.7785 76.8472L87.0305 80.1683M92.7785 70.9101L92.675 70.7784M92.675 70.7784L83.9813 75.8215L87.0305 80.1683M82.9464 75.718L83.3985 75.4491M82.9464 75.718L82.8973 80.7391M83.3985 75.4491L83.3603 71.4072M83.3603 71.4072L82.4308 70.8537M82.392 80.6065L82.4308 70.8537M82.392 80.6065L82.8973 80.7391M82.4308 70.8537L78.566 68.5521M78.566 79.603V68.5521M78.566 79.603L78.1856 79.5032M78.566 68.5521L78.1856 68.3256M78.1856 68.3256V79.5032M48.3787 82.9482V79.0972M48.3787 82.9482L48.948 83.266M48.3787 79.0972L48.8962 78.7843M48.948 83.266L48.8962 78.7843M55.6234 83.7907L57.0724 82.9627L57.4864 83.3767M55.6234 83.7907L52.735 85.5501M57.4864 83.3767L53.243 85.8606M57.4864 83.3767L57.4942 84.8256M53.243 85.8606L52.735 85.5501M53.243 85.8606L55.2796 87.0243M62.417 88.19L59.7633 89.5864L57.5128 88.3004M62.417 88.19L62.6185 87.9305M57.5128 88.3004L55.2796 87.0243M57.5128 88.3004L57.4989 85.7069M55.2796 87.0243L57.4989 85.7069M57.4989 85.7069L57.4942 84.8256M57.4942 84.8256L62.6185 87.9305M67.4685 94.9973L68.0994 96.0032M68.0994 96.0032L68.7791 97.0868M68.0994 96.0032L66.801 96.6241M68.7791 97.0868L66.801 98.1766M68.7791 97.0868L69.3677 98.025M66.801 98.1766V96.6241M66.801 98.1766V99.522M66.801 103.869L71.3695 101.216M66.801 103.869V102.316M71.3695 101.216L75.3498 98.901M71.3695 101.216L70.6962 100.143M70.6962 100.143L66.801 102.316M70.6962 100.143L70.0647 99.1363M66.801 102.316V101.074M66.801 101.074L70.0647 99.1363M66.801 101.074V99.522M70.0647 99.1363L69.3677 98.025M66.801 99.522L69.3677 98.025M81.7846 102.335L81.2904 102.627L80.566 102.937L79.738 103.144H78.8065H78.1856M86.6293 86.585L86.5687 99.2746M89.7197 111.528V114.736L92.0663 116.087V112.769L89.7197 111.528ZM86.2582 120.532V117.323L83.8778 115.978V119.186L86.2582 120.532ZM86.2582 116.599L83.8778 115.046V111.942L86.2582 113.287V116.599ZM86.2582 112.562L83.8778 111.217V108.009L86.2582 109.354V112.562ZM39.9956 104.386V101.074L37.6152 99.729V103.041L39.9956 104.386ZM39.9956 100.35V97.1416L37.6152 95.7962V99.108L39.9956 100.35ZM39.9956 96.4171L37.6152 94.9682V91.8633L39.9956 93.2088V96.4171Z" stroke="#D4D4D4" stroke-width="0.5"/>
</svg>
