<svg width="241" height="212" viewBox="0 0 241 212" fill="none" xmlns="http://www.w3.org/2000/svg">
<path d="M83.9065 209.155L84.2389 209.004L84.793 208.006V207.231L83.9065 206.455L82.7985 207.009L82.4661 207.293M83.9065 209.155L80.3608 210.776H79.3636L79.0312 210.222L82.4661 207.293M83.9065 209.155L84.793 209.558L85.4578 209.479M82.4661 207.293V205.458L82.9552 205.015M85.4578 209.479L86.6766 209.336L92.8134 206.677M85.4578 209.479L85.901 209.004L86.0118 208.006V206.677L85.1254 205.458L84.0173 205.015H82.9552M82.9552 205.015L89.1143 199.433M92.8134 206.677L93.3248 206.455L94.7653 205.458V202.577L94.1004 201.137L92.5492 199.585L90.9979 198.81L89.5575 199.031L89.1143 199.433M92.8134 206.677L94.1004 207.009L95.3193 206.787L96.2057 206.389M89.1143 199.433V199.253V197.923L90.283 196.988M96.2057 206.389L97.5353 205.79L100.97 203.353L101.857 202.577L102.189 201.58V199.031L101.524 197.591L100.305 195.707L98.6434 194.156L97.2029 193.38L95.2085 193.824L92.8134 195.153L90.7763 196.594L90.283 196.988M96.2057 206.389V203.02L95.9841 201.912L95.4301 200.804L94.5437 199.433L93.4356 198.256L92.106 197.48L90.7763 197.037L90.283 196.988M106.178 197.314L105.624 197.591L104.738 197.369L103.851 196.988L103.74 197.369L104.294 198.256L105.513 198.81H106.621L107.397 197.923L107.558 196.877M106.178 197.314L106.51 197.148L106.76 196.483M106.178 197.314L105.292 196.815L104.516 196.04L103.74 195.153L103.408 194.156L103.186 193.269L103.275 192.051M103.275 192.051L103.63 191.829L104.161 192.051M103.275 192.051L102.743 192.383L102.078 193.824L101.524 192.826V191.497L102.521 190.389H103.519M106.76 196.483L106.843 196.261V195.153M106.76 196.483L105.956 195.929L105.181 195.153L104.516 193.824L104.294 192.826L104.161 192.051M104.161 192.051L104.959 192.383L105.07 192.494M106.843 195.153V194.821L106.067 193.491L105.07 192.494M106.843 195.153C106.621 194.968 106.156 194.599 106.067 194.599C105.979 194.599 105.587 194.008 105.402 193.713L105.181 193.048L105.07 192.494M107.558 196.877L107.618 196.483V196.372M107.558 196.877L108.616 197.037L109.791 196.815L110.389 196.04L110.499 195.264V195.042M103.519 190.389H103.74L104.627 190.866M103.519 190.389L103.63 190.056L103.962 189.613L104.405 189.17L104.959 188.948H105.846L106.233 189.059M107.618 196.372V194.156L106.51 192.383L105.181 191.164L104.627 190.866M107.618 196.372L108.172 196.04L108.837 195.486L109.059 194.599L108.837 193.38L108.172 192.494L107.397 191.497L106.51 190.499L105.846 190.278L105.292 190.389L104.627 190.866M110.339 193.824L110.389 193.934L110.499 194.821V195.042M110.339 193.824L109.791 192.605L109.059 191.497L108.172 190.389L107.397 189.613L106.621 189.17L106.233 189.059M110.339 193.824L111.053 194.045L111.607 193.824L111.94 193.38L111.829 192.605L110.943 191.053L110.056 189.835L109.28 188.948H108.837V189.613V189.945M106.233 189.059L106.289 188.394L106.621 187.84L107.175 187.508L107.951 187.286H108.726L108.948 187.444M110.499 195.042L110.832 195.264L111.386 195.486H111.94L112.605 195.042L113.048 194.488L113.159 193.824V193.325M113.159 193.325V192.826L112.715 191.718L112.051 190.389L110.721 188.948L110.389 188.646M113.159 193.325L113.491 193.602L114.045 193.934L114.71 193.824L115.264 193.491L115.707 193.159L116.039 192.494V191.718M108.948 187.444L109.502 187.84L110.389 188.646M108.948 187.444V186.843L109.059 186.511L109.502 185.956L109.945 185.513H111.497L111.718 185.646M110.389 188.646L110.167 187.951V187.397L110.339 186.954L110.721 186.732L111.386 186.954L112.383 187.729L113.048 188.394L113.713 189.17L114.045 189.724L114.267 190.499V191.164V191.829L114.045 192.161L113.602 192.051L113.159 191.607L112.715 190.866L112.272 190.278L112.051 189.502V188.837V188.283M116.039 191.718V190.61L115.995 190.499M116.039 191.718L116.483 191.94L117.148 192.161L117.702 191.829L118.145 191.275L118.543 190.866M118.543 190.866L118.699 190.389L118.81 190.056M118.543 190.866L118.477 190.61L118.366 189.945L118.145 189.17L117.702 188.394C117.628 188.173 117.48 187.707 117.48 187.619C117.48 187.53 117.184 187.212 117.037 187.065C116.815 186.769 116.372 186.156 116.372 186.067C116.372 185.956 115.818 185.513 115.818 185.402C115.818 185.314 115.301 185.07 115.042 184.959L114.821 184.405L114.835 184.386M118.81 190.056L119.253 190.167C119.364 190.204 119.607 190.278 119.696 190.278C119.785 190.278 119.955 190.13 120.028 190.056C120.139 189.982 120.361 189.812 120.361 189.724C120.361 189.635 120.509 189.17 120.582 188.948C120.582 188.8 120.582 188.483 120.582 188.394C120.582 188.306 120.509 187.988 120.472 187.84L120.25 187.286C120.213 187.175 120.139 186.932 120.139 186.843C120.139 186.732 119.918 186.289 119.918 186.178C119.918 186.067 119.585 185.624 119.585 185.513C119.585 185.425 119.216 184.959 119.031 184.738C118.883 184.553 118.566 184.184 118.477 184.184C118.366 184.184 117.812 183.408 117.702 183.408C117.613 183.408 117.295 183.186 117.148 183.076C117.074 183.039 116.904 182.943 116.815 182.854C116.726 182.765 116.483 182.669 116.372 182.632H114.599L114.267 183.076V183.408L114.156 183.74L114.045 184.073M118.81 190.056L119.253 189.835L119.364 189.17V188.173L119.031 187.84L118.81 186.843L118.699 186.289C118.551 186.104 118.256 185.713 118.256 185.624C118.256 185.535 117.886 185.218 117.702 185.07C117.443 184.922 116.926 184.605 116.926 184.516C116.926 184.427 116.483 184.11 116.261 183.962L115.707 183.851L115.153 183.962L114.835 184.386M114.045 184.073L113.823 184.294H112.383L112.051 184.405L111.829 184.627L111.718 185.181V185.646M114.045 184.073L114.835 184.386M111.718 185.646L111.829 185.713M115.995 190.499L115.818 190.056L115.596 189.281L114.931 188.394L114.377 187.508L113.602 186.732L112.715 186.178L112.051 185.846L111.829 185.713M115.995 190.499H116.372L116.704 190.389L116.815 189.945V189.281L116.704 188.948L116.372 188.394L116.15 187.84C116.039 187.655 115.796 187.264 115.707 187.175C115.618 187.087 115.301 186.695 115.153 186.511C114.931 186.363 114.488 186.045 114.488 185.956C114.488 185.868 114.119 185.698 113.934 185.624L113.269 185.513H112.494L111.829 185.713M127.12 173.103L127.231 172.217L128.228 171.61M127.12 173.103L125.125 174.433L123.02 175.541L121.58 176.76L120.582 177.425L119.918 178.865V180.749L120.139 182.3L121.026 183.74L122.244 185.513L123.796 186.511L125.458 186.954L126.898 186.843L128.893 185.956L133.103 183.076H134.433L135.347 182.743M127.12 173.103H127.895H128.893H130.001L131.109 173.436L132.328 174.433L133.325 175.541L134.1 176.981L134.433 178.089V179.53V180.638L133.879 181.635L133.325 182.3M121.247 180.638L121.58 179.53L121.912 178.865L123.131 178.754L124.128 178.865L125.125 179.752L125.901 180.97L126.566 181.857V183.186V184.627L126.233 185.402L125.458 185.713L124.461 185.646L123.353 184.627L122.244 183.74L121.912 183.076M122.909 177.203L123.907 177.425L125.125 178.2L125.901 179.087L126.898 180.195L127.452 181.635L127.674 182.854V184.294V185.181L127.231 185.956M124.128 176.317L125.125 176.538L126.233 177.425L127.231 178.422L128.228 179.752L128.893 181.192L129.225 182.854V184.386L129.114 185.181M125.347 175.43L126.233 175.873L127.452 176.76L128.339 177.646L129.225 178.754L129.89 180.195L130.333 181.635L130.555 182.632V183.851L130.333 184.516M126.344 174.765L127.12 175.209L128.117 175.984L129.114 176.76L129.779 177.535L130.333 178.422L130.887 179.53L131.33 180.638L131.441 181.524L131.552 182.743L131.441 183.519M127.452 174.101L128.117 174.544L129.114 175.209L130.001 176.095L130.887 176.981L131.552 177.868L131.884 178.865L132.217 179.973V181.192L132.328 181.968V182.632M133.103 181.192V180.306L132.882 179.087L132.328 177.868L131.884 176.76L130.887 175.541L130.001 174.765L129.225 174.101L128.339 173.547H127.895M135.347 182.743L135.652 182.632L137.425 181.635L151.607 172.66L166.233 163.353L178.2 155.707L179.308 154.599L179.751 153.27L179.618 151.94M135.347 182.743L135.541 181.635L135.652 179.973V178.2L135.272 176.538L134.544 174.987L133.657 173.657L132.328 172.549L131.109 171.884L129.89 171.552H129.225L128.228 171.61M128.228 171.61L171.663 145.181L173.879 144.849L175.319 145.403L175.652 145.693M179.618 151.94L179.53 151.054L179.308 150.352M179.618 151.94L195.485 141.746L195.818 140.97L195.929 140.416L198.92 138.456M197.258 134.211L197.812 133.768L198.588 133.436H199.474L200.25 133.657L200.804 134.544C200.878 134.802 201.026 135.342 201.026 135.43C201.026 135.541 200.804 136.206 200.804 136.317C200.804 136.405 200.435 136.723 200.25 136.871L199.585 137.092C199.548 137.203 199.474 137.447 199.474 137.536C199.474 137.624 199.253 138.09 199.142 138.311L198.92 138.456M197.258 134.211L196.815 133.99H196.15L195.375 134.322C195.116 134.507 194.599 134.898 194.599 134.987C194.599 135.076 193.713 135.689 193.269 135.984M197.258 134.211L197.591 134.765L198.256 135.43L198.588 136.206L198.92 137.092V137.868V138.456M193.269 135.984L192.605 135.763H191.718L190.721 135.984L188.172 137.536L175.652 145.693M193.269 135.984L194.045 136.649L194.599 137.314L194.931 138.09L195.153 138.644L195.264 139.862V140.97M175.652 145.693L176.839 146.732M179.308 150.352L178.865 148.948L177.092 146.954L176.839 146.732M179.308 150.352L188.394 144.959L188.837 144.073V142.743L187.729 141.414L186.621 140.749H185.513L182.965 142.411L176.839 146.732M190.943 136.76L191.718 137.092L192.383 137.646L193.159 138.311L193.602 138.976L193.823 139.641V141.524M213.325 133.436L211.22 134.322L210.001 134.876M213.325 133.436L212.992 134.987L213.325 135.763L214.987 135.984L217.979 134.544L238.366 121.247L239.696 119.585L240.25 117.591V117.259M213.325 133.436L214.1 132.106L214.544 130.887L215.319 129.669L216.206 129.115L216.981 128.893H219.419L232.348 120.472M233.491 107.508L234.156 107.84L235.818 109.281L237.148 111.164L238.034 113.27L238.81 114.378L239.031 114.71M233.491 107.508L232.826 107.175L231.386 107.508L230.638 107.933M233.491 107.508L234.156 106.732L235.264 106.289L236.704 106.511L238.366 107.84L239.918 110.278L240.028 111.497L239.918 112.826L239.474 114.045L239.031 114.71M239.031 114.71L239.253 115.043L240.25 115.818V117.259M236.261 117.923L236.483 116.594L236.527 116.261M236.261 117.923L232.348 120.472M236.261 117.923C236.741 117.665 237.724 117.126 237.812 117.037C237.901 116.948 238.071 116.631 238.145 116.483L237.923 115.818L237.369 115.043L236.626 114.267M230.638 107.933L227.286 109.835L222.743 112.605L215.873 116.815L207.674 121.912L204.793 123.8M230.638 107.933L230.721 107.951L232.605 108.394L233.934 109.281L235.485 111.164L236.483 113.048L236.626 114.267M214.433 134.987L214.987 133.879L215.541 132.993L215.984 132.549L221.303 129.336L230.721 123.353L236.704 119.364L239.031 117.923L240.25 117.259M210.001 134.876L208.782 135.43L206.344 134.987L204.017 133.99L202.466 132.106L201.58 129.558V127.12L202.688 124.904L204.461 124.018L204.793 123.8M210.001 134.876L210.666 134.101L211.109 132.993L211.22 131.331L210.776 129.558L209.89 127.896L208.671 126.234L207.563 125.347L205.79 124.239L204.793 123.8M209.588 132.328L209.447 133.103L209.003 133.879L208.006 134.322L206.898 134.211L205.569 133.214L204.571 132.328L203.574 131.109L203.131 129.669L203.02 128.117L203.242 126.677L203.907 125.68L205.458 125.569L205.569 125.618M209.588 132.328L209.668 131.885L209.557 131.054M209.588 132.328C209.356 132.291 208.871 132.195 208.782 132.106C208.671 131.995 207.674 131.206 207.563 131.158C207.474 131.119 206.861 130.296 206.566 129.89C206.381 129.41 205.99 128.428 205.901 128.339C205.812 128.25 205.642 127.416 205.569 127.009V125.618M205.569 125.618L206.123 125.864M209.557 131.054L209.447 130.223L208.782 128.782L207.674 127.231L206.455 126.012L206.123 125.864M209.557 131.054C209.299 130.924 208.76 130.666 208.671 130.666C208.582 130.666 207.748 129.927 207.341 129.558L206.566 128.117L206.233 127.009L206.123 125.864M232.348 120.472L232.383 119.585L232.605 119.031L234.71 117.591L236.527 116.261M236.527 116.261L236.704 114.932L236.626 114.267" stroke="#D4D4D4" stroke-width="0.5"/>
<path d="M15.8733 121.69L1.91205 130.554L1.13643 131.995M15.8733 121.69L66.8428 151.164L69.6129 151.718H72.1614L74.3774 151.164L76.4827 149.945L161.247 97.9782M15.8733 121.69L2.35526 113.601L1.35803 112.715V112.161L1.38705 110.942M1.13643 131.995V133.657L1.57964 135.208L4.68213 137.424L68.394 174.876L71.1641 175.762H74.3774L77.1475 174.876L79.9176 173.103L174.1 114.82L175.984 113.601L176.981 112.05V110.499V109.28M1.13643 131.995L1.57964 132.549L3.13089 133.657L69.0589 172.327L70.9425 173.103H72.4938H74.4882L75.9287 172.549L79.3636 170.554L173.657 112.493L175.652 111.164L176.427 110.277L176.981 109.28M161.247 97.9782L169.114 102.632L174.987 105.956L176.981 107.84V109.28M161.247 97.9782L174.322 89.4463L174.987 88.2275L175.098 86.7871M175.098 86.7871L174.765 87.3411L173.99 88.1167L77.3691 147.618L74.7098 149.28L72.7154 150.277H70.1669L68.2832 149.945L66.732 149.28L1.38705 110.942M175.098 86.7871V84.9034M153.713 63.2968L170.776 73.1583L173.879 75.1527L174.876 76.3716L175.098 77.4796V78.4768M153.713 63.2968L176.206 48.4492V45.7899M153.713 63.2968L139.087 72.35M176.206 45.7899L176.427 44.3495L176.206 42.909L175.208 41.801L105.624 1.24707L48.7402 36.8149M176.206 45.7899L175.652 46.5655L76.9259 108.283L75.8179 108.837L74.4882 109.391L72.8262 109.723H71.1641L69.1697 109.391L66.5104 108.283L0.25 69.2802M0.25 69.2802V71.607L0.693213 72.2719L26.3363 87.2303M0.25 69.2802V67.6181L0.91482 66.7317L3.35249 65.1969M126.566 65.9561L77.2583 36.9257M132.328 62.1888L83.2417 32.9368M138.533 58.5323L89.2251 29.2803M144.294 54.9866L94.876 25.8454M149.945 51.1085L100.638 21.9672M3.35249 65.1969L3.90651 64.848L4.23892 64.6402M3.35249 65.1969L2.35526 64.0724L1.69044 62.7428V60.1943V58.8647L2.68767 57.7566L3.90651 56.8702L4.42359 56.6486M6.23338 56.6486L4.68213 56.5378L4.42359 56.6486M6.23338 56.6486L7.89543 57.7566L9.66828 59.1971L11.3303 61.3023L11.9952 62.9644L12.4384 64.294V65.5129V66.2885V66.7317M6.23338 56.6486H6.67659H7.45222L8.22784 56.8702L9.22507 57.4242L10.2223 58.1999L11.2195 59.3079L11.9952 60.3051L12.4384 61.1915L13.1032 62.9644L13.4356 64.4048L13.5464 65.7345L13.4356 66.5987M12.4384 66.7317H13.1032L13.4356 66.5987M12.4384 66.7317L11.4411 66.5101M14.5436 62.9644L14.876 63.186L15.5409 64.0724L15.6517 64.848L15.3193 65.5129L14.5436 66.0558M14.5436 62.9644V66.0558M14.5436 62.9644L14.2112 61.7456L13.5464 60.3051L12.66 58.8647L11.6627 57.8674L11.2195 57.5048M14.5436 66.0558L14.2112 66.2885L13.4356 66.5987M10.4439 56.8702L9.44668 56.2565M10.4439 56.8702V55.9838V54.9866L10.7763 54.3218L11.4411 53.8785L11.8843 53.7677M10.4439 56.8702L11.2195 57.5048M4.42359 56.6486L5.34695 55.9838L6.67659 55.6514H7.67382L9.00346 55.9838L9.44668 56.2565M4.23892 64.6402L3.35249 63.74L2.90928 62.7428L2.68767 60.9699L2.90928 59.4187L3.6849 58.5323L3.79571 58.4953M4.23892 64.6402L5.14697 64.0724M11.4411 66.5101L11.3303 66.0558V65.1969L11.0968 64.2513M11.4411 66.5101L10.7763 66.2885L10.4439 65.8453V65.1969V64.6402L10.9979 64.294L11.0968 64.2513M11.0968 64.2513L10.9979 63.8508L10.5547 62.7428L9.88989 61.3023L8.78186 59.8619L7.45222 58.8647L5.79017 58.1999H5.23615M5.14697 64.0724L4.46053 63.5184L4.01731 62.632L3.6849 61.6348L3.5741 60.3051V59.3079L3.79571 58.4953M5.14697 64.0724L6.23338 63.3931M3.79571 58.4953L4.68213 58.1999H5.23615M6.23338 63.3931L5.56856 62.9644L5.12535 62.4104L4.79294 61.524L4.68213 60.3051V59.5295L4.79294 58.7539L5.23615 58.1999M6.23338 63.3931L13.5464 58.8205M175.098 78.4768V79.8679M175.098 78.4768L162.66 86.233M1.57964 102.854L2.13366 103.297L10.7763 108.369M1.57964 102.854V102.189L6.34758 99.3078M1.57964 102.854L1.54271 104.405M26.3363 87.2303L35.7071 92.6966M26.3363 87.2303L21.7458 90.0039M1.38705 110.942L1.42399 109.391M1.42399 109.391L66.9536 147.84L68.2832 148.394L69.8345 148.615H71.7181L73.491 148.394L75.4855 147.286L79.142 144.848L174.322 86.0114L174.876 85.3466L175.098 84.9034M1.42399 109.391L1.46356 107.729M175.098 84.9034V83.5738M1.46356 107.729L67.6184 146.399L68.8373 146.953L70.1669 147.064H71.4965L73.1586 146.732L75.2638 145.845L77.4799 144.294L173.657 84.9034L174.433 84.3494L174.876 83.9062L175.098 83.5738M1.46356 107.729L1.50049 106.178M175.098 83.5738V81.9117M1.50049 106.178L68.2832 144.959L69.6129 145.402H71.0533L72.937 145.18L74.9314 144.294L78.1447 142.299L173.657 83.1306L174.433 82.5765L174.876 82.2441L175.098 81.9117M1.50049 106.178L1.54271 104.405M175.098 81.9117V79.8679M1.54271 104.405L67.5076 142.853L69.0589 143.518L71.0533 143.629L72.937 143.407L75.153 142.632L77.1475 141.302L174.654 80.3605L175.098 79.8679M10.7763 108.369L35.7071 92.6966M10.7763 108.369L11.8843 109.019M35.7071 92.6966L36.9734 93.4352M11.8843 109.019L64.6267 139.973L67.286 140.97L69.1697 141.635H71.3857H72.8262L74.9314 140.97L76.4827 139.973L161.594 86.8979M11.8843 109.019L36.9734 93.4352M36.9734 93.4352L65.8456 110.277L68.2832 111.718L69.7237 111.995M21.7458 90.0039L87.1198 128.449M21.7458 90.0039L16.6489 93.0836M82.2445 131.662L16.6489 93.0836M16.6489 93.0836L11.6657 96.0945M77.3691 134.765L11.6657 96.0945M11.6657 96.0945L6.34758 99.3078M72.2722 138.089L6.34758 99.3078M92.5492 125.457L69.7237 111.995M69.7237 111.995L71.1641 112.272L73.9342 112.05L75.8179 111.275L77.5338 110.417M97.3137 122.244L77.5338 110.417M77.5338 110.417L77.8123 110.277L82.7985 107.191M102.632 119.252L82.7985 107.191M82.7985 107.191L87.6738 104.173M107.397 116.039L87.6738 104.173M87.6738 104.173L92.6702 101.081M112.715 113.047L92.6702 101.081M92.6702 101.081L97.8677 97.8635M117.812 109.834L97.8677 97.8635M97.8677 97.8635L102.854 94.7772M122.798 106.842L102.854 94.7772M102.854 94.7772L107.84 91.6909M128.117 103.518L107.84 91.6909M107.84 91.6909L113.048 88.4674M133.214 100.637L113.048 88.4674M113.048 88.4674L117.812 85.5182M138.2 97.6458L117.812 85.5182M117.812 85.5182L123.02 82.2948M143.186 94.3217L123.02 82.2948M123.02 82.2948L128.117 79.1399M148.283 90.9976L128.117 79.1399M128.117 79.1399L132.992 76.1221M153.269 88.1167L132.992 76.1221M132.992 76.1221L137.979 73.0358M161.594 86.8979L137.979 73.0358M161.594 86.8979L162.66 86.233M137.979 73.0358L139.087 72.35M162.66 86.233L139.087 72.35M22.0783 58.6431H22.5215L23.1863 59.1971L23.4079 59.9727L23.1863 60.6375L22.5215 61.1915L21.635 61.6348L20.1946 61.7456L18.9758 61.6348L18.0893 60.8591L17.8677 60.0835L18.3109 59.5295L17.8677 58.1999L17.2029 56.8702L16.4273 55.7622L15.4301 54.765L14.322 53.8785L13.1032 53.6569H12.7154M22.0783 58.6431V59.5295V60.3051V60.8591M22.0783 58.6431L21.7458 57.4242L20.8594 55.7622L19.7514 54.2109L18.7542 53.1029L17.8677 52.4211M9.44668 56.2565L9.11427 55.5406L9.22507 54.765V53.9893L9.77909 53.1029L10.7763 52.2165L10.9979 52.0899M11.2195 57.5048V56.2565V54.765L11.4411 54.2109L11.8843 53.7677M11.8843 53.7677L12.3276 53.6569H12.7154M12.7154 53.6569L12.4384 54.3218V55.5406V56.5378L12.7154 57.2026L13.1032 57.9783L13.5464 58.8205M13.5464 58.8205L21.4501 53.8785M19.973 60.6375L19.7514 58.9755C19.6036 58.5121 19.286 57.5693 19.1974 57.5048C19.1087 57.4404 18.6434 56.6458 18.4217 56.2565L17.7569 55.319L16.6489 54.2109L15.3193 53.1029L14.1004 52.4381L12.9924 51.9949H11.8843L11.4411 52.0424M10.9979 52.0899L12.3276 51.3301L13.3248 50.8869L14.7652 50.6652L15.9841 51.1085L16.6489 51.5517M10.9979 52.0899L11.4411 52.0424M20.8594 60.3051L20.7486 58.8647L20.4162 57.7566L19.6406 56.2565L19.1974 55.6514L18.3109 54.6542L16.9813 53.4353C16.6489 53.1768 15.9841 52.6375 15.9841 52.5489C15.9841 52.4381 14.9868 52.1848 14.876 52.0899C14.7874 52.0139 14.1004 51.8471 13.768 51.7733H12.66L11.4411 52.0424M25.5132 55.2082L25.2916 55.7622L25.5132 56.5378L26.3996 57.0918L27.7292 57.2026L28.8373 57.0918L29.6129 56.7594L30.2777 55.873L30.4993 54.9866L30.2777 54.1001L29.7237 53.3245L29.2805 53.1029L28.9481 52.2165L28.394 50.8869L28.0616 50.222L27.1752 49.0032L26.3996 48.3568M16.6489 51.5517L17.3137 51.9949L17.8677 52.4211M16.6489 51.5517V50.6652L16.7597 49.7788L17.2029 49.0032L17.8677 48.1168L18.6434 47.5628L18.8206 47.452M24.4627 51.9949L23.8511 50.8869C23.6295 50.6283 23.1641 50.0891 23.0755 50.0004C22.9868 49.9118 22.1521 49.5203 21.7458 49.3356L20.6378 49.114H20.0284M24.4627 51.9949L21.4501 53.8785M24.4627 51.9949L24.8483 52.5489L25.2916 53.5461L25.624 54.6542L25.8456 55.2082V55.7622M24.4627 51.9949L29.0701 49.114M17.8677 52.4211V51.4409L18.0893 50.4436L18.7542 49.5572L19.419 49.114H20.0284M20.0284 49.114V50.222V51.5517L20.3054 52.4381L20.7486 53.2137L21.4501 53.8785M27.6184 56.0946L27.3968 54.765L26.8428 53.3245L26.3996 52.2165L25.9564 51.5517L25.2916 50.6652C24.9961 50.2959 24.383 49.5572 24.2943 49.5572C24.2057 49.5572 23.6664 48.9663 23.4079 48.6708C23.1863 48.56 22.7431 48.3162 22.7431 48.2276C22.7431 48.1389 22.3737 47.8213 22.1891 47.6736L21.635 47.5351M18.8206 47.452L19.5298 47.0087L20.4162 46.4547L21.4134 46.1223H22.7431L23.6295 46.4547L24.1281 46.7871M18.8206 47.452H19.3082H20.3054H21.3026L21.635 47.5351M28.394 55.4298L28.2832 54.4326C28.2094 54.1001 28.0395 53.4353 27.9508 53.4353C27.8622 53.4353 27.4707 52.6228 27.286 52.2165L26.732 51.1085L26.178 50.3328L25.5132 49.4464L24.4627 48.4492L23.6295 47.7844L22.7431 47.5628L21.635 47.5351M33.2694 50.4436L32.937 51.1085L33.1586 51.7733L33.8234 52.4211L34.7098 52.5489L35.9287 52.4381L36.9259 51.9949L37.5907 51.1085L37.9231 50.3328V49.7788L37.4799 49.2248L36.4827 48.7816L36.5935 49.5572L36.7043 50.3328L36.8151 51.1085V51.5517L36.4827 48.6708L35.9287 47.1195L35.5963 46.4547L35.153 45.7899L34.4882 44.7927L33.9896 44.2387M32.2722 42.5766L33.491 43.6847L33.9896 44.2387M32.2722 42.5766L31.1641 42.0226M32.2722 42.5766V42.1334L32.383 41.4686L32.8262 40.693L33.2694 39.9173L33.7126 39.7274M24.1281 46.7871L24.6267 47.1195L25.4024 47.6131M24.1281 46.7871L24.1835 45.0143L24.4627 44.2387L25.1807 43.3522L26.178 42.5766L26.5769 42.355M33.8234 51.7733L33.7126 50.8869L33.2694 49.7788L32.6046 48.4492L32.0506 47.6736L31.4965 46.4547C31.238 46.1962 30.6766 45.6569 30.4993 45.5683C30.322 45.4797 29.6129 44.8666 29.2805 44.5711L28.2832 44.2387L27.3968 44.1402M25.4024 47.6131L25.8456 47.8952L26.3996 48.3568M25.4024 47.6131V46.3439V45.0143L26.178 44.3495L26.3996 44.3052M29.0701 49.114L28.5048 48.7816L27.9508 48.2276L27.3968 47.452L27.286 46.4547L27.1752 45.5683V44.7927L27.3968 44.1402M29.0701 49.114L33.1586 46.5576M27.3968 44.1402L27.286 44.1279L26.3996 44.3052M26.3996 44.3052L26.178 45.4575V46.4547V47.6131L26.3996 48.3568M34.9314 51.2193L34.8206 50.222L34.7098 49.3356L34.2666 48.3568L33.8234 47.6131L33.491 47.0087L33.1586 46.5576M33.1586 46.5576L32.6046 46.0115L31.7181 45.1251C31.4596 44.9035 30.9425 44.4381 30.9425 44.3495C30.9425 44.2608 30.3516 43.7955 30.0561 43.5739L28.8373 42.909L28.0616 42.6874M33.1586 46.5576L36.0895 44.725M28.0616 42.6874L27.286 42.4658L26.5769 42.355M28.0616 42.6874H29.2805C29.5021 42.7613 29.9675 42.909 30.0561 42.909C30.1447 42.909 30.4624 43.0568 30.6101 43.1306C30.8687 43.2784 31.4079 43.5739 31.4965 43.5739C31.6073 43.5739 32.2722 44.3495 32.4938 44.4603C32.6711 44.5489 33.0847 45.162 33.2694 45.4575L34.045 46.4547L34.2666 47.0087L34.9314 48.2276L35.2638 49.3356L35.5963 50.6652M26.5769 42.355L27.1752 42.0226L28.2832 41.801L29.3913 41.5794L30.7209 41.801L31.1641 42.0226M31.1641 42.0226L31.2749 41.1362L31.4965 40.2498L32.0506 39.2525L32.937 38.4769L33.8234 37.8564M42.5769 47.1195L42.1337 45.6791L41.6904 44.0171L41.0256 42.7982L40.6932 42.355L39.696 41.0254L38.3663 39.5849C37.9231 39.2156 37.0145 38.4769 36.9259 38.4769C36.8373 38.4769 35.7809 38.2553 35.2638 38.1445L34.3774 37.9229L33.8234 37.8564M33.8234 37.8564L34.045 37.7013L35.3747 37.0365L36.7043 36.8149L38.1447 37.1473L39.142 37.5308M33.8234 37.8564L37.0367 38.1445L37.8123 38.2553L38.6988 38.8093L39.8068 39.5849L40.6932 40.4714L41.6904 41.6902L42.1337 42.4658L42.5769 43.6847L42.9093 44.9035M40.5824 45.6791L40.4716 45.1251L40.0284 45.9007L40.1392 46.6763L40.9148 47.6131L42.1337 47.8952H43.4633L44.5713 47.1195C44.756 46.861 45.1475 46.3439 45.2361 46.3439C45.3248 46.3439 45.4208 45.8268 45.4578 45.5683L45.2361 44.9035L44.6821 44.3052L44.1281 44.1279L43.9065 43.1306L43.3525 42.0226L42.9093 40.9146L42.1337 40.0282L40.9148 38.6985L40.0284 38.0337M40.3608 44.3495C40.25 44.0171 40.0062 43.3522 39.9176 43.3522C39.8289 43.3522 39.659 43.0568 39.5852 42.909C39.3636 42.6505 38.9204 42.1112 38.9204 42.0226C38.9204 41.9118 38.1447 41.247 38.1447 41.1362C38.1447 41.0254 37.2583 40.2498 37.1475 40.2498C37.0367 40.2498 36.0395 39.8065 35.9287 39.6957C35.84 39.6071 35.3008 39.5849 35.0422 39.5849H34.5436M36.0895 44.725L35.4855 44.1279C35.3377 43.8693 35.0422 43.3301 35.0422 43.2414C35.0422 43.1306 34.599 42.2442 34.599 42.1334C34.599 42.0448 34.5252 41.1362 34.4882 40.693L34.5436 39.5849M36.0895 44.725L43.1309 40.3222M34.5436 39.5849H34.045L33.7126 39.7274M33.9896 44.2387L33.8234 43.0198L33.7126 42.1334L33.6018 41.3578V40.4714L33.7126 39.7274M39.142 37.5308L39.5852 37.7013L40.0284 38.0337M39.142 37.5308V35.596L39.9176 34.7096L41.0256 33.8232L41.4245 33.6016M47.8954 39.7274V40.4714L47.4522 40.9146L47.3414 41.5794L47.6738 42.1334L48.3386 42.7982L49.2251 43.1306L50.1115 43.2414L51.3303 43.1306L51.9952 42.6874L52.5492 41.9118L52.7708 41.0254L52.5492 40.4714L52.2168 40.0282L51.5519 39.8065L51.2195 38.8093L50.3331 37.0365L49.5575 35.7068L48.5602 34.5988L46.6766 33.1584L45.347 32.4935L43.2417 32.6043L42.0229 33.2692L41.4245 33.6016M47.8954 39.7274L47.4522 38.8093L47.1198 38.3661L46.3442 37.3689L45.4578 36.2608L44.5713 35.7068L43.5741 35.1528L42.7985 35.042H42.3553M47.8954 39.7274L48.2278 40.8038L48.3386 41.4686V42.1334M40.0284 38.0337V37.5308V36.8149L40.4716 35.8176L41.1364 35.2636L41.8012 35.042H42.3553M43.1309 40.3222L42.7985 39.4741L42.4661 38.6985C42.4291 38.4229 42.3553 37.8377 42.3553 37.7013C42.3553 37.5649 42.2814 37.0535 42.2445 36.8149L42.1337 35.9284L42.2445 35.2636L42.3553 35.042M43.1309 40.3222L48.7402 36.8149M49.5575 42.355V41.0254L49.2251 39.7274L48.7819 38.6985L48.3386 37.9229L48.117 37.5308L47.1198 36.3716C46.8613 36.1131 46.322 35.5739 46.2334 35.4852C46.1226 35.3744 45.4578 34.8204 45.347 34.7096C45.2583 34.621 44.7191 34.3033 44.4605 34.1556L43.5741 33.7124M43.5741 33.7124L42.7985 33.6016H42.0229H41.4245M43.5741 33.7124L44.9037 33.8232C45.1992 33.897 45.8123 34.0669 45.901 34.1556C46.0118 34.2664 46.7874 34.8204 46.8982 34.8204C47.009 34.8204 47.8954 35.8176 48.0062 35.8176M50.4439 41.6902L50.0007 39.6957C49.7422 39.127 49.2251 37.9761 49.2251 37.9229C49.2251 37.8697 48.9018 37.162 48.7402 36.8149" stroke="#D4D4D4" stroke-width="0.5"/>
<path d="M55.2083 35.8187L54.7651 36.3727L54.6543 37.0375C54.6543 37.2222 54.6765 37.6137 54.7651 37.7023C54.8759 37.8131 55.3191 38.3672 55.43 38.3672C55.5186 38.3672 56.2794 38.5888 56.6488 38.6996L57.646 38.5888C57.9759 38.5149 58.6474 38.3672 58.6948 38.3672C58.7422 38.3672 59.345 38.0717 59.6405 37.9239L59.9729 37.3699L60.0837 36.5943L59.8621 35.9295L59.4189 35.3755L58.8649 35.2647H58.4216M55.2083 35.8187L55.43 36.1511V36.8159M55.2083 35.8187L54.9867 35.0431L54.7651 34.1566L54.4327 33.6026C54.3219 33.381 54.0782 32.9378 53.9895 32.9378C53.9009 32.9378 53.3616 32.3469 53.1031 32.0514C52.7707 31.7928 52.0837 31.2536 51.995 31.165C51.8842 31.0541 51.5518 30.8325 51.3302 30.7217C51.1529 30.6331 50.7393 30.5371 50.5546 30.5001H50.333M58.4216 35.2647L58.6432 35.8187V36.4835L58.5324 37.0375V37.5915M58.4216 35.2647L58.2 34.2674C58.0892 33.935 57.8455 33.248 57.7568 33.1594C57.6682 33.0708 57.3505 32.5315 57.2028 32.273L56.538 31.0541L55.43 29.8353L54.1003 28.7273L53.1031 28.2841L51.8842 27.9517H50.887L50.0006 28.0625L49.1142 28.5057L48.1169 29.0597L47.984 29.1705M46.2333 32.9378V32.0514V31.3866L46.5657 30.7217L47.0089 30.0569L47.4521 29.6137L47.984 29.1705M47.2305 33.6026C47.2674 33.3071 47.3413 32.694 47.3413 32.6054C47.3413 32.5167 47.4152 32.3469 47.4521 32.273C47.489 32.0883 47.5851 31.6968 47.6737 31.6082C47.7624 31.5195 48.0061 31.2019 48.1169 31.0541L48.8926 30.7217L49.225 30.6386M50.333 30.5001H49.779L49.225 30.6386M50.333 30.5001L49.5574 31.0541L49.4466 31.9406L49.3358 32.6054V33.2702L49.5574 34.0978L49.779 34.489L50.0006 34.9323L50.2222 35.1539L50.6654 35.2647H51.2194M49.225 30.6386L48.5601 31.3866L48.3385 32.0514L48.2277 32.827V33.381L48.3385 33.8242L48.4493 34.1566L48.7818 34.7107M57.092 37.9239L56.9812 36.8159L56.6488 35.5971L56.2056 34.489C56.0948 34.2674 55.851 33.8021 55.7624 33.7134C55.6737 33.6248 55.43 33.2333 55.3191 33.0486L54.8759 32.273L53.9895 31.3866C53.694 31.128 53.1031 30.5888 53.1031 30.5001C53.1031 30.3893 52.4383 29.8353 52.3275 29.8353C52.2388 29.8353 51.7734 29.5398 51.5518 29.3921M51.5518 29.3921L50.4438 29.1705H49.6682H48.7818H47.984M51.5518 29.3921L52.2167 29.5029L52.9923 29.6137L53.7679 29.9461L54.6543 30.8325L55.5408 31.8298L56.0948 32.6054L56.7596 33.7134C56.9237 34.1197 57.2644 34.9544 57.3136 35.0431C57.3629 35.1317 57.4819 35.7448 57.5352 36.0403L57.7568 37.4807" stroke="#D4D4D4" stroke-width="0.5"/>
<path d="M62.6323 31.1629L62.1891 31.7169L62.0783 32.3818C62.0783 32.5664 62.1005 32.9579 62.1891 33.0466C62.2999 33.1574 62.7431 33.7114 62.8539 33.7114C62.9426 33.7114 63.7034 33.933 64.0728 34.0438L65.07 33.933C65.3999 33.8591 66.0714 33.7114 66.1188 33.7114C66.1662 33.7114 66.769 33.4159 67.0645 33.2682L67.3969 32.7142L67.5077 31.9385L67.2861 31.2737L66.8429 30.7197L66.2888 30.6089H65.8456M62.6323 31.1629L62.8539 31.4953V32.1601M62.6323 31.1629L62.4107 30.3873L62.1891 29.5009L61.8567 28.9469C61.7459 28.7253 61.5021 28.282 61.4135 28.282C61.3248 28.282 60.7856 27.6911 60.5271 27.3956C60.1947 27.1371 59.5077 26.5978 59.419 26.5092C59.3082 26.3984 58.9758 26.1768 58.7542 26.066C58.5769 25.9773 58.1633 25.8813 57.9786 25.8444H57.757M65.8456 30.6089L66.0672 31.1629V31.8277L65.9564 32.3818V32.9358M65.8456 30.6089L65.624 29.6117C65.5132 29.2793 65.2694 28.5923 65.1808 28.5036C65.0922 28.415 64.7745 27.8758 64.6268 27.6172L63.962 26.3984L62.8539 25.1796L61.5243 24.0715L60.5271 23.6283L59.3082 23.2959H58.311L57.4246 23.4067L56.5381 23.8499L55.5409 24.4039L55.4079 24.5147M53.6573 28.282V27.3956V26.7308L53.9897 26.066L54.4329 25.4012L54.8761 24.9579L55.4079 24.5147M54.6545 28.9469C54.6914 28.6514 54.7653 28.0383 54.7653 27.9496C54.7653 27.861 54.8392 27.6911 54.8761 27.6172C54.913 27.4325 55.0091 27.041 55.0977 26.9524C55.1863 26.8638 55.4301 26.5461 55.5409 26.3984L56.3165 26.066L56.6489 25.9829M57.757 25.8444H57.203L56.6489 25.9829M57.757 25.8444L56.9814 26.3984L56.8706 27.2848L56.7598 27.9496V28.6144L56.9814 29.442L57.203 29.8333L57.4246 30.2765L57.6462 30.4981L58.0894 30.6089H58.6434M56.6489 25.9829L55.9841 26.7308L55.7625 27.3956L55.6517 28.1712V28.7253L55.7625 29.1685L55.8733 29.5009L56.2057 30.0549M64.516 33.2682L64.4052 32.1601L64.0728 30.9413L63.6296 29.8333C63.5188 29.6117 63.275 29.1463 63.1863 29.0577C63.0977 28.969 62.8539 28.5775 62.7431 28.3928L62.2999 27.6172L61.4135 26.7308C61.118 26.4723 60.5271 25.933 60.5271 25.8444C60.5271 25.7336 59.8622 25.1796 59.7514 25.1796C59.6628 25.1796 59.1974 24.8841 58.9758 24.7363M58.9758 24.7363L57.8678 24.5147H57.0922H56.2057H55.4079M58.9758 24.7363L59.6406 24.8471L60.4163 24.9579L61.1919 25.2904L62.0783 26.1768L62.9647 27.174L63.5188 27.9496L64.1836 29.0577C64.3477 29.4639 64.6883 30.2987 64.7376 30.3873C64.7868 30.4759 64.9058 31.0891 64.9592 31.3845L65.1808 32.825" stroke="#D4D4D4" stroke-width="0.5"/>
<path d="M69.9452 26.5106L69.5019 27.0646L69.3911 27.7294C69.3911 27.9141 69.4133 28.3056 69.5019 28.3942C69.6128 28.505 70.056 29.059 70.1668 29.059C70.2554 29.059 71.0163 29.2807 71.3856 29.3915L72.3828 29.2807C72.7127 29.2068 73.3843 29.059 73.4316 29.059C73.479 29.059 74.0818 28.7636 74.3773 28.6158L74.7097 28.0618L74.8205 27.2862L74.5989 26.6214L74.1557 26.0674L73.6017 25.9566H73.1585M69.9452 26.5106L70.1668 26.843V27.5078M69.9452 26.5106L69.7236 25.735L69.5019 24.8485L69.1695 24.2945C69.0587 24.0729 68.815 23.6297 68.7263 23.6297C68.6377 23.6297 68.0984 23.0387 67.8399 22.7433C67.5075 22.4847 66.8205 21.9455 66.7319 21.8568C66.6211 21.746 66.2887 21.5244 66.067 21.4136C65.8898 21.325 65.4761 21.229 65.2914 21.192H65.0698M73.1585 25.9566L73.3801 26.5106V27.1754L73.2693 27.7294V28.2834M73.1585 25.9566L72.9369 24.9593C72.826 24.6269 72.5823 23.9399 72.4936 23.8513C72.405 23.7627 72.0874 23.2234 71.9396 22.9649L71.2748 21.746L70.1668 20.5272L68.8371 19.4192L67.8399 18.976L66.6211 18.6436H65.6238L64.7374 18.7544L63.851 19.1976L62.8537 19.7516L62.7208 19.8624M60.9701 23.6297V22.7433V22.0785L61.3025 21.4136L61.7457 20.7488L62.1889 20.3056L62.7208 19.8624M61.9673 24.2945C62.0043 23.999 62.0781 23.3859 62.0781 23.2973C62.0781 23.2086 62.152 23.0387 62.1889 22.9649C62.2259 22.7802 62.3219 22.3887 62.4105 22.3001C62.4992 22.2114 62.7429 21.8938 62.8537 21.746L63.6294 21.4136L63.9618 21.3305M65.0698 21.192H64.5158L63.9618 21.3305M65.0698 21.192L64.2942 21.746L64.1834 22.6325L64.0726 23.2973V23.9621L64.2942 24.7897L64.5158 25.1809L64.7374 25.6242L64.959 25.8458L65.4022 25.9566H65.9562M63.9618 21.3305L63.297 22.0785L63.0754 22.7433L62.9646 23.5189V24.0729L63.0754 24.5161L63.1862 24.8485L63.5186 25.4025M71.8288 28.6158L71.718 27.5078L71.3856 26.289L70.9424 25.1809C70.8316 24.9593 70.5878 24.494 70.4992 24.4053C70.4105 24.3167 70.1668 23.9252 70.056 23.7405L69.6128 22.9649L68.7263 22.0785C68.4308 21.8199 67.8399 21.2807 67.8399 21.192C67.8399 21.0812 67.1751 20.5272 67.0643 20.5272C66.9756 20.5272 66.5103 20.2317 66.2887 20.084M66.2887 20.084L65.1806 19.8624H64.405H63.5186H62.7208M66.2887 20.084L66.9535 20.1948L67.7291 20.3056L68.5047 20.638L69.3911 21.5244L70.2776 22.5217L70.8316 23.2973L71.4964 24.4053C71.6606 24.8116 72.0012 25.6463 72.0504 25.735C72.0997 25.8236 72.2187 26.4367 72.272 26.7322L72.4936 28.1726" stroke="#D4D4D4" stroke-width="0.5"/>
<path d="M77.0368 21.6361L76.5936 22.1901L76.4828 22.8549C76.4828 23.0396 76.5049 23.4311 76.5936 23.5197C76.7044 23.6305 77.1476 24.1845 77.2584 24.1845C77.347 24.1845 78.1079 24.4061 78.4772 24.5169L79.4744 24.4061C79.8043 24.3323 80.4759 24.1845 80.5233 24.1845C80.5706 24.1845 81.1734 23.8891 81.4689 23.7413L81.8013 23.1873L81.9121 22.4117L81.6905 21.7469L81.2473 21.1929L80.6933 21.082H80.2501M77.0368 21.6361L77.2584 21.9685V22.6333M77.0368 21.6361L76.8152 20.8604L76.5936 19.974L76.2612 19.42C76.1503 19.1984 75.9066 18.7552 75.8179 18.7552C75.7293 18.7552 75.1901 18.1642 74.9315 17.8688C74.5991 17.6102 73.9121 17.071 73.8235 16.9823C73.7127 16.8715 73.3803 16.6499 73.1587 16.5391C72.9814 16.4505 72.5677 16.3544 72.383 16.3175H72.1614M80.2501 21.082L80.4717 21.6361V22.3009L80.3609 22.8549V23.4089M80.2501 21.082L80.0285 20.0848C79.9177 19.7524 79.6739 19.0654 79.5853 18.9768C79.4966 18.8881 79.179 18.3489 79.0312 18.0904L78.3664 16.8715L77.2584 15.6527L75.9287 14.5447L74.9315 14.1015L73.7127 13.769H72.7154L71.829 13.8798L70.9426 14.3231L69.9454 14.8771L69.8124 14.9879M68.0617 18.7552V17.8688V17.2039L68.3941 16.5391L68.8373 15.8743L69.2805 15.4311L69.8124 14.9879M69.0589 19.42C69.0959 19.1245 69.1697 18.5114 69.1697 18.4228C69.1697 18.3341 69.2436 18.1642 69.2805 18.0904C69.3175 17.9057 69.4135 17.5142 69.5021 17.4255C69.5908 17.3369 69.8346 17.0193 69.9454 16.8715L70.721 16.5391L71.0534 16.456M72.1614 16.3175H71.6074L71.0534 16.456M72.1614 16.3175L71.3858 16.8715L71.275 17.758L71.1642 18.4228V19.0876L71.3858 19.9151L71.6074 20.3064L71.829 20.7496L72.0506 20.9712L72.4938 21.082H73.0479M71.0534 16.456L70.3886 17.2039L70.167 17.8688L70.0562 18.6444V19.1984L70.167 19.6416L70.2778 19.974L70.6102 20.528M78.9204 23.7413L78.8096 22.6333L78.4772 21.4145L78.034 20.3064C77.9232 20.0848 77.6794 19.6194 77.5908 19.5308C77.5021 19.4422 77.2584 19.0507 77.1476 18.866L76.7044 18.0904L75.8179 17.2039C75.5225 16.9454 74.9315 16.4062 74.9315 16.3175C74.9315 16.2067 74.2667 15.6527 74.1559 15.6527C74.0672 15.6527 73.6019 15.3572 73.3803 15.2095M73.3803 15.2095L72.2722 14.9879H71.4966H70.6102H69.8124M73.3803 15.2095L74.0451 15.3203L74.8207 15.4311L75.5963 15.7635L76.4828 16.6499L77.3692 17.6472L77.9232 18.4228L78.588 19.5308C78.7522 19.9371 79.0928 20.7718 79.142 20.8604C79.1913 20.9491 79.3103 21.5622 79.3636 21.8577L79.5853 23.2981" stroke="#D4D4D4" stroke-width="0.5"/>
<path d="M84.3497 17.2027L83.9065 17.7567L83.7957 18.4215C83.7957 18.6062 83.8178 18.9977 83.9065 19.0864C84.0173 19.1972 84.4605 19.7512 84.5713 19.7512C84.66 19.7512 85.4208 19.9728 85.7901 20.0836L86.7874 19.9728C87.1172 19.8989 87.7888 19.7512 87.8362 19.7512C87.8836 19.7512 88.4864 19.4557 88.7818 19.308L89.1142 18.754L89.225 17.9783L89.0034 17.3135L88.5602 16.7595L88.0062 16.6487H87.563M84.3497 17.2027L84.5713 17.5351V18.1999M84.3497 17.2027L84.1281 16.4271L83.9065 15.5407L83.5741 14.9867C83.4633 14.765 83.2195 14.3218 83.1309 14.3218C83.0422 14.3218 82.503 13.7309 82.2444 13.4354C81.912 13.1769 81.225 12.6376 81.1364 12.549C81.0256 12.4382 80.6932 12.2166 80.4716 12.1058C80.2943 12.0171 79.8806 11.9211 79.696 11.8842H79.4744M87.563 16.6487L87.7846 17.2027V17.8675L87.6738 18.4215V18.9756M87.563 16.6487L87.3414 15.6515C87.2306 15.3191 86.9868 14.6321 86.8982 14.5434C86.8095 14.4548 86.4919 13.9156 86.3442 13.657L85.6793 12.4382L84.5713 11.2193L83.2417 10.1113L82.2444 9.6681L81.0256 9.33569H80.0284L79.1419 9.4465L78.2555 9.88971L77.2583 10.4437L77.1253 10.5545M75.3746 14.3218V13.4354V12.7706L75.707 12.1058L76.1503 11.441L76.5935 10.9977L77.1253 10.5545M76.3719 14.9867C76.4088 14.6912 76.4827 14.0781 76.4827 13.9894C76.4827 13.9008 76.5565 13.7309 76.5935 13.657C76.6304 13.4723 76.7264 13.0808 76.8151 12.9922C76.9037 12.9036 77.1475 12.5859 77.2583 12.4382L78.0339 12.1058L78.3663 12.0227M79.4744 11.8842H78.9203L78.3663 12.0227M79.4744 11.8842L78.6987 12.4382L78.5879 13.3246L78.4771 13.9894V14.6542L78.6987 15.4818L78.9203 15.8731L79.1419 16.3163L79.3636 16.5379L79.8068 16.6487H80.3608M78.3663 12.0227L77.7015 12.7706L77.4799 13.4354L77.3691 14.211V14.765L77.4799 15.2083L77.5907 15.5407L77.9231 16.0947M86.2334 19.308L86.1226 18.1999L85.7901 16.9811L85.3469 15.8731C85.2361 15.6515 84.9924 15.1861 84.9037 15.0975C84.8151 15.0088 84.5713 14.6173 84.4605 14.4326L84.0173 13.657L83.1309 12.7706C82.8354 12.512 82.2444 11.9728 82.2444 11.8842C82.2444 11.7734 81.5796 11.2193 81.4688 11.2193C81.3802 11.2193 80.9148 10.9239 80.6932 10.7761M80.6932 10.7761L79.5852 10.5545H78.8095H77.9231H77.1253M80.6932 10.7761L81.358 10.8869L82.1336 10.9977L82.9093 11.3301L83.7957 12.2166L84.6821 13.2138L85.2361 13.9894L85.9009 15.0975C86.0651 15.5037 86.4057 16.3385 86.455 16.4271C86.5042 16.5157 86.6232 17.1288 86.6766 17.4243L86.8982 18.8648" stroke="#D4D4D4" stroke-width="0.5"/>
<path d="M91.4412 12.7691L90.998 13.3231L90.8872 13.988C90.8872 14.1726 90.9093 14.5641 90.998 14.6528C91.1088 14.7636 91.552 15.3176 91.6628 15.3176C91.7514 15.3176 92.5123 15.5392 92.8816 15.65L93.8789 15.5392C94.2087 15.4653 94.8803 15.3176 94.9277 15.3176C94.9751 15.3176 95.5779 15.0221 95.8733 14.8744L96.2057 14.3204L96.3165 13.5447L96.0949 12.8799L95.6517 12.3259L95.0977 12.2151H94.6545M91.4412 12.7691L91.6628 13.1015V13.7663M91.4412 12.7691L91.2196 11.9935L90.998 11.1071L90.6656 10.5531C90.5548 10.3315 90.311 9.88824 90.2224 9.88824C90.1337 9.88824 89.5945 9.29729 89.3359 9.00181C89.0035 8.74327 88.3165 8.20403 88.2279 8.11539C88.1171 8.00459 87.7847 7.78298 87.5631 7.67218C87.3858 7.58353 86.9721 7.48751 86.7875 7.45057H86.5658M94.6545 12.2151L94.8761 12.7691V13.4339L94.7653 13.988V14.542M94.6545 12.2151L94.4329 11.2179C94.3221 10.8855 94.0783 10.1985 93.9897 10.1098C93.901 10.0212 93.5834 9.48196 93.4357 9.22342L92.7708 8.00459L91.6628 6.78575L90.3332 5.67772L89.3359 5.23451L88.1171 4.9021H87.1199L86.2334 5.0129L85.347 5.45612L84.3498 6.01013L84.2168 6.12093M82.4661 9.88824V9.00181V8.337L82.7985 7.67218L83.2417 7.00736L83.685 6.56415L84.2168 6.12093M83.4634 10.5531C83.5003 10.2576 83.5742 9.64447 83.5742 9.55583C83.5742 9.46719 83.648 9.29729 83.685 9.22342C83.7219 9.03875 83.8179 8.64724 83.9066 8.5586C83.9952 8.46996 84.239 8.15232 84.3498 8.00459L85.1254 7.67218L85.4578 7.58908M86.5658 7.45057H86.0118L85.4578 7.58908M86.5658 7.45057L85.7902 8.00459L85.6794 8.89101L85.5686 9.55583V10.2206L85.7902 11.0482L86.0118 11.4395L86.2334 11.8827L86.455 12.1043L86.8983 12.2151H87.4523M85.4578 7.58908L84.793 8.337L84.5714 9.00181L84.4606 9.77744V10.3315L84.5714 10.7747L84.6822 11.1071L85.0146 11.6611M93.3249 14.8744L93.214 13.7663L92.8816 12.5475L92.4384 11.4395C92.3276 11.2179 92.0839 10.7525 91.9952 10.6639C91.9066 10.5752 91.6628 10.1837 91.552 9.99904L91.1088 9.22342L90.2224 8.337C89.9269 8.07846 89.3359 7.53921 89.3359 7.45057C89.3359 7.33977 88.6711 6.78575 88.5603 6.78575C88.4717 6.78575 88.0063 6.49028 87.7847 6.34254M87.7847 6.34254L86.6767 6.12093H85.901H85.0146H84.2168M87.7847 6.34254L88.4495 6.45334L89.2251 6.56415L90.0008 6.89656L90.8872 7.78298L91.7736 8.78021L92.3276 9.55583L92.9924 10.6639C93.1566 11.0701 93.4972 11.9049 93.5465 11.9935C93.5957 12.0821 93.7147 12.6953 93.7681 12.9907L93.9897 14.4312" stroke="#D4D4D4" stroke-width="0.5"/>
<path d="M98.5326 8.11702L98.0894 8.67104L97.9786 9.33586C97.9786 9.52053 98.0008 9.91203 98.0894 10.0007C98.2002 10.1115 98.6434 10.6655 98.7542 10.6655C98.8429 10.6655 99.6037 10.8871 99.9731 10.9979L100.97 10.8871C101.3 10.8132 101.972 10.6655 102.019 10.6655C102.067 10.6655 102.669 10.37 102.965 10.2223L103.297 9.66826L103.408 8.89264L103.186 8.22782L102.743 7.67381L102.189 7.56301H101.746M98.5326 8.11702L98.7542 8.44943V9.11425M98.5326 8.11702L98.311 7.3414L98.0894 6.45497L97.757 5.90096C97.6462 5.67935 97.4024 5.23614 97.3138 5.23614C97.2252 5.23614 96.6859 4.64519 96.4274 4.34972C96.095 4.09117 95.408 3.55193 95.3193 3.46329C95.2085 3.35249 94.8761 3.13088 94.6545 3.02008C94.4772 2.93144 94.0636 2.83541 93.8789 2.79847H93.6573M101.746 7.56301L101.968 8.11702V8.78184L101.857 9.33586V9.88987M101.746 7.56301L101.524 6.56578C101.414 6.23337 101.17 5.54639 101.081 5.45775C100.992 5.3691 100.675 4.82986 100.527 4.57132L99.8623 3.35249L98.7542 2.13365L97.4246 1.02562L96.4274 0.582409L95.2085 0.25H94.2113L93.3249 0.360803L92.4385 0.804016L91.4412 1.35803L91.3083 1.46883M89.5576 5.23614V4.34972V3.6849L89.89 3.02008L90.3332 2.35526L90.7764 1.91205L91.3083 1.46883M90.5548 5.90096C90.5917 5.60548 90.6656 4.99237 90.6656 4.90373C90.6656 4.81509 90.7395 4.64519 90.7764 4.57132C90.8133 4.38665 90.9094 3.99515 90.998 3.9065C91.0867 3.81786 91.3304 3.50022 91.4412 3.35249L92.2169 3.02008L92.5493 2.93698M93.6573 2.79847H93.1033L92.5493 2.93698M93.6573 2.79847L92.8817 3.35249L92.7709 4.23891L92.6601 4.90373V5.56855L92.8817 6.3961L93.1033 6.78738L93.3249 7.2306L93.5465 7.4522L93.9897 7.56301H94.5437M92.5493 2.93698L91.8844 3.6849L91.6628 4.34972L91.552 5.12534V5.67935L91.6628 6.12256L91.7736 6.45497L92.106 7.00899M100.416 10.2223L100.305 9.11425L99.9731 7.89541L99.5299 6.78738C99.4191 6.56578 99.1753 6.1004 99.0867 6.01176C98.998 5.92312 98.7542 5.53162 98.6434 5.34694L98.2002 4.57132L97.3138 3.6849C97.0183 3.42636 96.4274 2.88711 96.4274 2.79847C96.4274 2.68767 95.7626 2.13365 95.6518 2.13365C95.5631 2.13365 95.0977 1.83818 94.8761 1.69044M94.8761 1.69044L93.7681 1.46883H92.9925H92.106H91.3083M94.8761 1.69044L95.541 1.80124L96.3166 1.91205L97.0922 2.24446L97.9786 3.13088L98.8651 4.12811L99.4191 4.90373L100.084 6.01176C100.248 6.41804 100.589 7.25276 100.638 7.3414C100.687 7.43004 100.806 8.04315 100.86 8.33863L101.081 9.77907" stroke="#D4D4D4" stroke-width="0.5"/>
</svg>
